<svg width="973" height="993" viewBox="0 0 973 993" fill="none" xmlns="http://www.w3.org/2000/svg">
<path fill-rule="evenodd" clip-rule="evenodd" d="M87.6256 138.995C133.759 -71.9377 301.466 -3.47148 308 87.9817C395.746 171.648 297.932 203.982 297.932 203.982C197.506 668.115 861.213 503.195 711.906 164.529C1025.79 254.995 1015.77 665.875 890.559 652.208C937.493 764.435 859.959 758.316 859.959 758.316C853.788 897.097 719.915 961.17 637.841 987.503C537.68 978.592 366.951 985.712 263.336 992.287L244.453 991.609C-11.9205 875.302 -38.9874 586.928 37.5993 350.208C18.9593 317.915 -14.7474 297.888 50.8923 208.382L22.319 173.689L87.6256 138.995ZM183.519 645.556C248.053 872.729 467.519 950.302 637.626 801.635C348.941 991.489 183.727 645.99 183.519 645.556ZM154.599 154.328C142.199 154.328 132.159 164.382 132.159 176.769C132.159 189.169 142.199 199.222 154.599 199.222C166.999 199.222 177.052 189.169 177.052 176.769C177.052 164.382 166.999 154.328 154.599 154.328Z" fill="#414141"/>
</svg>
