<svg id="cloud-svg-1" class="cloud cloud-1" xmlns="http://www.w3.org/2000/svg" width="446.561" height="215.488"
        viewBox="0 0 446.561 215.488">
        <g id="Grupo_10" data-name="Grupo 10" transform="translate(-2394.779 -460.179)">
          <path id="path3"
            d="M86.432-508.162a27.314,27.314,0,0,1,14.914.449c-3.851-29.561,24.712-60.695,54.454-43.219,2.064-13.281,8.62-26.33,19.777-33.826s27.2-8.228,37.655.22c.323-14.588,9.582-28.1,22-35.755s27.57-9.992,42.123-8.94c16.04,1.16,31.927,7.325,43.919,18.161,14.1,12.737,16.553,29.593,15.5,48.094,7.6-1.5,15.6-2,23,.295,21.062,6.531,24.835,35.383,19.542,53.693,13.3-2.713,27.415-4.976,40.188-.383s23.223,18.457,19.288,31.449c7.526-3.079,15.241-6.171,23.362-6.581s16.864,2.349,21.6,8.958c6.393,8.917,3.5,21.749-2.871,30.685-8.516,11.952-22.286,19.457-36.619,22.611a81.305,81.305,0,0,1-70.748-18.736c3.521,3.179-26.183,20.04-29.018,20.974-11.926,3.935-24.05,8.036-36.671,4.945-13.6-3.331-25.37-12.426-33.6-23.757-28.625,22.957-73.754,21.943-101.319-2.276-26.685,21.982-69.784,20.4-94.788-3.472-10.385,4.1-23.44,5.913-31.7-1.6a18.423,18.423,0,0,1-2.632-23.351,18.42,18.42,0,0,1,22.815-5.629A27.753,27.753,0,0,1,74.355-501.7a27.192,27.192,0,0,1,12.077-6.465"
            transform="translate(2354 1089.65)" fill="#fff" />
          <path id="path4"
            d="M336.774-562.978c1.056-18.5-1.4-35.357-15.5-48.094-11.992-10.836-27.879-17-43.919-18.161-14.553-1.052-29.7,1.28-42.123,8.94,24.615-3.544,51.789-2.377,71.438,12.868A45.353,45.353,0,0,1,319.088-593.2a42.149,42.149,0,0,1,4.647,20.634c-.332,16.564-9.249,32.375-22.242,42.651s-29.7,15.27-46.261,15.644a69.641,69.641,0,0,0,50.243-7.552c14.992-8.725,30.313-23.833,31.3-41.151"
            transform="translate(2354 1089.65)" fill="#f5fbff" />
          <path id="path5"
            d="M213.232-584.537c-10.453-8.448-26.5-7.716-37.655-.22s-17.713,20.545-19.777,33.826c-1.385,8.908,7.266,16.549,15.217,20.8s17.384,5.153,26.309,3.887c-8.785-.895-15.916-8.069-19.341-16.209-4.376-10.4-3.552-23.057,2.925-32.3s21.367-12.492,32.322-9.786"
            transform="translate(2354 1089.65)" fill="#f5fbff" />
          <path id="path6"
            d="M101.346-507.713a27.315,27.315,0,0,0-14.914-.449A27.192,27.192,0,0,0,74.355-501.7a27.751,27.751,0,0,0-7.749,26.545,18.422,18.422,0,0,0-22.815,5.631,18.423,18.423,0,0,0,2.632,23.351c8.261,7.512,21.316,5.7,31.7,1.6,25,23.875,68.1,25.454,94.788,3.472,27.565,24.219,72.694,25.233,101.319,2.276,8.226,11.33,20,20.425,33.6,23.757,12.621,3.091,24.745-1.011,36.671-4.945,2.835-.935,32.539-17.8,29.018-20.974a81.305,81.305,0,0,0,70.748,18.736c14.333-3.155,28.1-10.66,36.619-22.611,6.366-8.936,9.264-21.767,2.871-30.686-4.737-6.608-13.48-9.368-21.6-8.957s-15.836,3.5-23.362,6.581c3.936-12.992-6.515-26.855-19.288-31.449s-26.889-2.331-40.188.383c5.293-18.31,1.52-47.164-19.542-53.693a39.067,39.067,0,0,0-13.556-1.491c3.08,15.542,1.555,32.449-7.26,45.546-9.313,13.834-27.869,21.945-43.5,16.129a74.219,74.219,0,0,1-58.909,18.253,74.208,74.208,0,0,1-51.923-33.275c-11.848,8.013-29.607,7.189-39.179-3.439-9.9-11-4.991-22.115.459-33.133.141-.284.244-.555.356-.828-25.984-6.76-48.352,20.834-44.917,47.208"
            transform="translate(2354 1089.65)" fill="#f5fbff" />
          <path id="path7"
            d="M86.432-508.162a27.314,27.314,0,0,1,14.914.449c-3.435-26.374,18.932-53.968,44.917-47.208a36.486,36.486,0,0,0-25.547,13.065,44.26,44.26,0,0,0-9.649,27.293,28.764,28.764,0,0,0,1.769,11.245c3.783,9.368,13.768,14.477,23.182,18.144-8.92,2.027-17.943-2.713-25.274-8.182s-15.494-12.377-24.312-14.8"
            transform="translate(2354 1089.65)" fill="#dff2fd" />
          <path id="path8"
            d="M373.516-440.986a81.305,81.305,0,0,0,70.748,18.736c14.333-3.155,28.1-10.66,36.619-22.611,6.366-8.936,9.264-21.767,2.871-30.685.075,17.4-16.868,32-33.612,36.723s-34.9.664-50.6-6.832c-7.533-3.6-14.845-8.1-20.079-14.6s-8.138-15.289-6.053-23.37c-6.225,12.654-3.936,29.131.105,42.643"
            transform="translate(2354 1089.65)" fill="#dff2fd" />
          <path id="path9"
            d="M274.23-438.824c-28.625,22.957-73.754,21.943-101.319-2.276-26.685,21.982-69.784,20.4-94.788-3.472-10.385,4.1-23.44,5.913-31.7-1.6a18.423,18.423,0,0,1-2.632-23.351c4.333,14.377,25.026,20.334,37.216,11.566a31.332,31.332,0,0,1-5.421-18.666A62.679,62.679,0,0,0,130.014-456.3a62.677,62.677,0,0,0,47.1-34.018A97.625,97.625,0,0,1,172.2-455.3c26.239,26.4,68.858,33.374,102.027,16.476"
            transform="translate(2354 1089.65)" fill="#dff2fd" />
        </g>
      </svg>