<svg  id="cloud-svg-4" class="cloud cloud-4" xmlns="http://www.w3.org/2000/svg" width="193.429" height="79.512" viewBox="0 0 193.429 79.512">
    <g id="Grupo_5" data-name="Grupo 5" transform="translate(-3531.556 -612.861)">
        <path id="path29"
            d="M751.257-319.256c9.081-19.257,36.5-26.918,54.245-15.157a47.4,47.4,0,0,1,44.863-17.532A47.407,47.407,0,0,1,886.6-320.213c8.972-1.495,19.214,2.884,22.5,11.364s-3.069,19.793-12.165,19.712c-2.985-.028-6.011-1.144-8.894-.373-2.316.617-4.133,2.349-5.952,3.907-22.8,19.534-61.686,15.7-80.231-7.916-13.11,11.429-34.855,11.14-47.656-.633,1.721,1.583-17.892,5.668-20.123,5.319-7.164-1.124-16.156-5.449-17.356-13.426-2.508-16.693,22.9-24.954,34.529-16.994"
            transform="translate(2815 965.457)" fill="#fff" />
        <path id="path30"
            d="M716.729-302.262c1.2,7.977,10.192,12.3,17.356,13.426,2.232.349,21.845-3.736,20.123-5.319,12.8,11.773,34.546,12.062,47.656.633,18.545,23.613,57.428,27.45,80.231,7.916,1.819-1.557,3.636-3.289,5.952-3.907,2.884-.771,5.909.345,8.894.373,9.1.081,15.453-11.23,12.165-19.712s-13.532-12.858-22.5-11.364a45.249,45.249,0,0,0-7.324-13.928,35.9,35.9,0,0,1-8.464,26.565,30.5,30.5,0,0,1-12.342,8.669c-6.889,2.513-14.476,2.092-21.754,1.2-4.881-.6-9.841-1.433-14.188-3.737s-8.037-6.332-8.773-11.194c-.625-4.132.915-8.293,2.915-11.962a47.508,47.508,0,0,1,12.3-14.557,39.42,39.42,0,0,0-29.885,24.922c-.653,1.8-1.225,3.737-2.62,5.052a9.954,9.954,0,0,1-4.237,2.027,73.616,73.616,0,0,1-23.067,2.712c-6.528-.273-13.8-1.917-17.282-7.45-2.312,3.364-5.661,6.286-9.7,6.905s-8.652-1.751-9.51-5.743c-.677-3.147,1.075-6.418,3.571-8.452.895-.729,4.128-1.871,5.951-3.032-12.256-1.024-27.433,6.876-25.467,19.958"
            transform="translate(2815 965.457)" fill="#f5fbff" />
        <path id="path31"
            d="M801.864-293.521c18.545,23.613,57.428,27.45,80.231,7.916,1.819-1.557,3.636-3.289,5.952-3.907,2.884-.771,5.909.345,8.894.373,9.1.081,15.453-11.23,12.165-19.712-1.4,5.867-6.7,10.932-12.242,13.308a19.744,19.744,0,0,1-17.413-1.064c-1.852,6.125-7.092,10.8-12.985,13.3s-12.413,3.063-18.812,3.148a57.555,57.555,0,0,1-13.23-1.059c-7.433-1.644-14.144-5.559-20.586-9.614-5.255-3.305-10.874-7.394-12.014-13.494-.188,3.208.228,7.6.04,10.809"
            transform="translate(2815 965.457)" fill="#dff2fd" />
        <path id="path32"
            d="M801.864-293.521c-13.11,11.429-34.855,11.14-47.656-.633,1.721,1.583-17.892,5.668-20.123,5.319-7.164-1.124-16.156-5.449-17.356-13.426-1.965-13.082,13.212-20.982,25.467-19.958-6.047,1.5-12.248,3.808-15.441,9.157s-2.569,13.229,2.543,16.79c3.361,2.343,7.8,2.424,11.852,1.815,4.884-.733,10.093-2.723,12.357-7.112,5.828,6.249,14.337,9.5,22.835,10.382s17.144-.66,25.522-2.333"
            transform="translate(2815 965.457)" fill="#dff2fd" />
    </g>
</svg>