<svg id="cloud-svg-2" class="cloud cloud-2"  xmlns="http://www.w3.org/2000/svg" width="179.492" height="86.959" viewBox="0 0 179.492 86.959">
        <g id="Grupo_7" data-name="Grupo 7" transform="translate(-2843.85 -499.41)">
          <path id="path10"
            d="M648.82-539.779a33.993,33.993,0,0,0-17.849-24.97,33.989,33.989,0,0,0-30.691.125c-5.861-15.365-22.071-26.141-38.507-25.6s-31.9,12.368-36.73,28.089c-10.362-.592-20.086,9.164-19.465,19.523-7.872-3.553-17.349,5.653-15.492,14.089s11.981,13.264,20.369,11.205c21,15.5,50.592,18.449,74.245,7.4,18.808,12.438,47.618,5.228,58.351-14.6-1.417,2.617,21.041,6.857,25.383-2.709,4.916-10.832-11.346-17.349-19.614-12.558"
            transform="translate(2354 1089.65)" fill="#fff" />
          <path id="path11"
            d="M490.086-528.519c1.859,8.434,11.981,13.264,20.369,11.205,21,15.5,50.592,18.449,74.245,7.4,18.808,12.438,47.618,5.228,58.351-14.6-1.417,2.617,21.041,6.857,25.383-2.709,4.916-10.832-11.345-17.349-19.614-12.558a33.993,33.993,0,0,0-17.849-24.97,32.618,32.618,0,0,0-8.424-2.909c3.155,3.971,5.775,8.341,6.849,13.254,1.476,6.758-.683,14.72-6.627,18.257-4.147,2.467-9.266,2.427-14.086,2.2-5.67-.267-12.434-1.424-14.677-6.637a25.487,25.487,0,0,1-1.187-5.629c-1.736-9.565-11.2-17.089-20.91-16.622,5.013.6,8.282,6.4,7.264,11.344s-5.324,8.712-10.08,10.4-9.938,1.644-14.978,1.371c-8.441-.459-17.765-1.969-23.043-8.574a13.511,13.511,0,0,1-16.592,2.131,13.213,13.213,0,0,1-5.247-6.832,4.278,4.278,0,0,1-.173-.941,17.734,17.734,0,0,0-3.483,11.326c-7.872-3.553-17.349,5.653-15.492,14.089"
            transform="translate(2354 1089.65)" fill="#f5fbff" />
          <path id="path12"
            d="M643.051-524.511c-1.417,2.617,21.041,6.857,25.383-2.709,4.916-10.832-11.345-17.349-19.614-12.558a39.691,39.691,0,0,1,11.868.147c2.116.395,4.463,1.188,5.332,3.157a5.6,5.6,0,0,1,.364,2.565,9.462,9.462,0,0,1-4.023,7.462c-2.179,1.4-4.889,1.615-7.476,1.727-3.484.151-8.349.292-11.834.209"
            transform="translate(2354 1089.65)" fill="#dff2fd" />
          <path id="path13"
            d="M643.051-524.511c-10.733,19.829-39.543,27.039-58.351,14.6-23.653,11.045-53.24,8.094-74.245-7.4-8.388,2.059-18.51-2.771-20.369-11.205s7.62-17.642,15.492-14.089c-5.673.523-9.47,7.315-7.78,12.756s8.892,8.31,13.864,5.527a25.165,25.165,0,0,1-1.761-9.709c2.2,4.8,8.26,6.307,13.533,6.449a53.532,53.532,0,0,0,15.124-1.761,15.111,15.111,0,0,1-13.176,11.793c9.15,5.138,20.016,6.225,30.509,6.13,7.066-.064,14.4-.693,20.533-4.207s10.7-10.624,9.232-17.536a16.07,16.07,0,0,1,3.368,18.951c8.453,4.539,18.65,5.264,27.989,3.063a65.21,65.21,0,0,0,26.039-13.36"
            transform="translate(2354 1089.65)" fill="#dff2fd" />
        </g>
      </svg>