<svg id="cloud-svg-3" class="cloud cloud-3"  xmlns="http://www.w3.org/2000/svg" width="308.729" height="130.624" viewBox="0 0 308.729 130.624">
        <g id="Grupo_6" data-name="Grupo 6" transform="translate(-3398.884 -169.094)">
          <path id="path14"
            d="M888.19-543.04c-18.673-6.179-40.452,1.523-52.927,16.73-11.826-16.445-34.018-24.67-53.705-19.9s-35.663,22.223-38.664,42.256c-10.306-3.019-21.558-4-31.69-.436S692.369-492.068,691-481.416c-7.54-1.555-15.258-3.116-22.879-2.045s-15.261,5.307-18.276,12.389c-4.471,10.5,3.42,23.2,14.138,27.113s22.8.977,33.052-4.031a57.828,57.828,0,0,0,38.792,21.449A57.834,57.834,0,0,0,778.277-439.3a65.95,65.95,0,0,0,49.663,21.781,65.95,65.95,0,0,0,48.9-23.442c12.682,9.889,41.806,21.662,55.421,7.549a21.353,21.353,0,0,0,3.981-23.043,21.49,21.49,0,0,0,19.61-13.113,21.492,21.492,0,0,0-5.019-23.05c-12.26-11.616-25.367-3.611-34.326,6.809.139-23.067-2-49.007-28.318-57.231"
            transform="translate(2750.318 716.65)" fill="#fff" />
          <path id="path15"
            d="M742.893-503.958c-10.306-3.019-21.56-4-31.69-.436S692.369-492.068,691-481.416c-7.54-1.555-15.258-3.116-22.879-2.045s-15.261,5.307-18.276,12.389c-4.471,10.5,3.42,23.2,14.138,27.113s22.8.977,33.052-4.031a57.825,57.825,0,0,0,38.792,21.449A57.834,57.834,0,0,0,778.277-439.3a65.95,65.95,0,0,0,49.663,21.781,65.95,65.95,0,0,0,48.9-23.442c12.682,9.889,41.806,21.662,55.421,7.549a21.353,21.353,0,0,0,3.981-23.043,21.49,21.49,0,0,0,19.61-13.113,21.492,21.492,0,0,0-5.019-23.05c-12.26-11.616-25.367-3.611-34.326,6.809.108-17.881-1.164-37.483-13.994-49.227,1.157,12.942-1.147,26.3-8.194,37.138-8.181,12.58-23.377,21-38.228,18.853-5.877-.852-11.705-3.429-15.41-8.069-4.856-6.083-4.623-14.956-9.446-20.855-3.869-4.735-10.5-6.872-15.665-9.67,5.864,3.179,8.413,10.816,6.841,17.3s-6.576,11.732-12.416,14.954a32.874,32.874,0,0,1-28.6,1.535,29.931,29.931,0,0,1-17.445-22.438c-1.588-10.668,3.2-21.546,10.532-29.453a66.218,66.218,0,0,1,14.944-11.68,47.733,47.733,0,0,0-7.87,1.212c-19.689,4.764-35.663,22.223-38.664,42.256"
            transform="translate(2750.318 716.65)" fill="#f5fbff" />
          <path id="path16"
            d="M876.839-440.961c12.682,9.889,41.806,21.662,55.421,7.549a21.353,21.353,0,0,0,3.981-23.043,21.49,21.49,0,0,0,19.61-13.113,21.492,21.492,0,0,0-5.019-23.05c.772,5.69-.517,10.741-3.2,15.816s-7.8,9.05-13.532,9.428-11.733-3.428-13-9.029c-1.721,3.3-.059,7.366,2.163,10.354s5.076,5.691,6.076,9.276c1.513,5.421-1.9,11.281-6.692,14.237S912.022-438.93,906.4-438.7c-10.54.428-19.618,1.268-29.559-2.26"
            transform="translate(2750.318 716.65)" fill="#dff2fd" />
          <path id="path17"
            d="M827.939-417.519A65.95,65.95,0,0,1,778.277-439.3a57.834,57.834,0,0,1-42.452,12.758,57.825,57.825,0,0,1-38.792-21.449c-10.25,5.008-22.334,7.941-33.052,4.031s-18.609-16.616-14.138-27.113c.4,9.112,9.836,16.453,18.621,18.9s18.16.936,27.037-1.157a32.523,32.523,0,0,1-1.245-16.933c6.841,9.525,15.036,18.848,26.09,22.761,6.527,2.309,13.581,2.553,20.5,2.635,8.47.1,17.084-.032,25.179-2.524s15.728-7.673,19.339-15.334c-5.406,11.468,11.181,26.553,18.993,32.137,7.956,5.687,16.936,9.75,25.9,13.654"
            transform="translate(2750.318 716.65)" fill="#dff2fd" />
        </g>
      </svg>