<svg xmlns="http://www.w3.org/2000/svg" width="211.342" height="101.443" viewBox="0 0 211.342 101.443">
    <g id="Grupo_44" data-name="Grupo 44" transform="translate(-40.1 -197.757)">
        <g id="Grupo_28" data-name="Grupo 28">
            <path id="Trazado_26" data-name="Trazado 26"
                d="M227.9,268.2a10.306,10.306,0,0,1-2,6.8,7.561,7.561,0,0,1-2.1,1.9c-3.1,2.1-7.4,2.4-11.4,2.6-9.1.3-18.2.6-27.2.9-3.3.1-8,2.4-6.3,5.2,1.7,2.9,8.5,1.9,7.7,5.2a136.677,136.677,0,0,1-59.7-1.6c-3.9-1-8.3-2.7-9.5-6.5-.5-1.6-.3-3.4-1-5a6.726,6.726,0,0,0,.7-1.1c4-7.6-2.7-19.3-9.4-22.7-2.4-1.3-5.4-2-7.9-.8-2.8,1.4-4,4.6-5.5,7.4a3.187,3.187,0,0,1-1.8,1.8c-.9.3-1.9-.2-2.9-.5-3.1-.8-6.2,1.6-7.5,4.5a18.671,18.671,0,0,0-1,7.8c-13.9,1.4-27.8,3-41-1.1a35.8,35.8,0,0,1,23.7-4.8c2.9.4,7.1.3,7.3-2.7.1-2.4-2.8-3.5-4.8-4.7a10.505,10.505,0,0,1-3.1-14.6c2.7-3.9,8.4-5.1,12.6-3.2h0a10.232,10.232,0,0,1,2.2,1.4c-3.4-10.5,7.4-21.8,18.4-21.2s19.9,10.4,22.4,21.1c1.1-6.7,10.2-9.3,16.5-6.8,16.7,6.6,27.6,33.1,49.2,26.7,9.6-2.8,16.3-12.6,27.1-11.7C219.9,253.1,227.8,259.8,227.9,268.2Z"
                fill="#dadde5" />
        </g>
        <g id="Grupo_29" data-name="Grupo 29">
            <path id="Trazado_27" data-name="Trazado 27"
                d="M242.2,271.9a7.333,7.333,0,0,1-2.1,3.6,8.074,8.074,0,0,1-5,1.6,69.909,69.909,0,0,1-11.2-.1,9.517,9.517,0,0,0,2.1-1.9,10.306,10.306,0,0,0,2-6.8c-.2-8.4-8.1-15.1-16.1-15.8-10.7-.9-17.5,8.9-27.1,11.7-21.6,6.4-32.5-20.1-49.2-26.7-6.4-2.5-15.4.1-16.5,6.8-2.5-10.7-11.4-20.5-22.4-21.1s-21.8,10.7-18.4,21.2a10.232,10.232,0,0,0-2.2-1.4h0c-4-10.3,5-26,13.2-30.8,11.4-7,27.7-4.7,36.7,5.3,1.9-7.6,10-12.8,17.9-12.5s15.1,5.5,18.9,12.3c3.9,6.8,4.8,15.1,3.7,22.9,6.5-2.7,15,2.4,15.6,9.5,9.4-11.8,26-18.3,40.4-13.7C236.9,240.7,246.9,257.5,242.2,271.9Z"
                fill="#fff" />
        </g>
        <g id="Grupo_30" data-name="Grupo 30">
            <path id="Trazado_28" data-name="Trazado 28"
                d="M117.2,276.6a10.543,10.543,0,0,1-.7,1.1v-.1c-1.4-3.3-5.5-4.3-9.1-4.5-8.6-.6-17.3.2-26.1,1.1-.1-2.7-.1-5.4,1-7.8,1.3-2.9,4.4-5.3,7.5-4.5,1,.2,1.9.7,2.9.5a3.512,3.512,0,0,0,1.8-1.8c1.5-2.7,2.7-6,5.5-7.4,2.5-1.2,5.5-.5,7.9.8C114.6,257.4,121.3,269,117.2,276.6Z"
                fill="#c0c4cc" />
        </g>
        <g id="Grupo_31" data-name="Grupo 31">
            <path id="Trazado_29" data-name="Trazado 29"
                d="M219.8,279.7c-.6,1.8-.5,4-1.7,5.4-1.9,2.1-5.2,1.1-7.9.7a16.7,16.7,0,0,0-13.2,3.9,5.261,5.261,0,0,0-2,3.3c-.1,1.7,1.3,3.1,2.9,3.7a12,12,0,0,0,5,.2c7.3-.7,34.4.8,36.3-8C241,280.3,223.7,267.8,219.8,279.7Z"
                fill="#fff" />
        </g>
        <g id="Grupo_32" data-name="Grupo 32">
            <path id="Trazado_30" data-name="Trazado 30"
                d="M80.7,274.5c-2.8-4.2-3.4-9.4-1.5-13.2a8.948,8.948,0,0,1,5.9-4.6,7.372,7.372,0,0,1,5.5.6c-.3-4.9,3.5-10,8.6-11.2,5-1.2,10.6,1.1,13.8,5.6l-.4.3a13.069,13.069,0,0,0-13.2-5.4c-5,1.2-8.8,6.3-8.2,11.1l.1.5-.5-.3a6.9,6.9,0,0,0-5.5-.8,8.9,8.9,0,0,0-5.6,4.4c-1.8,3.6-1.2,8.6,1.5,12.7Z"
                fill="#c0c4cc" />
        </g>
        <g id="Grupo_33" data-name="Grupo 33">
            <path id="Trazado_31" data-name="Trazado 31"
                d="M120.1,278.2a9.852,9.852,0,0,1-1.7-.2,8.075,8.075,0,0,1-5.1-4.8l.5-.2a7.627,7.627,0,0,0,4.8,4.5,5.756,5.756,0,0,0,6-1.9,6.694,6.694,0,0,0,1.2-3.9c.2-4.7-2.8-9.6-7.4-12.1a20.565,20.565,0,0,0-14.6-1.4l-.1-.5a20.61,20.61,0,0,1,15,1.5,14.21,14.21,0,0,1,7.6,12.6A7.745,7.745,0,0,1,125,276,6.805,6.805,0,0,1,120.1,278.2Z"
                fill="#c0c4cc" />
        </g>
        <g id="Grupo_34" data-name="Grupo 34">
            <path id="Trazado_32" data-name="Trazado 32"
                d="M188.9,263.9c-8,0-15.3-3.2-19.6-5.6-6.2-3.4-11.7-8-17.1-12.4-2.2-1.8-4.4-3.6-6.6-5.3-3.4-2.6-7.5-5.5-12.1-5.7a10.479,10.479,0,0,0-7.2,2.6,6.683,6.683,0,0,0-2.2,4.7h-.5c-1.5-11.8-11.3-21.6-22.3-22.4a21.284,21.284,0,0,0-16.2,6.3,18.641,18.641,0,0,0-6,14.2h-.5c-.3-5.2,2-10.5,6.2-14.6a22.1,22.1,0,0,1,16.6-6.4c10.8.8,20.4,9.9,22.5,21.2a7.206,7.206,0,0,1,2.1-3.4,11.179,11.179,0,0,1,7.6-2.8c4.6.3,8.7,3,12.4,5.8,2.2,1.7,4.5,3.6,6.7,5.3,5.4,4.4,10.9,8.9,17,12.3,5.8,3.2,17.1,8,28.2,4,1-.4,2.4-1,2.8-2.2l.5.2c-.5,1.4-2,2.1-3.1,2.5A23.7,23.7,0,0,1,188.9,263.9Z"
                fill="#dadde5" />
        </g>
        <g id="Grupo_35" data-name="Grupo 35">
            <path id="Trazado_33" data-name="Trazado 33"
                d="M66.4,265.5c-4.5,0-8.5-1.6-10.8-4.5a10.8,10.8,0,0,1,0-13.2,10.553,10.553,0,0,1,12.9-2.5l-.2.4A9.843,9.843,0,0,0,56,260.6c2.4,2.9,6.7,4.5,11.4,4.3,2-.1,4.3-.9,4.7-2.7l.5.1c-.4,2.1-2.9,3-5.1,3.1A4.905,4.905,0,0,1,66.4,265.5Z"
                fill="#dadde5" />
        </g>
        <g id="Grupo_36" data-name="Grupo 36">
            <path id="Trazado_34" data-name="Trazado 34"
                d="M150.7,299.2c-7,0-14.1-.4-21-.7-3-.2-6.8-.4-9.6-2.5a3.283,3.283,0,0,1-1.5-2.5c0-1.2,1-2.1,2-2.8l6.5-5,.3.4-6.5,5a3.9,3.9,0,0,0-1.8,2.4,2.956,2.956,0,0,0,1.3,2.1c2.4,1.9,5.7,2.2,9.3,2.4,14.7.8,29.8,1.6,44.5-1.2l.1.5A133.4,133.4,0,0,1,150.7,299.2Z"
                fill="#dadde5" />
        </g>
        <g id="Grupo_37" data-name="Grupo 37">
            <path id="Trazado_35" data-name="Trazado 35"
                d="M225.9,274.6l-.2-.4c3.6-1.8,5.9-6.1,5.8-10.6a17.594,17.594,0,0,0-5.2-11.4c-1.8-1.8-4.6-4.1-7.9-4.3a13.267,13.267,0,0,0-6.7,1.7,31.1,31.1,0,0,0-12.9,12l-.4-.3a32.081,32.081,0,0,1,13.1-12.2,14.529,14.529,0,0,1,7-1.8c3.5.2,6.4,2.6,8.3,4.5a18.837,18.837,0,0,1,5.4,11.8C232.1,268.3,229.6,272.7,225.9,274.6Z"
                fill="#dadde5" />
        </g>
        <g id="Grupo_38" data-name="Grupo 38">
            <path id="Trazado_36" data-name="Trazado 36"
                d="M77.7,226.3h-.5a27.121,27.121,0,0,1,2.9-10.6c4.8-9.6,15.4-16,25.6-15.6,10.7.5,20.6,8.8,22.6,18.9l-.5.1c-1.9-9.9-11.6-18-22.1-18.5-10.1-.4-20.4,5.8-25.2,15.3A28.312,28.312,0,0,0,77.7,226.3Z"
                fill="#fff" />
        </g>
        <g id="Grupo_39" data-name="Grupo 39">
            <path id="Trazado_37" data-name="Trazado 37"
                d="M162.1,242.6l-.4-.3c2.9-4.9,6.4-11.3,7.6-18.3,1.2-7.2-.3-14-4-18.8a18.407,18.407,0,0,0-31.8,5.4c-.1.4-.6,1.8.2,2.3l-.3.4c-1.1-.7-.7-2.3-.4-2.9A19.376,19.376,0,0,1,147.7,198a19.142,19.142,0,0,1,17.9,6.9c3.9,4.9,5.4,11.9,4.1,19.2a46.882,46.882,0,0,1-5.6,14.8l.3.2Z"
                fill="#fff" />
        </g>
        <g id="Grupo_40" data-name="Grupo 40">
            <path id="Trazado_38" data-name="Trazado 38"
                d="M158.8,228l-.4-.3a22.635,22.635,0,0,0,2.6-6.2,16.3,16.3,0,0,0-1.2-12.4c-2.2-3.9-6.4-6.3-10.4-5.9-4.3.4-7.9,4.4-7.6,8.4h-.5c-.3-4.3,3.5-8.5,8.1-8.9,4.2-.4,8.6,2.1,10.9,6.2a17.335,17.335,0,0,1,1.2,12.8A24.965,24.965,0,0,1,158.8,228Z"
                fill="#fff" />
        </g>
        <g id="Grupo_41" data-name="Grupo 41">
            <path id="Trazado_39" data-name="Trazado 39"
                d="M164.8,242.6a2.016,2.016,0,0,1-.6-1.8c.1-1.4,1.4-2.9,2.5-3.8,3.5-2.6,6.8-3.9,9.9-4a9.282,9.282,0,0,1,8.7,4.9,19.127,19.127,0,0,1,31.8,2.3l-.4.2a18.6,18.6,0,0,0-31.2-1.8l-.3.4-.2-.4c-1.3-3.4-5.2-5.1-8.4-5-3,.1-6.2,1.3-9.7,3.9a5.526,5.526,0,0,0-2.3,3.4,1.872,1.872,0,0,0,.5,1.4Z"
                fill="#fff" />
        </g>
        <g id="Grupo_42" data-name="Grupo 42">
            <path id="Trazado_40" data-name="Trazado 40"
                d="M238.4,275.3v-.5a12.855,12.855,0,0,0,10.8-6.6,15.666,15.666,0,0,0,1.7-8.5,21.424,21.424,0,0,0-9.7-15.6,29.25,29.25,0,0,0-18.2-4.3v-.5a29.386,29.386,0,0,1,18.5,4.4,21.632,21.632,0,0,1,9.9,16,15.671,15.671,0,0,1-1.7,8.7A13.533,13.533,0,0,1,238.4,275.3Z"
                fill="#fff" />
        </g>
        <g id="Grupo_43" data-name="Grupo 43">
            <path id="Trazado_41" data-name="Trazado 41"
                d="M195.5,293.8c-1.9-3-.7-7.5,2.4-9.7,2.7-1.9,6.5-2.1,10.1-.8a9.282,9.282,0,0,1,3.1-7.1,12.307,12.307,0,0,1,9.5-3.5c5.7.6,11.1,5.1,13.7,11.5l-.5.2c-2.5-6.3-7.8-10.7-13.3-11.2a11.637,11.637,0,0,0-9.1,3.3,8.756,8.756,0,0,0-2.9,7.1v.4l-.4-.2a10.619,10.619,0,0,0-10,.6c-3,2-4,6.3-2.3,9Z"
                fill="#fff" />
        </g>
    </g>
</svg>