<svg xmlns="http://www.w3.org/2000/svg" xmlns:xlink="http://www.w3.org/1999/xlink" width="1920" height="546.881" viewBox="0 0 1920 546.881">
  <defs>
    <clipPath id="clip-path">
      <rect width="1920" height="546.881" fill="none"/>
    </clipPath>
  </defs>
  <g id="Cuadrícula_de_repetición_1" data-name="Cuadrícula de repetición 1" clip-path="url(#clip-path)">
    <g transform="translate(4182.997 1859.116)">
      <path id="Trazado_6" data-name="Trazado 6" d="M-.087,833.4-.092,437V423.112c6.9-1.572,13.78-3.246,20.669-4.874q13.133-3.1,26.319-5.929c7.6-1.61,15.252-2.975,22.889-4.4,9.213-1.715,18.386-3.592,27.551-5.56l-.668.143c9.838-2.135,19.679-4.216,29.553-6.17,9.769-1.933,19.589-3.617,29.384-5.425,10.322-1.9,20.618-3.968,30.925-5.952q15.145-2.915,30.341-5.553c9.51-1.664,19.054-3.121,28.6-4.6q14.987-2.319,29.993-4.508c21.611-3.185,43.213-6.459,64.832-9.59,19.822-2.867,39.7-5.322,59.594-7.621q17.138-1.981,34.283-3.86c10.673-1.167,21.355-2.222,32.031-3.354,20.593-2.184,41.137-4.756,61.691-7.286,19.9-2.445,39.833-4.664,59.766-6.874,20.168-2.235,40.325-4.547,60.493-6.769,20.209-2.225,40.427-4.319,60.649-6.4q61.083-6.278,122.276-11.433c20.992-1.748,42.025-3.051,63.053-4.314,20.111-1.2,40.241-2.181,60.36-3.223q30.536-1.578,61.089-2.813c21.215-.873,42.429-1.749,63.654-2.324,20.214-.55,40.435-.911,60.641-1.669,21.7-.811,43.392-1.792,65.09-2.68q30.171-1.236,60.365-2.045,33.308-.906,66.624-1.239c20.308-.22,40.627-.358,60.933-.236,20.157.12,40.3.835,60.436,1.713q31.841,1.386,63.675,3c19.446.98,38.866,2.35,58.278,3.845q30.612,2.358,61.245,4.534,14.934,1.045,29.844,2.291c9.981.827,19.942,1.9,29.906,2.9,20.621,2.081,41.257,4.011,61.883,6.042,21.143,2.084,42.224,4.733,63.324,7.206,12.444,1.459,24.881,2.959,37.3,4.59s24.773,3.484,37.1,5.594c5.675.973,11.307,2.173,16.937,3.366,1.779.376,3.543.86,5.307,1.288.6.146,1.2.3,1.787.453v9.725h-.005l.005,478.158V833.39H-.087ZM832.19,317.282q7.684-.6,15.5-1.172-7.672.557-15.347,1.154h-.008l.2-.015-.241.021Z" transform="translate(-4182.905 -2145.632)" fill="#e5e87e" fill-rule="evenodd"/>
    </g>
  </g>
</svg>
