<svg id="Grupo_16" data-name="Grupo 16" xmlns="http://www.w3.org/2000/svg" width="1920.003" height="424.558" viewBox="0 0 1920.003 424.558">
  <path id="Trazado_9" data-name="Trazado 9" d="M-.085,749.99-.093,391.5V377.854q4.4-.818,8.8-1.577c9.608-1.659,19.277-2.967,28.938-4.262q15.8-2.116,31.6-4.257c10.89-1.49,21.76-3.1,32.637-4.672q7.446-1.079,14.907-2.043c5.473-.717,10.972-1.226,16.468-1.733,10.427-.955,20.872-1.731,31.288-2.847,10.063-1.078,20.093-2.422,30.131-3.7q14.891-1.9,29.826-3.43c10.655-1.08,21.307-2.235,31.972-3.226q15.156-1.4,30.321-2.747c9.574-.858,19.154-1.651,28.759-2.1,10.516-.494,21.035-.763,31.56-1,9.818-.228,19.656-.333,29.476-.218,21.652.261,43.287.952,64.919,1.935,21.3.968,42.6,2.089,63.9,3.072,10.716.494,21.44.842,32.159,1.242q15.786.591,31.572,1.219c20.267.8,40.512,2.017,60.769,3.013,10.47.515,20.941,1.052,31.414,1.51,10.724.471,21.45.891,32.174,1.352q31.853,1.375,63.693,3.087c10.03.545,20.05,1.226,30.072,1.894q15.571,1.037,31.147,1.976c20.649,1.272,41.313,2.33,61.962,3.592q31.519,1.928,63,4.452c20.928,1.682,41.835,3.592,62.761,5.338,21.913,1.828,43.822,3.651,65.71,5.76,21.153,2.043,42.286,4.252,63.426,6.413,21.123,2.158,42.23,4.508,63.275,7.319q31.853,4.259,63.49,9.93c20.6,3.694,41.1,7.893,61.65,11.843q16.408,3.156,32.85,6.118c10.222,1.838,20.462,3.589,30.694,5.371q16.043,2.792,32.072,5.637c5.5.98,10.977,2.1,16.464,3.149,5.087.978,10.166,2.02,15.247,3.039q63.805,12.779,127.352,26.829c41.859,9.3,83.543,19.377,125.307,29.079,28.677,6.664,57.357,13.289,86.115,19.587q5.418,1.156,10.834,2.3c16.922,3.469,33.879,6.761,50.836,10.073s33.93,6.643,50.918,9.848q8.759,1.651,17.541,3.187V549.46l-.008,0,.008,198.279v2.253H-.085ZM933.829,378.058q-5.818-.461-11.633-.9h-.023l.192.015-.228-.015-.1,0Q927.917,377.59,933.829,378.058Z" transform="translate(0.093 -325.434)" fill="#bcd452" fill-rule="evenodd"/>
  <path id="Trazado_10" data-name="Trazado 10" d="M70.878,374.915c-.991-2.46-2.14-4.892-2.885-7.442-.417-1.436-.737-2.88-1.014-4.347a10.984,10.984,0,0,1-.061-5.012,4.692,4.692,0,0,1,4.419-3.474,4.61,4.61,0,0,1,4.485,3.336c.138.625.253,1.254.374,1.884.484,1.9,1.132,3.75,1.615,5.652.532,2.107.952,4.239,1.505,6.344a4.549,4.549,0,0,1-2.5,5.356,4.393,4.393,0,0,1-1.782.369,4.443,4.443,0,0,1-4.152-2.665Zm1024.906,31.767a4.8,4.8,0,1,1,4.851,4.741,4.839,4.839,0,0,1-4.851-4.741Zm-10.133.53a4.727,4.727,0,0,1-2.844-2.1,4.822,4.822,0,0,1-.589-3.356c.079-.433.169-.865.256-1.3a4.551,4.551,0,0,1,.325-1.987,4.905,4.905,0,0,1,1.866-2.222,4.706,4.706,0,0,1,6.769,2.207,6.532,6.532,0,0,1,.371,3.315,11.034,11.034,0,0,1-.456,2.051,4.908,4.908,0,0,1-2.094,2.844,4.75,4.75,0,0,1-2.46.686,4.8,4.8,0,0,1-1.144-.143Zm-133.76-6.689a31.462,31.462,0,0,1-4.554-1.444c-.072-.02-.141-.038-.213-.056-.248-.026-.5-.046-.745-.054a4.5,4.5,0,0,1-3.031-1.674,4.6,4.6,0,0,1,4.127-7.462,10.993,10.993,0,0,1,1.961.389c-.036-.747-.046-1.5-.031-2.25a4.48,4.48,0,0,1,8.96-.1c0,.1.005.2.01.3.1,1.024.259,2.038.4,3.054a14.018,14.018,0,0,1,.213,5.087,5.234,5.234,0,0,1-2.829,3.8,6.494,6.494,0,0,1-1.887.55,6.24,6.24,0,0,1-.691.036,9.267,9.267,0,0,1-1.692-.177Zm111.782-1.27a4.85,4.85,0,1,1,4.9,4.795,4.894,4.894,0,0,1-4.9-4.795Zm-18.332,5.993a4.814,4.814,0,0,1-2.624-2.522,4.984,4.984,0,0,1-.072-3.709,12.936,12.936,0,0,1,1.951-3.638c.33-.445.694-.87,1.042-1.3a29.569,29.569,0,0,0,1.925-2.422,4.528,4.528,0,0,1,8.133,2.028,4.681,4.681,0,0,1-.794,3.277c-.824,1.323-1.618,2.665-2.45,3.983-.259.427-.51.852-.737,1.293l-.138.315a4.932,4.932,0,0,1-2.522,2.621,4.825,4.825,0,0,1-1.946.41,4.764,4.764,0,0,1-1.769-.338Zm-16.927-4.38a4.885,4.885,0,0,1-2.724-6.3,23.37,23.37,0,0,1,1.82-3.4c.4-.614.812-1.224,1.216-1.836.079-.128.154-.256.228-.387a4.538,4.538,0,0,1,8.719,2.227,16.331,16.331,0,0,1-1.341,3.886,38.128,38.128,0,0,1-1.879,3.653,4.987,4.987,0,0,1-4.283,2.5,4.823,4.823,0,0,1-1.756-.341Zm-18.875-6.8a13.939,13.939,0,0,1,.236-4.265c.151-.686.34-1.362.525-2.04a4.531,4.531,0,0,1,8.748-.138,15.4,15.4,0,0,1,.156,6.326,4.947,4.947,0,0,1-4.785,4.293h-.046a4.892,4.892,0,0,1-4.833-4.175Zm-14.986.323a17.318,17.318,0,0,1,.463-6.1c.737-2.811,2.181-6.292,5.614-6.292a4.6,4.6,0,0,1,4.6,4.493,4.465,4.465,0,0,1-.4,1.882c-.292,1.958-.5,3.935-.717,5.9a4.863,4.863,0,0,1-4.734,4.247h-.051a4.837,4.837,0,0,1-4.774-4.127Zm-16.02,1.6a11.4,11.4,0,0,1-1.121-2.591,13.937,13.937,0,0,1-.376-2.516,9.887,9.887,0,0,1,.533-4.032,4.615,4.615,0,0,1,8.225-.712,12.612,12.612,0,0,1,1.2,3.761c.128.573.248,1.147.366,1.72.036.143.072.287.113.43a5,5,0,0,1-2.742,5.87,4.9,4.9,0,0,1-1.976.4,4.73,4.73,0,0,1-4.221-2.332Zm-16.276-6.549a25.033,25.033,0,0,1-1.3-3.507c-.261-.873-.412-1.774-.678-2.644a4.474,4.474,0,0,1,8.238-3.369c-.013-.023-.023-.046-.036-.069.509.929,1.019,1.859,1.5,2.806a28.676,28.676,0,0,1,1.406,3.469,4.883,4.883,0,0,1-2.711,5.8,4.77,4.77,0,0,1-1.933.41,5.009,5.009,0,0,1-4.488-2.9Zm-198.2-11.607a4.594,4.594,0,1,1,4.644,4.544,4.633,4.633,0,0,1-4.644-4.544Zm-15.77,2.7a4.764,4.764,0,0,1-2.583-2.483,4.905,4.905,0,0,1-.072-3.651c.545-1.618,1.265-3.139,1.923-4.708a4.532,4.532,0,0,1,8.607,2.785c-.2.909-.525,1.815-.811,2.7l.031-.095c-.3.94-.617,1.871-.96,2.8a4.711,4.711,0,0,1-4.436,2.972,4.489,4.489,0,0,1-1.7-.318Zm-12.969,4.529a4.421,4.421,0,0,0,1.093.136,4.6,4.6,0,0,0,4.283-2.885c.814-2.15,1.83-4.211,2.744-6.318.415-.955.753-1.948,1.162-2.906.381-.888.768-1.769,1.167-2.647.261-.522.517-1.044.809-1.551a4.521,4.521,0,0,0,1.149-3.036,4.573,4.573,0,0,0-4.572-4.472c-2.775,0-4.608,2.58-5.855,4.759-.778,1.354-1.5,2.734-2.189,4.132a32.51,32.51,0,0,0-1.8,4.416c-.517,1.58-.9,3.2-1.3,4.813a4.621,4.621,0,0,0,3.3,5.56Zm-15.424-10.619a30.056,30.056,0,0,1,.5-6.464,9.132,9.132,0,0,1,.438-1.661,5.5,5.5,0,0,1,2.1-2.588,4.544,4.544,0,0,1,6.914,3.825c0,.317-.02.632-.041.95-.069,2.156-.195,4.306-.4,6.454a4.8,4.8,0,0,1-4.685,4.2h-.059a4.828,4.828,0,0,1-4.767-4.716Zm-7.916,12.472a4,4,0,0,0,2.967,1.224,4.645,4.645,0,0,0,3.328-1.375,4.487,4.487,0,0,0,.241-5.87c-.351-.43-.686-.865-1.014-1.311-.236-.371-.466-.742-.686-1.124-.123-.259-.241-.517-.351-.781-.072-.223-.136-.445-.195-.673-.353-1.818-.558-3.674-.817-5.507-.195-1.4-.343-2.806-.458-4.214-.049-.676-.1-1.354-.166-2.028a4.521,4.521,0,0,0-8.963.11,38.181,38.181,0,0,0,.115,9.029,21.184,21.184,0,0,0,1.572,6.459,25.7,25.7,0,0,0,4.426,6.059Zm-15.956-6.175a4.948,4.948,0,0,1-2.245-2.816,71.237,71.237,0,0,1-2.491-9.121.861.861,0,0,1-.021-.087c-.013-.056-.026-.115-.036-.171.018.079.033.159.051.236-.02-.09-.038-.182-.059-.274a4.674,4.674,0,0,1,.43-3.233A4.521,4.521,0,0,1,697.8,363.5a4.609,4.609,0,0,1,2.076,2.483l-.092-.253c.566,1.533,1.149,3.057,1.667,4.608a51.545,51.545,0,0,1,1.5,5.606,4.705,4.705,0,0,1-6.927,4.792ZM337.56,358.006a4.8,4.8,0,0,1-3.121-1.726,4.884,4.884,0,0,1-.906-4.145,10,10,0,0,1,.96-2.806,4.5,4.5,0,0,1,7.427-.653,4.793,4.793,0,0,1,1,2.775,18.931,18.931,0,0,1-.09,2.411,4.61,4.61,0,0,1-1.725,3.121,4.766,4.766,0,0,1-2.988,1.052,4.038,4.038,0,0,1-.558-.031Zm-15.053-5.824a26.447,26.447,0,0,1,.4-5.578c.238-1.408.543-2.8.742-4.216a4.532,4.532,0,0,1,9,1.08c-.041.5-.072.993-.1,1.49-.059,1.216-.1,2.429-.166,3.643-.074,1.372-.236,2.726-.407,4.093a4.8,4.8,0,0,1-4.659,4.183h-.054a4.816,4.816,0,0,1-4.751-4.7Zm-9.7-1.475a4.991,4.991,0,0,1-1.915-3.185,26.736,26.736,0,0,1-.384-2.921,16.147,16.147,0,0,1,.1-3.686c.172-1.075.443-2.122.655-3.187a4.554,4.554,0,0,1,8.934,1.664c-.061.379-.1.755-.138,1.137-.036,1.042-.015,2.074.041,3.116.082.834.184,1.667.315,2.5a4.851,4.851,0,0,1-4.068,5.45,4.654,4.654,0,0,1-.678.049,4.88,4.88,0,0,1-2.86-.935Zm-18.6,6.94a19.191,19.191,0,0,1-2-4.726,21.37,21.37,0,0,1-.671-5.448,4.558,4.558,0,1,1,9.116-.1c0,.09,0,.179.005.269.005.028.008.056.013.084.177.648.389,1.283.609,1.917.445,1.2.9,2.391,1.393,3.569a4.851,4.851,0,0,1-1.879,6.024,4.79,4.79,0,0,1-2.5.683,4.655,4.655,0,0,1-4.094-2.271ZM108.085,360.5a4.914,4.914,0,1,1,4.966,4.861,4.96,4.96,0,0,1-4.966-4.861Zm-17.293,2.583a17.192,17.192,0,0,1-.169-3.323,14.4,14.4,0,0,1,.338-2.944,4.5,4.5,0,0,1,8.683-.138,15.134,15.134,0,0,1,.338,2.3c.1.863.161,1.728.225,2.593.005.046.008.095.013.141l.015.218c0,.02,0,.041.005.061,0-.015,0-.031-.005-.046a4.918,4.918,0,0,1-.891,3.269,4.794,4.794,0,0,1-3.154,1.894,4.507,4.507,0,0,1-.668.049,4.809,4.809,0,0,1-4.731-4.073Zm-5.171,10.906a4.615,4.615,0,0,0,3.556-.069,4.659,4.659,0,0,0,2.35-6.072c-.952-2.291-1.8-4.634-2.967-6.825-.52-.975-1.052-1.946-1.587-2.911a12.04,12.04,0,0,0-2.255-3.364,4.685,4.685,0,0,0-5.524-.589,4.529,4.529,0,0,0-2.138,3.164c.023-.12.044-.241.067-.361a4.838,4.838,0,0,0-.115.6,4.393,4.393,0,0,0,.909,3.279c.694,1.462,1.321,2.952,1.974,4.434.712,1.618,1.587,3.167,2.422,4.728.266.52.532,1.042.794,1.564A4.766,4.766,0,0,0,85.621,373.991Z" transform="translate(104.208 -334.299)" fill="#bcd452" fill-rule="evenodd"/>
  <path id="Trazado_11" data-name="Trazado 11" d="M25.178,721.118c-2.007-3.866-4.024-7.729-6.013-11.607q-4.6-8.947-9.157-17.915Q6.14,684.009,2.23,676.444c.059.115.12.233.182.348-.42-.8-.824-1.618-1.321-2.37a2.947,2.947,0,0,1,3.238-4.4,3.1,3.1,0,0,1,1.789,1.318A22,22,0,0,1,7.455,673.7c.338.63.668,1.265,1,1.894.343.65.684,1.3,1.027,1.948q1.574,2.98,3.146,5.96c1.38,2.611,2.767,5.215,4.14,7.831,3.22,6.134,6.431,12.27,9.562,18.45q2.868,5.652,5.686,11.333Zm795.664-314.29a3.109,3.109,0,1,1,3.144,3.075,3.141,3.141,0,0,1-3.144-3.075Zm-13.135,2.058a3.1,3.1,0,0,1-1.472-1.848,3.2,3.2,0,0,1,.266-2.347c.6-1.242,1.206-2.481,1.879-3.681.62-1.109,1.249-2.2,1.846-3.325-.056.115-.11.233-.166.348a3.593,3.593,0,0,0,.169-.346,2.967,2.967,0,0,1,5.857.643,6.9,6.9,0,0,1-.747,2.716c-.323.735-.648,1.472-1.009,2.189-.755,1.513-1.582,2.977-2.427,4.442a3.166,3.166,0,0,1-2.729,1.587,3,3,0,0,1-1.467-.376ZM790.375,411.4a2.9,2.9,0,0,1-1.38-1.733,3.006,3.006,0,0,1,.251-2.2c.714-1.5,1.413-3.01,2.148-4.5.747-1.523,1.569-3,2.417-4.472,1.564-2.721,3.226-5.4,4.931-8.038-.069.1-.138.212-.2.317.026-.041.051-.079.074-.123a2.939,2.939,0,0,1,5.422,2.145,23,23,0,0,1-1.976,4.093c-.8,1.5-1.626,2.977-2.447,4.457-1.679,3.026-3.6,5.906-5.3,8.916a2.938,2.938,0,0,1-2.555,1.485,2.826,2.826,0,0,1-1.377-.351Zm-19.09,3.712a2.812,2.812,0,0,0,1.037.2,2.9,2.9,0,0,0,2.708-1.82c.732-1.9,1.533-3.753,2.386-5.6,1.946-3.968,4.081-7.844,6.172-11.735,1.111-2.063,2.214-4.124,3.333-6.182.573-1.052,1.152-2.1,1.713-3.162.276-.525.561-1.044.824-1.577a4.188,4.188,0,0,0,.627-2.084,3.008,3.008,0,0,0-1.856-2.7,2.939,2.939,0,0,0-2.934.448,8.241,8.241,0,0,0-1.454,1.969q-.614.995-1.216,2c-.663,1.109-1.323,2.217-1.969,3.338-1.393,2.422-2.8,4.846-4.091,7.324-1.362,2.609-2.665,5.227-3.827,7.931-1.116,2.6-2.12,5.248-3.075,7.905a2.922,2.922,0,0,0,1.62,3.745Zm-11.628-3.668a3.012,3.012,0,0,1-1.677-3.878c2.721-6.377,5.612-12.687,8.727-18.883,2.908-5.783,6.1-11.418,9.18-17.111.819-1.518,1.654-3.034,2.422-4.582.041-.09.079-.182.115-.274a3.023,3.023,0,0,1,1.667-2.053,2.875,2.875,0,0,1,1.544-.23,2.967,2.967,0,0,1,2.583,2.877,8.608,8.608,0,0,1-1.19,3.6q-.58,1.233-1.193,2.45c-.789,1.564-1.595,3.118-2.4,4.672-1.492,2.88-2.987,5.755-4.457,8.645-1.541,3.026-3.072,6.054-4.626,9.073-1.459,2.836-2.939,5.668-4.311,8.55q-.284.6-.571,1.2c-.658,1.416-1.306,2.836-1.93,4.265a3.086,3.086,0,0,1-2.8,1.887,2.805,2.805,0,0,1-1.086-.2Zm-13.107,2.284a2.854,2.854,0,0,0,.684.084,2.9,2.9,0,0,0,2.8-2.161c.832-3.32,1.828-6.589,2.883-9.846l-.046.141c.021-.061.038-.12.059-.182l.737-2.209c.983-2.962,1.981-5.921,2.97-8.881,1.032-3.108,2.058-6.218,3.174-9.3q3.456-9.531,7.524-18.821a2.97,2.97,0,0,0-5.522-2.189c-1.761,3.937-3.546,7.869-5.133,11.876-1.224,3.08-2.44,6.159-3.556,9.277q-1.763,4.93-3.4,9.9c-.968,2.936-1.848,5.908-2.665,8.891-.906,3.295-1.792,6.595-2.581,9.923a2.909,2.909,0,0,0,2.076,3.492Zm-14.536,2.629a2.858,2.858,0,0,1-2.056-3.456c1.651-5.087,3.18-10.212,4.833-15.3l-.123.379q.5-1.548,1-3.1c-.044.128-.082.256-.125.381q2.6-8.037,5.491-15.985c1.027-2.821,2.028-5.655,3.151-8.435a86.342,86.342,0,0,1,3.773-8.4,2.939,2.939,0,0,1,5.143,2.844c-.154.3-.307.609-.461.914-1.254,2.785-2.355,5.635-3.394,8.507q-1.763,4.877-3.425,9.782c-2.048,6.019-4.055,12.047-6.2,18.035-1.446,4.032-2.9,8.059-4.268,12.116a2.817,2.817,0,0,1-2.675,1.792,2.662,2.662,0,0,1-.668-.079Zm-15.334,5.8a2.836,2.836,0,0,0,.709.09,2.984,2.984,0,0,0,2.829-2.194q1.578-5.495,3.2-10.977c1.892-6.4,3.714-12.81,5.409-19.261,1.664-6.336,3.284-12.685,5.23-18.941.279-.812.558-1.623.85-2.429a2.989,2.989,0,0,0-5.558-2.2c-1.638,4.357-3.036,8.8-4.3,13.281-1.856,6.582-3.681,13.174-5.419,19.786-1.692,6.436-3.269,12.9-5.053,19.31a2.937,2.937,0,0,0,2.107,3.538Zm-17.346-4.992a2.944,2.944,0,0,1-2.55-3.244c.676-5.235,1.17-10.5,2.207-15.683,1-4.979,2.148-9.925,3.159-14.9.008-.054.015-.107.023-.164a2.9,2.9,0,0,1,2.1-3.052,2.926,2.926,0,0,1,3.295,1.28,3.607,3.607,0,0,1,.453,1.2,8.714,8.714,0,0,1-.054,2.22c-.064.576-.169,1.149-.256,1.723-.166,1.134-.376,2.268-.571,3.4-.412,2.376-.809,4.751-1.224,7.127-.433,2.5-.868,5-1.38,7.483-.486,2.358-1,4.71-1.457,7.073q-.265,1.49-.509,2.987a2.973,2.973,0,0,1-2.89,2.568,2.7,2.7,0,0,1-.351-.018ZM680,411.666a30.02,30.02,0,0,1,.174-4.18c.148-1.2.356-2.4.558-3.592.443-2.609,1-5.192,1.513-7.787A2.933,2.933,0,0,1,688,397.179c-.417,2.455-.755,4.92-1.086,7.388s-.707,4.943-.934,7.424a3.021,3.021,0,0,1-2.944,2.642H683a3.033,3.033,0,0,1-3-2.967Zm-10.01,3.82a3.179,3.179,0,0,1-2.271-3.812,32.7,32.7,0,0,1,2.4-6.543c.417-.873.868-1.733,1.306-2.6a2.994,2.994,0,0,1,5.4,2.55,61.544,61.544,0,0,0-2.655,6.948c.044-.128.084-.259.128-.387q-.192.611-.387,1.221c-.038.118-.074.236-.113.356a3.292,3.292,0,0,1-1.4,1.9,3.177,3.177,0,0,1-1.646.461,3.374,3.374,0,0,1-.763-.1ZM651.17,419.6a3.346,3.346,0,0,1-.986-2.268c-.051-.658-.085-1.316-.108-1.974-.018-.448-.01-.9-.02-1.349a2.7,2.7,0,0,1,.466-2.378.277.277,0,0,0,.026-.031.216.216,0,0,0,.02-.031,2.928,2.928,0,0,1,3.057-1.1,3.285,3.285,0,0,1,2.337,2.386,11.864,11.864,0,0,1,.32,1.459c.169.968.192,1.969.266,2.947a3.2,3.2,0,0,1-3.149,3.22h-.036a3.206,3.206,0,0,1-2.194-.881Zm-14.51,2.127q-.257-.68-.494-1.359a10.828,10.828,0,0,1-.328-1.5,15.663,15.663,0,0,1-.172-2.3c-.033-.87-.02-1.738-.01-2.606.023-1.718.148-3.43.192-5.148a2.954,2.954,0,1,1,5.909-.064c.038,1.464.123,2.929.166,4.393.054,1.708-.015,3.423.064,5.13.023.215.054.43.092.643.061.256.128.509.2.763a3.034,3.034,0,0,1-1.667,3.574,2.963,2.963,0,0,1-1.188.243,2.912,2.912,0,0,1-2.765-1.772ZM166.423,410.5c-.166-1.3-.32-2.6-.471-3.9a2.925,2.925,0,1,1,5.788-.842c.174,1.3.351,2.6.515,3.894a2.983,2.983,0,0,1-2.493,3.341,2.754,2.754,0,0,1-.41.031,2.977,2.977,0,0,1-2.929-2.524Zm-19.589-1.4a19.633,19.633,0,0,1,.118-3.425c.1-.865.261-1.723.41-2.58.279-1.628.62-3.244.852-4.877a2.932,2.932,0,0,1,5.821.7c-.315,3.082-.778,6.157-1.024,9.247-.008.289-.015.579-.015.865a3.118,3.118,0,0,1-3.044,3.116h-.041a3.122,3.122,0,0,1-3.077-3.044Zm-15.841,10.555a26.766,26.766,0,0,1-2.081-6.428,18.3,18.3,0,0,1-.11-3.781c.036-.855.09-1.707.148-2.56.187-2.757.6-5.484,1.016-8.213a2.978,2.978,0,1,1,5.914.707c-.384,3.907-.627,7.834-.868,11.75-.013.494-.015.986.005,1.482.049.469.118.929.2,1.4.2.868.466,1.715.753,2.563.1.251.195.5.294.753a2.919,2.919,0,0,1-1.469,3.8,2.807,2.807,0,0,1-1.142.241,2.922,2.922,0,0,1-2.665-1.71Zm-14.226,2.4a23.524,23.524,0,0,1-2.017-4.959,24.8,24.8,0,0,1-.612-4.818c-.064-.952-.028-1.925-.01-2.88.02-1.073.054-2.143.09-3.215.133-4.037.346-8.069.612-12.1a2.911,2.911,0,0,1,5.8.315c-.113,3.4-.09,6.8-.077,10.2.008,1.669.026,3.341.044,5.01.015,1.725-.01,3.456.1,5.176.067.586.154,1.165.266,1.743.164.663.369,1.306.591,1.948.123.289.246.581.374.87a2.9,2.9,0,0,1-2.675,4.088,2.764,2.764,0,0,1-2.488-1.377Zm-10.107-1.572a45.553,45.553,0,0,1-1.334-5.281c-.266-1.352-.387-2.726-.525-4.1-.166-1.628-.215-3.272-.3-4.9-.072-1.423-.095-2.847-.123-4.273a130.167,130.167,0,0,1,.932-18.222,2.952,2.952,0,0,1,5.862.7c-.143,1.4-.243,2.8-.338,4.2-.092,1.9-.195,3.807-.2,5.709-.01,2.084,0,4.16.031,6.244.059,3.955.2,7.923.445,11.871.161,1.541.358,3.064.637,4.59.146.625.3,1.247.466,1.866a2.918,2.918,0,0,1-1.976,3.576,2.851,2.851,0,0,1-.791.113,2.958,2.958,0,0,1-2.785-2.086Zm-11.369-1.39a59.455,59.455,0,0,1-2.053-9.451c-.466-3.046-.929-6.1-1.344-9.152-.443-3.236-.837-6.469-1.162-9.72a38.651,38.651,0,0,1,.079-9.052,2.934,2.934,0,0,1,5.827.7c-.033.358-.059.714-.082,1.073-.031,1.052-.031,2.1.008,3.159.038,1.075.138,2.148.22,3.22l-.031-.4c.5,4.654,1.132,9.29,1.8,13.924.635,4.383,1.2,8.794,2.089,13.133.079.323.159.648.243.968a2.947,2.947,0,0,1-1.992,3.6,2.911,2.911,0,0,1-.8.115,3,3,0,0,1-2.808-2.11ZM83.169,439.716a3.031,3.031,0,0,1-1.162-1.935c-1.306-6.508-2.691-12.995-4.045-19.492q-2.024-9.723-3.732-19.507c-.755-4.362-1.656-8.771-1.656-13.215a2.948,2.948,0,0,1,5.9-.067c0,.451.031.9.064,1.344.4,3.246,1.011,6.461,1.626,9.674.653,3.412,1.326,6.82,1.992,10.232,1.265,6.456,2.412,12.936,3.587,19.41q.983,5.4,2.045,10.785a2.938,2.938,0,0,1-2.47,3.307,2.771,2.771,0,0,1-.412.031,2.971,2.971,0,0,1-1.731-.568Zm-16.538,1.562a2.957,2.957,0,0,0,2.783,2.086,2.822,2.822,0,0,0,.788-.113,2.908,2.908,0,0,0,1.974-3.574c-.663-2.166-1.2-4.36-1.7-6.564-.479-2.291-.927-4.582-1.359-6.881q-1.774-9.439-3.254-18.939c-.476-3.023-.932-6.052-1.3-9.091-.2-1.707-.448-3.415-.614-5.128q-.242-2.5-.489-4.995c-.177-2.442-.366-4.884-.4-7.337a2.949,2.949,0,1,0-5.9.067c-.049,3.684.266,7.368.579,11.039.307,3.569.714,7.132,1.188,10.685.858,6.456,1.93,12.884,3.128,19.287a161.034,161.034,0,0,0,4.57,19.456ZM53.133,438q-2.534-9.531-4.186-19.259-.868-5.157-1.559-10.327c-.207-1.569-.346-3.149-.507-4.726-.079-.771-.115-1.544-.169-2.314s-.133-1.521-.161-2.281c-.09-2.55-.146-5.094-.154-7.647a2.949,2.949,0,0,1,5.9-.064c.036,2.524.151,5.033.3,7.555.264,2.867.532,5.734.95,8.584q.707,4.861,1.531,9.692c.5,2.934,1.014,5.862,1.528,8.794.489,2.8.98,5.589,1.562,8.371.154.681.31,1.364.471,2.045a2.9,2.9,0,0,1-1.958,3.543,2.8,2.8,0,0,1-.765.107A2.888,2.888,0,0,1,53.133,438Zm-13.688,2.419c-.934-3.123-1.876-6.249-2.7-9.405q-1.213-4.658-2.273-9.354c-.745-3.3-1.531-6.612-2.112-9.951-.284-1.638-.54-3.274-.76-4.923-.113-.847-.166-1.7-.228-2.552a8.465,8.465,0,0,1,.118-2.453,1.612,1.612,0,0,1,.118-.366,3.022,3.022,0,0,1,2.708-1.864,2.949,2.949,0,0,1,2.865,2.133,8.2,8.2,0,0,1,.148,1.434,105.087,105.087,0,0,0,1.933,11.013q1.344,5.96,2.693,11.919c.965,4.268,1.889,8.548,3.039,12.769a2.917,2.917,0,0,1-1.976,3.571,2.77,2.77,0,0,1-.783.11,2.919,2.919,0,0,1-2.79-2.081ZM29.01,442.663a3.035,3.035,0,0,0,2.839,2.13,2.874,2.874,0,0,0,.809-.115,2.965,2.965,0,0,0,2.017-3.648c-1.518-4.682-2.836-9.421-4.129-14.167-1.316-4.841-2.65-9.674-3.82-14.554-.376-1.848-.76-3.684-.952-5.563-.026-.42-.041-.837-.041-1.26.008-.1.018-.21.028-.317h0a2.955,2.955,0,0,0-5.729-1.454,8.985,8.985,0,0,0-.266,2.752,30.77,30.77,0,0,0,.448,4.411c.3,1.7.632,3.392,1,5.084.655,3,1.428,5.973,2.263,8.927,1.677,5.97,3.574,11.886,5.53,17.774Zm-11.958.141a125.418,125.418,0,0,1-4.641-11.781c-.586-1.8-1.119-3.63-1.531-5.476-.261-1.178-.494-2.34-.678-3.53a17.25,17.25,0,0,1-.031-5.158,3,3,0,0,1,5.949.714c-.023.177-.044.353-.059.53-.008.371.005.74.028,1.111.115,1.07.32,2.115.53,3.167.6,2.309,1.275,4.582,1.994,6.858.745,2.358,1.5,4.708,2.319,7.037q.768,2.062,1.615,4.1a3.043,3.043,0,0,1-1.533,3.965,2.964,2.964,0,0,1-1.19.248,3.028,3.028,0,0,1-2.772-1.782Zm-9.441,5.548a3.064,3.064,0,0,0,4,1.544,3.038,3.038,0,0,0,1.687-3.61c-1.08-3.029-2.035-6.108-2.959-9.185-.963-3.195-1.91-6.395-2.8-9.61a2.977,2.977,0,0,0-3.651-2.02,2.987,2.987,0,0,0-2.02,3.651c.852,3.249,1.638,6.513,2.545,9.743.435,1.544.883,3.08,1.385,4.6.543,1.649,1.183,3.269,1.82,4.884ZM716.632,553.743a2.953,2.953,0,1,1,2.987,2.921,2.982,2.982,0,0,1-2.987-2.921Zm-15.793-.138a17.567,17.567,0,0,1-.118-3.09c.059-.766.131-1.521.228-2.281.182-1.449.369-2.9.5-4.349.008-.189.01-.379,0-.568a2.935,2.935,0,1,1,5.87-.064c.061,1.234.018,2.463-.031,3.7-.054,1.4-.11,2.788-.192,4.183-.031.663-.054,1.324-.056,1.989a3.155,3.155,0,0,1-2.67,3.121,2.883,2.883,0,0,1-.42.031,3.121,3.121,0,0,1-3.108-2.668Zm-21.962,6.08a17.168,17.168,0,0,1-.568-2,14.6,14.6,0,0,1-.251-2.212,15.439,15.439,0,0,1,.241-2.655c.125-1.011.343-2.01.543-3.005.4-1.994.973-3.95,1.449-5.926a2.982,2.982,0,1,1,5.78,1.467c-.128.617-.246,1.234-.366,1.853-.476,2.642-.911,5.3-1.17,7.972-.013.4-.01.8.005,1.2.074.681.187,1.352.32,2.025a3.083,3.083,0,0,1-2.186,3.39,3.03,3.03,0,0,1-.842.12,3.171,3.171,0,0,1-2.954-2.222Zm-15.747,5.263a43.2,43.2,0,0,1,1-12.457c.806-3.914,1.771-7.8,2.716-11.681a3,3,0,1,1,5.806,1.475c-.63,2.68-1.188,5.373-1.7,8.077a116.627,116.627,0,0,0-1.71,12.122c-.023.663-.041,1.323-.038,1.989a3.087,3.087,0,0,1-2.616,3.054,2.659,2.659,0,0,1-.4.028,3.042,3.042,0,0,1-3.057-2.606Zm-12.306,13.263c-.732-2.972-1.349-5.988-1.8-9.019-.466-3.146-.76-6.3-1.019-9.472-.261-3.21-.422-6.433-.561-9.651-.064-1.48-.1-2.959-.143-4.439-.023-.806-.015-1.615-.023-2.419a14.6,14.6,0,0,1,.077-2.414,2.917,2.917,0,0,1,5.783-.072,23.779,23.779,0,0,1,.12,2.6c.049,1,.092,1.992.156,2.99.118,1.94.256,3.873.4,5.811q.522,6.1,1.029,12.2a94.832,94.832,0,0,0,1.48,11.845.484.484,0,0,1-.013-.064c.008.033.013.067.021.1.02.1.041.192.061.287-.018-.079-.033-.159-.051-.235l.077.348a3.051,3.051,0,0,1-.251,2.214,2.929,2.929,0,0,1-1.743,1.387,2.755,2.755,0,0,1-.776.108,2.9,2.9,0,0,1-2.826-2.1Zm-10.657,3.5a76.367,76.367,0,0,1-3.118-10.542,93.917,93.917,0,0,1-1.439-9.667c-.379-3.51-.727-7.017-.988-10.537-.235-3.18-.312-6.367-.3-9.557.008-1.562.033-3.126.067-4.687.028-1.257.107-2.514.133-3.773a2.981,2.981,0,0,1,5.962-.069c.054,2.621.028,5.248.069,7.869.049,2.865.179,5.719.338,8.579q.511,5.791,1.18,11.566c.238,2.092.456,4.188.722,6.277.261,2.04.586,4.06.973,6.083a63.507,63.507,0,0,0,1.82,6.487,2.906,2.906,0,0,1-1.61,3.448,2.86,2.86,0,0,1-1.144.233,2.809,2.809,0,0,1-2.667-1.71ZM627.3,591.8a3.055,3.055,0,0,1-1.4-1.754c-.591-1.733-1.109-3.482-1.587-5.253-.438-1.615-.735-3.267-1.055-4.907-.166-.873-.253-1.769-.376-2.647-.123-.858-.21-1.72-.312-2.58q-.265-2.212-.5-4.429c-.348-3.282-.7-6.564-.975-9.853-.279-3.374-.584-6.756-.7-10.14-.046-1.344-.09-2.688-.138-4.029-.046-1.28,0-2.57,0-3.85,0-2.35.125-4.705.187-7.055a2.952,2.952,0,0,1,5.9-.067c-.038,2.563-.077,5.125-.018,7.685.061,2.67.189,5.33.338,8q.2,2.569.4,5.135c-.01-.141-.023-.279-.033-.42q.68,7.234,1.477,14.456c.284,2.6.561,5.189.891,7.78.294,2.335.694,4.644,1.172,6.948.289,1.211.6,2.417.955,3.612a2.951,2.951,0,0,1-2,3.62,2.88,2.88,0,0,1-.806.113,2.958,2.958,0,0,1-1.426-.361Zm-11.725,2.273a2.919,2.919,0,0,0,2.706,1.736,2.875,2.875,0,0,0,1.162-.241,2.962,2.962,0,0,0,1.541-1.6,3.067,3.067,0,0,0-.046-2.266c-.018-.046-.033-.092-.051-.138a38.658,38.658,0,0,1-1.211-4.477c-.525-2.847-.965-5.7-1.293-8.576q-.488-4.266-.988-8.53-.549-4.692-1.068-9.387c-.294-2.714-.535-5.432-.788-8.151q-.192-2.842-.387-5.686c-.118-1.7-.141-3.4-.2-5.107-.115-3.287-.041-6.569.087-9.851.064-.957.123-1.915.248-2.867a2.953,2.953,0,0,0-4.787-2.647,3.1,3.1,0,0,0-1.075,1.946,57.122,57.122,0,0,0-.561,6.51c-.064,1.121-.059,2.243-.082,3.364-.015.778-.046,1.557-.033,2.335.087,4.311.174,8.62.52,12.92.294,3.681.607,7.355.968,11.031.32,3.282.7,6.559,1.085,9.836.371,3.144.742,6.3,1.349,9.408a53.8,53.8,0,0,0,2.906,10.442Zm-9.518,7.158a44.961,44.961,0,0,1-3.231-10.368c-.684-3.187-1.229-6.408-1.784-9.618-1.137-6.531-2.23-13.069-3.169-19.63-.374-2.611-.735-5.215-1.068-7.831-.346-2.711-.645-5.414-.922-8.133-.11-1.073-.2-2.138-.269-3.215-.074-1.252-.2-2.516-.215-3.773-.015-1.347-.046-2.691.005-4.037.023-.648.051-1.3.1-1.943a4.033,4.033,0,0,1,.653-2.166,2.928,2.928,0,0,1,5.258,1.311,6.9,6.9,0,0,1,.005,1.172c-.013.52-.015,1.037-.018,1.554,0,1.026.033,2.053.067,3.082.064,1.986.253,3.968.407,5.949-.01-.136-.02-.274-.031-.41.4,3.436.817,6.861,1.3,10.283.451,3.231.947,6.454,1.444,9.674,1.027,6.656,2.2,13.292,3.351,19.927.622,3.589,1.257,7.173,2,10.739.358,1.5.737,2.972,1.216,4.434.082.21.164.417.248.625a2.961,2.961,0,0,1-1.49,3.853,2.859,2.859,0,0,1-1.16.248,3.007,3.007,0,0,1-2.693-1.728Zm-12.193-3.464a2.927,2.927,0,0,0,1.075.2,2.929,2.929,0,0,0,2.685-4.116c-.085-.21-.169-.417-.248-.627-.451-1.4-.809-2.816-1.144-4.25l-.415-2.02c-.689-3.349-1.211-6.733-1.787-10.1-.568-3.315-1.08-6.641-1.592-9.964-1.1-7.107-1.828-14.267-2.5-21.422a2.969,2.969,0,0,0-5.332-1.329,3.12,3.12,0,0,0-.545,2.184c.269,3.036.5,6.08.817,9.116.384,3.689.788,7.375,1.239,11.057.407,3.295.9,6.577,1.382,9.861.466,3.149.883,6.321,1.51,9.441a40.242,40.242,0,0,0,3.254,10.429,3.069,3.069,0,0,0,1.605,1.533Zm-14.671-7.252c-5.025-12.142-9.643-24.632-11.755-37.652a2.953,2.953,0,1,1,5.844-.847c.148.8.312,1.595.471,2.391,1.229,5.133,2.752,10.173,4.393,15.188,1.546,4.731,3.118,9.462,4.792,14.149.545,1.464,1.1,2.923,1.677,4.372a3,3,0,0,1-1.516,3.909,2.886,2.886,0,0,1-1.175.243,2.937,2.937,0,0,1-2.732-1.754Zm-13.128-3.945a2.785,2.785,0,0,0,2.481,1.377,2.888,2.888,0,0,0,2.665-4.075c-1.423-2.867-2.652-5.816-3.907-8.76-1.1-2.573-2.153-5.158-3.144-7.775-.412-1.252-.817-2.493-1.119-3.779-.113-.589-.2-1.172-.266-1.769-.021-.386-.036-.773-.038-1.16a3.008,3.008,0,1,0-6.016.069,21.2,21.2,0,0,0,.8,6.272c.256.863.484,1.733.781,2.58q1.056,3.022,2.268,5.98a114.46,114.46,0,0,0,5.494,11.039Zm-9.257,6.845a97.615,97.615,0,0,1-6.533-11.543,3.031,3.031,0,1,1,5.545-2.45c.087.177.174.351.264.527.934,1.656,1.956,3.264,2.921,4.9,1.111,1.887,2.1,3.837,3.108,5.783a3.011,3.011,0,0,1-1.178,3.773,2.962,2.962,0,0,1-1.546.433,3.024,3.024,0,0,1-2.58-1.426Zm-12.142,13.6a3.437,3.437,0,0,1-2.209-1.866c-.156-.3-.315-.6-.474-.9.038.074.077.149.118.22q-3.011-5.737-6.083-11.441A138.643,138.643,0,0,0,529,580.716c-.108-.143-.212-.281-.33-.417h.01a3.058,3.058,0,0,1-.236-.328.022.022,0,0,1,0,.013l0,0c-.01-.018-.018-.036-.028-.054a2.816,2.816,0,0,1-.4-1.449c0,.01.008.023.01.033a2.805,2.805,0,0,1,.2-1.16,2.936,2.936,0,0,1,2.317-1.833,3.331,3.331,0,0,1,1.18.056,3.724,3.724,0,0,1,1.51.893,11.593,11.593,0,0,1,1.6,2.02c.742,1.019,1.423,2.089,2.084,3.161q1.989,3.237,3.832,6.556c2.573,4.6,5.1,9.214,7.552,13.875a3.472,3.472,0,0,1,.384,2.54,3.3,3.3,0,0,1-3.208,2.488,3.171,3.171,0,0,1-.8-.1ZM389.608,595.187a2.97,2.97,0,1,1,3,2.936,3,3,0,0,1-3-2.936Zm-20.1.491a16.565,16.565,0,0,1,.136-3.064c.1-.64.253-1.27.394-1.9.177-.778.4-1.549.617-2.317.456-1.585.991-3.164,1.334-4.779a2.885,2.885,0,0,1,5.66,1.052c-.22,1.469-.456,2.931-.74,4.39-.3,1.531-.643,3.054-.965,4.58-.087.538-.151,1.07-.187,1.613-.005.12-.01.241-.013.361a3.239,3.239,0,0,1-.863,2.184,3.126,3.126,0,0,1-2.22.965h-.041a3.159,3.159,0,0,1-3.113-3.082Zm-14.515-1.193a9.473,9.473,0,0,1-.5-1.254,9.232,9.232,0,0,1-.251-1.964,12.545,12.545,0,0,1,.2-2.514c.148-1.065.387-2.12.614-3.169.412-1.92.973-3.807,1.377-5.734.023-.143.046-.287.056-.433a2.976,2.976,0,0,1,5.268-1.518,3.112,3.112,0,0,1,.643,2.227,21.061,21.061,0,0,1-.484,2.683c-.228,1.306-.443,2.619-.65,3.93-.256,1.61-.655,3.213-.781,4.841,0,.113,0,.223,0,.335.046.174.095.348.154.517a3.039,3.039,0,0,1-1.677,3.592,2.929,2.929,0,0,1-1.193.251,3.056,3.056,0,0,1-2.783-1.789ZM340.31,594.4c.128-3.727.146-7.457.389-11.18.215-3.266.568-6.52.794-9.787a7.391,7.391,0,0,1,.041-.758,2.937,2.937,0,0,1,5.6-.837,6.708,6.708,0,0,1,.333,2.609c-.018.968-.046,1.935-.077,2.9-.061,1.864-.143,3.725-.22,5.586-.166,3.94-.63,7.857-.917,11.789a2.992,2.992,0,0,1-2.929,2.624h-.036a3,3,0,0,1-2.98-2.949Zm-10.235,3.338a3.065,3.065,0,0,1-2.01-1.114,3.19,3.19,0,0,1-.658-2.281c.189-2.844.356-5.691.632-8.527.284-2.918.655-5.824,1.088-8.724.42-2.8.906-5.591,1.434-8.374.52-2.742,1.172-5.44,1.9-8.136a3.016,3.016,0,1,1,5.847,1.485c-.335,1.313-.607,2.637-.875,3.965-.8,4.672-1.405,9.372-2.033,14.072-.663,4.982-1.426,9.964-1.928,14.963a3.077,3.077,0,0,1-3.049,2.688,2.684,2.684,0,0,1-.348-.018Zm-12.452,6.546a2.966,2.966,0,0,1-2.557-3.254c.284-3.459.443-6.925.742-10.383.3-3.51.737-7,1.167-10.5.824-6.659,1.818-13.276,3.036-19.873.146-.789.294-1.574.443-2.363,0,.018-.008.038-.01.056.018-.09.033-.182.051-.271a3.166,3.166,0,0,1,1.085-1.964,2.982,2.982,0,0,1,4.836,2.673c-1.162,6.95-2.03,13.931-2.775,20.938-.358,3.343-.673,6.687-1.027,10.03-.343,3.21-.852,6.4-1.334,9.592-.138.917-.269,1.838-.4,2.757a2.97,2.97,0,0,1-2.906,2.578,2.718,2.718,0,0,1-.353-.018Zm-15.913-.486a2.924,2.924,0,0,1-2.527-3.218c.374-3.349.74-6.7,1.224-10.038s1.06-6.648,1.7-9.956,1.388-6.592,2.168-9.871c.74-3.121,1.5-6.251,2.45-9.316.412-1.326.842-2.624,1.329-3.919a11.523,11.523,0,0,1,1.37-2.652,2.942,2.942,0,0,1,5.286,1.321,3.012,3.012,0,0,1-.44,2,.154.154,0,0,0-.013.031c.174-.269.038-.046-.038.084a28.715,28.715,0,0,0-1.024,2.806c-1.569,5.622-2.79,11.331-3.932,17.055q-1.728,8.663-3.392,17.341c-.351,1.928-.676,3.858-.945,5.8a2.942,2.942,0,0,1-2.875,2.547,2.564,2.564,0,0,1-.343-.018Zm-14.436,11.382a2.984,2.984,0,0,0,2.967,2.934h.036a2.988,2.988,0,0,0,2.112-.919,3.109,3.109,0,0,0,.819-2.084c.013-.223.023-.445.036-.666,0,.044-.005.084-.005.128.284-5.066.684-10.122,1.057-15.183.474-6.428.86-12.861,1.357-19.29q.43-5.579.955-11.144c.3-3.2.806-6.367,1.316-9.536.236-1.139.443-2.286.74-3.407.351-1.316.712-2.614,1.124-3.912a3.012,3.012,0,0,0-5.719-1.851c-.684,2.058-1.308,4.114-1.81,6.223-.492,2.081-.855,4.178-1.239,6.28-.177.97-.274,1.966-.41,2.944-.115.832-.251,1.661-.34,2.5-.212,1.956-.456,3.909-.627,5.868-.6,6.861-1.132,13.724-1.536,20.6-.2,3.517-.4,7.035-.543,10.555-.138,3.318-.2,6.643-.289,9.964Zm-9.574-.645c.192-6.518.087-13.038.166-19.556.082-6.613.236-13.225.338-19.84.115-7.624.236-15.25.294-22.876a2.962,2.962,0,1,1,5.924-.064c.054,6.8.148,13.6.146,20.4-.005,6.456-.028,12.91-.174,19.364-.172,7.506-.532,15.007-.891,22.507a3.042,3.042,0,0,1-.8,2.035,2.927,2.927,0,0,1-2.068.9H280.6a2.926,2.926,0,0,1-2.9-2.872ZM264,620.221c-.228-6.372-.4-12.756-.445-19.133q-.065-10.253.3-20.5c.23-6.269.724-12.518,1.418-18.752a2.977,2.977,0,1,1,5.911.709c-.392,3.832-.655,7.667-.881,11.515q-.207,5.076-.34,10.153c-.082,3.22-.074,6.446-.095,9.664-.041,6.487-.218,12.971-.22,19.459q0,3.41.1,6.817a2.9,2.9,0,0,1-2.842,2.908h-.031A2.908,2.908,0,0,1,264,620.221Zm-9.021.084c-1.05-6.682-1.754-13.425-2.194-20.173a103.659,103.659,0,0,1,.284-19.627c.269-2.107.591-4.188,1.037-6.264a2.969,2.969,0,0,1,5.409-.822,3.076,3.076,0,0,1,.346,2.281c-.09.443-.174.886-.256,1.326-.387,2.557-.622,5.112-.819,7.693q-.058,1.54-.113,3.082c-.041,1.1.01,2.2.018,3.3.013,1.958.09,3.914.174,5.873.182,4.157.468,8.31.794,12.457-.01-.133-.021-.269-.031-.4.307,3.487.681,6.963,1.206,10.424a2.988,2.988,0,0,1-2.5,3.354,2.918,2.918,0,0,1-.42.031,3,3,0,0,1-2.931-2.534Zm-10.621,4.383a187.184,187.184,0,0,1-3.61-20.142c-.809-6.528-1.336-13.192-.479-19.74a11.824,11.824,0,0,1,.527-2.24,2.967,2.967,0,0,1,5.471-.107,3.047,3.047,0,0,1,.082,2.179c.018-.056.038-.113.056-.172a6.29,6.29,0,0,0-.164.609c-.1.648-.166,1.3-.236,1.953-.026.691-.054,1.385-.077,2.076-.031.773.026,1.554.044,2.327.031,1.423.143,2.847.241,4.268.43,4.4.945,8.783,1.472,13.171.543,4.5,1.139,8.978,2.056,13.417.059.266.118.532.177.8a3.023,3.023,0,0,1-.248,2.2,2.909,2.909,0,0,1-1.731,1.38,2.753,2.753,0,0,1-.763.1,2.871,2.871,0,0,1-2.819-2.084Zm-10.982,1.884c-1.416-5.681-2.778-11.4-3.64-17.2q-.357-2.381-.673-4.769c-.184-1.385-.364-2.783-.456-4.175-.095-1.444-.187-2.872-.195-4.321-.01-1.6.133-3.192.279-4.782a2.955,2.955,0,1,1,5.868.7c-.036.474-.067.947-.095,1.421-.018.579-.061,1.162-.038,1.736.028.755.059,1.51.087,2.266.179,1.951.364,3.9.66,5.832q.553,3.6,1.147,7.183c.691,4.2,1.321,8.417,2.176,12.593.141.64.282,1.275.428,1.912a3.009,3.009,0,0,1-.248,2.194,2.9,2.9,0,0,1-1.731,1.377,2.8,2.8,0,0,1-.768.107,2.87,2.87,0,0,1-2.8-2.079Zm-10.7,7.258a2.837,2.837,0,0,0,2.7,1.728,2.9,2.9,0,0,0,1.162-.236,2.94,2.94,0,0,0,1.631-3.489c-1.257-3.625-2.273-7.319-3.269-11.021-.932-3.461-1.846-6.922-2.693-10.4-.412-1.956-.783-3.9-1.027-5.893-.02-.3-.041-.607-.054-.909a2.935,2.935,0,1,0-5.87.064c.036,5.366,1.362,10.591,2.76,15.736,1.324,4.879,2.913,9.679,4.657,14.423Zm-16.161-7.373a39.362,39.362,0,0,1-4.1-10.048,3.053,3.053,0,0,1,.253-2.235,2.928,2.928,0,0,1,1.759-1.4,2.963,2.963,0,0,1,3.638,2.01c.092.328.2.645.312.963,1.091,2.66,2.371,5.25,3.587,7.857a3.062,3.062,0,0,1-2.826,4.316,2.941,2.941,0,0,1-2.624-1.459ZM198,633.418a2.888,2.888,0,0,0,2.724,1.749,2.931,2.931,0,0,0,1.172-.241,2.968,2.968,0,0,0,1.549-1.613,3.107,3.107,0,0,0-.044-2.286c-.074-.2-.146-.4-.218-.6-1.213-3.443-2.289-6.932-3.412-10.406-1.236-3.835-2.391-7.682-3.412-11.579a2.954,2.954,0,1,0-5.678,1.636c.507,2,.991,4.017,1.533,6.013s1.124,3.986,1.725,5.967c1.167,3.845,2.606,7.613,4.06,11.359Zm-.829,69.854a3.1,3.1,0,1,1,3.136,3.064,3.13,3.13,0,0,1-3.136-3.064Zm-12.3,11.976a12.055,12.055,0,0,1-.412-2.414,19.957,19.957,0,0,1,.041-2.411c.049-.661.087-1.318.143-1.976.11-1.334.228-2.662.351-3.994q.4-4.362.8-8.724a2.984,2.984,0,0,1,5.926.712c-.2,2.521-.351,5.048-.494,7.575a.087.087,0,0,1,0-.026c-.164,2.872-.415,5.77-.315,8.645.044.43.095.855.161,1.28a3.2,3.2,0,0,1-2.266,3.51,3.073,3.073,0,0,1-.845.118,3.179,3.179,0,0,1-3.092-2.294Zm-10.652,2.368a20.713,20.713,0,0,1-1.521-3.983,21.257,21.257,0,0,1-.558-6.008c.059-1.943.182-3.881.317-5.819.241-3.417.681-6.81,1-10.217a2.973,2.973,0,0,1,5.9.707c-.172,1.833-.307,3.671-.417,5.509q-.131,2.776-.228,5.55c-.087,2.534-.274,5.089-.138,7.626.067.678.161,1.347.289,2.017.136.55.3,1.088.474,1.626.079.207.161.412.246.617a2.975,2.975,0,0,1-1.5,3.873,2.886,2.886,0,0,1-1.162.248,3.067,3.067,0,0,1-2.711-1.746Zm-13.583,3.5q-.192-.718-.364-1.446a35.078,35.078,0,0,1-.691-5.243c-.133-1.677-.113-3.374-.113-5.059,0-1.746.031-3.489.054-5.235.1-6.656.394-13.317.668-19.97.056-1.449.12-2.9.1-4.352a2.958,2.958,0,1,1,5.916-.067c-.056,6.008-.21,12.011-.259,18.02q-.038,4.727-.031,9.457c0,1.344-.015,2.686-.01,4.027.008,1.646.044,3.279.1,4.926q.1.96.2,1.92c.064.589.195,1.175.3,1.756.1.425.2.845.312,1.265h-6.2Zm-11.617,0a3.733,3.733,0,0,1-.325-.279,5.346,5.346,0,0,1-1.311-2.394,17.042,17.042,0,0,1-.5-3.932c-.054-.9-.09-1.8-.12-2.706-.1-3.279-.038-6.564.018-9.843.108-6.39.463-12.782.75-19.167.033-.773.067-1.544.1-2.317a3.14,3.14,0,0,1,.832-2.112,3.011,3.011,0,0,1,5.192,2.045c-.238,5.87-.433,11.75-.532,17.626q-.081,4.562-.125,9.129c-.028,2.908-.061,5.821.138,8.727a2.954,2.954,0,0,1,.351.22,2.918,2.918,0,0,1,.622,4.057,5.95,5.95,0,0,1-.916.947h-4.175Zm-13.85-4.7a193,193,0,0,1-2.3-19.817c-.433-6.666-.2-13.353-.026-20.019.008-.218.01-.438.015-.655a2.858,2.858,0,1,1,5.716-.064c.1,5.128.243,10.263.543,15.383.294,4.979.6,9.964.95,14.938.264,3.136.6,6.259,1.091,9.367a3.052,3.052,0,0,1-2.56,3.43,3.151,3.151,0,0,1-.435.031,3.081,3.081,0,0,1-3-2.593Zm-11.008,2.644a124.754,124.754,0,0,1-4.086-19.909,160.476,160.476,0,0,1-1.423-19.917q-.008-3.06.013-6.118a3.008,3.008,0,1,1,6.016-.069q.012,3.061.077,6.118c.041,1.777.146,3.546.236,5.32.2,2.422.41,4.833.668,7.25.256,2.45.586,4.892.9,7.334.614,4.741,1.2,9.487,2.117,14.182.31,1.413.645,2.816,1.037,4.211a2.922,2.922,0,0,1-1.981,3.579,2.73,2.73,0,0,1-.317.072h-.924a2.947,2.947,0,0,1-2.332-2.053Zm-10.985-2.01a2.884,2.884,0,0,0,2.854,2.1,2.731,2.731,0,0,0,.763-.1,2.933,2.933,0,0,0,2.086-3.231c-1.206-5.9-1.912-11.871-2.7-17.833-.369-2.772-.768-5.545-1.106-8.32q-.545-4.5-1-9c-.148-2.007-.307-4.011-.376-6.024-.038-1.019-.108-2.045-.1-3.067q.019-1.743.033-3.489c.092-1.631.195-3.251.351-4.879a2.964,2.964,0,0,0-5.885-.7c-.271,2.547-.461,5.089-.527,7.649-.059,2.232-.059,4.477.069,6.71.2,3.4.42,6.792.788,10.181q.584,5.353,1.29,10.691c.863,6.479,2.071,12.928,3.459,19.313Zm-9.743,3.279c-1.167-6.648-2.2-13.309-3.016-20.009-.781-6.418-1.541-12.856-1.989-19.31q-.146-2.143-.3-4.288c-.1-1.4-.115-2.8-.172-4.2-.023-.535,0-1.075.005-1.61,0-.676-.013-1.349.031-2.025.079-1.336.166-2.655.374-3.981a2.946,2.946,0,1,1,5.85.7c-.064.55-.1,1.1-.136,1.659-.036,1.626-.023,3.236.018,4.864.033,1.467.166,2.934.256,4.4.553,6.469,1.249,12.92,1.984,19.374.374,3.284.773,6.569,1.134,9.859.364,3.3.717,6.61,1.17,9.9.174,1.275.371,2.547.576,3.817a2.778,2.778,0,0,1-.233,1.623H103.68a3.057,3.057,0,0,1-.248-.781Zm-12.183-1.354c-1.521-6.664-2.939-13.394-3.8-20.183-.881-6.927-1.62-13.862-2.061-20.836-.064-1.037-.12-2.074-.154-3.113-.038-1.214-.11-2.427-.1-3.643.018-2.772.067-5.537.159-8.31a2.98,2.98,0,0,1,5.96-.069c-.054,2.383-.069,4.756-.036,7.137.031,2.035.151,4.065.253,6.1q.4,4.877.893,9.741c.33,3.218.778,6.431,1.231,9.631q.741,5.207,1.416,10.422c.415,3.228.868,6.446,1.441,9.651.136.755.289,1.505.443,2.253a2.9,2.9,0,0,1-2.063,3.2,2.76,2.76,0,0,1-.765.108,2.851,2.851,0,0,1-2.813-2.084ZM82.2,720.01a2.474,2.474,0,0,0,.6,1.109H87.06a2.768,2.768,0,0,0,.369-.52,2.994,2.994,0,0,0,.246-2.168c-.056-.246-.11-.491-.164-.74-.87-4.14-1.549-8.31-2.212-12.485-2.051-12.979-4.454-25.938-5.647-39.037-.023-.379-.046-.76-.072-1.139a3.667,3.667,0,0,0-.471-1.951,3,3,0,0,0-2.522-1.4,2.923,2.923,0,0,0-2.319,1.193,3.968,3.968,0,0,0-.612,2.411c0,.681.008,1.352.044,2.033.087,1.646.233,3.279.376,4.92.248,2.824.607,5.642.952,8.458A354.426,354.426,0,0,0,82.2,720.01Zm-8.758-.451a195.941,195.941,0,0,1-6.316-18.888q-1.4-5.034-2.647-10.1c-.745-3.041-1.439-6.118-2.012-9.2Q61.706,677.3,61,673.2c-.479-2.777-.817-5.578-1.142-8.374a2.948,2.948,0,0,1,5.834-.847c.7,5.525,1.769,10.977,2.9,16.43.655,2.888,1.311,5.775,2.043,8.645.842,3.295,1.723,6.577,2.609,9.864,1.6,5.9,3.159,11.827,5.21,17.595.09.238.177.476.266.717a3.011,3.011,0,0,1,.046,2.23,2.9,2.9,0,0,1-1.516,1.577c-.072.031-.146.059-.22.084H75.164a2.7,2.7,0,0,1-1.723-1.559Zm-9.492-.427a2.956,2.956,0,0,0,2.094,1.987h1.336l.11-.031a2.889,2.889,0,0,0,1.961-3.543c-1.966-6.333-3.558-12.774-5.135-19.21-1.5-6.1-2.977-12.206-4.365-18.335q-.922-4.328-1.787-8.668c-.489-2.481-.909-4.979-1.149-7.5l-.023-.543a2.944,2.944,0,0,0-5.888.064,30.44,30.44,0,0,0,.323,4.419c.146,1.306.366,2.619.6,3.909q.868,4.731,1.818,9.441c1.267,6.313,2.865,12.554,4.57,18.76,1.774,6.436,3.528,12.879,5.537,19.246Zm-15.8-21Q46.4,692.386,44.6,686.653q-1.505-4.8-2.954-9.62c-.909-3.008-1.708-6.036-2.465-9.085-.323-1.61-.632-3.208-.845-4.841a2.923,2.923,0,0,0-5.786.84,71.545,71.545,0,0,0,2.076,10.78q1.356,5.115,2.87,10.184c1.948,6.564,3.919,13.125,5.985,19.656,1.741,5.514,3.515,11.016,5.187,16.55H60.879q-.637-2.112-1.229-4.234c-.881-3.146-1.677-6.318-2.491-9.482-.758-2.949-1.546-5.891-2.317-8.835-.835-3.185-1.682-6.369-2.452-9.569q-1.2-5-2.319-10.017c-.366-1.828-.768-3.653-1.073-5.489-.123-.737-.243-1.475-.366-2.212-.074-.445-.174-.9-.225-1.347-.09-.853-.184-1.7-.276-2.557-.026-.853-.044-1.7-.008-2.552,0,.018,0,.036,0,.054a3.043,3.043,0,0,0-.64-2.122,2.949,2.949,0,0,0-5.22,1.505c-.064,1.088-.079,2.166-.074,3.256,0,.481.074.973.113,1.449l.138,1.7c.079.986.276,1.974.415,2.952.108.758.223,1.513.361,2.266.724,4,1.508,7.987,2.419,11.953q1.187,5.165,2.514,10.3Zm-11.7,22.172a2.612,2.612,0,0,0,.361.811h4.869a3.138,3.138,0,0,0,.392-2.432q-1.586-6.6-3.328-13.171-2.538-9.608-5.576-19.072-1.6-4.961-3.3-9.889c-.581-1.692-1.175-3.377-1.766-5.066-.65-1.853-1.349-3.7-1.861-5.6a.479.479,0,0,1-.01-.064,2.841,2.841,0,0,0-1.183-2.516,0,0,0,0,1,0,0,3,3,0,0,0-4.109.632,4.3,4.3,0,0,0-.5,3.484,20.516,20.516,0,0,0,.727,2.757c.4,1.267.8,2.532,1.213,3.794.788,2.4,1.59,4.8,2.358,7.209,2.1,6.592,4.1,13.215,6.121,19.832C32.8,707.42,34.824,713.8,36.449,720.307Z" transform="translate(1.259 -296.562)" fill="#abc149" fill-rule="evenodd"/>
  <path id="Trazado_12" data-name="Trazado 12" d="M82.762,481.567c-.591-.986-1.216-1.943-1.864-2.9a86.118,86.118,0,0,0-5.727-7.46l-.269-.261a2.924,2.924,0,0,1-2.324-2.8,2.957,2.957,0,0,1,1.436-2.542,3.649,3.649,0,0,1,3.9.287,17.357,17.357,0,0,1,3,2.844c.509.573,1.019,1.139,1.505,1.733,1,1.219,1.912,2.483,2.806,3.781a42.788,42.788,0,0,1,2.483,4.288,3.046,3.046,0,0,1,.338,2.23,2.926,2.926,0,0,1-1.3,1.761,2.867,2.867,0,0,1-1.5.417,2.9,2.9,0,0,1-2.5-1.377Zm765.172,75.627a2.985,2.985,0,0,1-2.593-3.3,57.01,57.01,0,0,1,1.28-5.924,15.4,15.4,0,0,1,2.017-4.577,8.656,8.656,0,0,1,.791-.937,5.239,5.239,0,0,1,1.224-1,4.511,4.511,0,0,1,2.186-.694,2.88,2.88,0,0,1,.558.054,8.623,8.623,0,0,1,0-1.26,4.256,4.256,0,0,1,.453-1.528,3.8,3.8,0,0,1,.978-1.185,3.361,3.361,0,0,1,2.555-.681,2.982,2.982,0,0,1,2.606,2.906,2.939,2.939,0,0,1-.351,1.411c.072.558.169,1.111.279,1.664a3.108,3.108,0,0,1-2.207,3.418,2.971,2.971,0,0,1-.827.115,3.193,3.193,0,0,1-1.61-.443,2.948,2.948,0,0,1-1.536,1.172c-.028.028-.054.056-.082.082-.077.1-.151.195-.223.3-.125.207-.243.417-.356.635-.187.438-.356.878-.512,1.329a46.452,46.452,0,0,0-1.175,4.964c-.054.3-.1.6-.156.9a3.1,3.1,0,0,1-1.08,1.956,2.983,2.983,0,0,1-1.871.658,3.181,3.181,0,0,1-.348-.026Zm19.121-19.8a3.109,3.109,0,0,1-1.185-1.976,15.439,15.439,0,0,1-.5-5.363,2.935,2.935,0,0,1,5.847.468c.161,1.349.371,2.693.556,4.04a3.011,3.011,0,0,1-2.522,3.377,2.935,2.935,0,0,1-.425.031,2.994,2.994,0,0,1-1.769-.576Zm109.432-25.249a3.077,3.077,0,0,1-2.66-3.382c.056-.586.11-1.173.218-1.751.084-.463.2-.914.289-1.375-.021.113-.044.228-.064.34a3.112,3.112,0,0,1,1.078-1.943,2.963,2.963,0,0,1,4.808,2.657c-.169.914-.195,1.874-.287,2.8a3.066,3.066,0,0,1-3.036,2.678q-.173,0-.346-.023Zm-22.815,15.813a2.946,2.946,0,0,1-2.552-3.251c.466-3.328.917-6.659,1.582-9.953.32-1.577.714-3.136,1.144-4.685.374-1.357.822-2.7,1.188-4.06a2.978,2.978,0,1,1,5.773,1.467c-1.18,5.3-2.527,10.56-3.54,15.892-.118.678-.236,1.354-.348,2.033a2.982,2.982,0,0,1-2.9,2.573,1.814,1.814,0,0,1-.351-.016Zm-20.582-3.768a70.64,70.64,0,0,1,.01-7.652,23.239,23.239,0,0,1,1.467-6.953,2.975,2.975,0,0,1,5.532,2.191c-.031.079-.064.159-.092.236-.061.22-.118.44-.169.663-.225,1.354-.335,2.719-.433,4.088-.1,1.439-.213,2.875-.3,4.314-.041,1.016-.074,2.03-.084,3.046a3,3,0,0,1-2.931,3h-.036a3,3,0,0,1-2.962-2.929Zm-17.354,4.91c-.724-2.821-1.487-5.627-2.015-8.489a27.316,27.316,0,0,1-.4-3.845,31.306,31.306,0,0,1,.269-4.037,2.979,2.979,0,1,1,5.916.709c-.008.087-.013.174-.02.261-.013.891.033,1.774.095,2.662.179,1.789.522,3.546.837,5.317.366,2.061.732,4.114,1.172,6.159a3.008,3.008,0,0,1-2.14,3.313,2.827,2.827,0,0,1-.8.113,3,3,0,0,1-2.911-2.163Zm-10.4,7.188a3.063,3.063,0,0,1-1.6-1.541q-.964-1.878-1.938-3.753a.592.592,0,0,1,.028.056c-2.888-5.514-5.732-11.11-7.363-17.147a2.974,2.974,0,0,1,4.3-3.425,3.1,3.1,0,0,1,1.4,1.728c-.015-.046-.033-.09-.049-.133,1.275,3.374,2.857,6.628,4.334,9.917,1.549,3.464,3,6.968,4.641,10.391a2.927,2.927,0,0,1-3.753,3.906Zm-17.795-1.533a63.908,63.908,0,0,1-3.663-6.523c-.492-1.083-.945-2.168-1.334-3.292a6.559,6.559,0,0,1-.4-4.319,3.073,3.073,0,0,1,5.437-.469,13.457,13.457,0,0,1,.655,1.528c.2.494.415.986.627,1.477.371.845.783,1.672,1.157,2.514.942,2.1,1.818,4.232,2.8,6.316a3.014,3.014,0,0,1-1.172,3.758,2.944,2.944,0,0,1-1.544.43,3,3,0,0,1-2.565-1.421Zm-10.176,8.509a3.114,3.114,0,0,0,2.8,1.807,2.978,2.978,0,0,0,1.206-.256,3.069,3.069,0,0,0,1.549-4.006c-.412-.983-.8-1.969-1.167-2.964a101.22,101.22,0,0,1-3.149-9.958c-.072-.361-.131-.719-.177-1.085-.005-.113-.01-.228-.013-.34a2.982,2.982,0,0,0-5.939-.5,21.4,21.4,0,0,0,.922,6.313c.259,1.147.573,2.319.942,3.436.41,1.244.829,2.488,1.324,3.7.527,1.3,1.1,2.583,1.7,3.853ZM233.405,609.994a3,3,0,0,1-1.664-3.848c.328-.868.7-1.715,1.047-2.575a2.952,2.952,0,1,1,5.489,2.176c-.361.86-.73,1.695-1.024,2.583a3,3,0,0,1-3.848,1.664ZM210.7,607.337a30.32,30.32,0,0,1-.814-5.734,43.921,43.921,0,0,1,.133-4.572c0-.054.005-.1.008-.156a3.077,3.077,0,0,1,.812-2.066,2.948,2.948,0,0,1,5.079,2,36.213,36.213,0,0,0,.049,3.945c.172,1.774.4,3.538.712,5.294a3.082,3.082,0,0,1-2.186,3.384,2.9,2.9,0,0,1-.812.113,3.045,3.045,0,0,1-2.98-2.209Zm-15.828,5.32a14.563,14.563,0,0,1-1.075-4.8,37.236,37.236,0,0,1,.187-3.781v-.049a2.966,2.966,0,1,1,5.931-.067c0,.947.044,1.9.092,2.839q.165,1.59.466,3.154c.049.2.1.41.151.614a3.108,3.108,0,0,1-1.708,3.656,3.11,3.11,0,0,1-4.045-1.567ZM179.343,624.12a32.457,32.457,0,0,1-3.1-4.27c-.863-1.48-1.649-2.985-2.394-4.526A46.569,46.569,0,0,1,172,610.762a22.188,22.188,0,0,1-1.38-8.064,2.942,2.942,0,0,1,5.883-.064c-.013.335-.005.668.01,1,.092.809.246,1.6.4,2.4.2.794.43,1.569.694,2.342a73.225,73.225,0,0,0,3.218,7.2,46.355,46.355,0,0,0,2.491,4.1c.192.256.384.51.579.763a2.966,2.966,0,0,1-.435,4.122,2.885,2.885,0,0,1-1.823.64,2.982,2.982,0,0,1-2.3-1.075Zm6.359,59.714a3.08,3.08,0,0,1-2.2-3.7c.177-.714.356-1.429.52-2.145.008-.046.013-.092.02-.141v-.023a2.961,2.961,0,0,1,5.921-.064,20.438,20.438,0,0,1-.55,3.876,3.043,3.043,0,0,1-2.993,2.294,3.164,3.164,0,0,1-.714-.092Zm-26.657,7.445a2.973,2.973,0,0,1-1.152-4.009c1.587-2.757,3.256-5.455,5.074-8.067,1.669-2.4,3.558-4.649,5.443-6.881a.344.344,0,0,0-.028.036l.031-.036a3.056,3.056,0,0,1,1.94-1.167,2.934,2.934,0,0,1,2.785,4.639c-.75.909-1.428,1.892-2.12,2.847q-1.236,1.7-2.473,3.418c-1.528,2.109-3.041,4.221-4.465,6.405-.343.553-.686,1.106-1.024,1.661a3.087,3.087,0,0,1-2.616,1.518,2.868,2.868,0,0,1-1.4-.364ZM5.407,681.3a3.122,3.122,0,1,1,3.156,3.087A3.15,3.15,0,0,1,5.407,681.3Zm24.1,5.781a3.084,3.084,0,0,1-1.408-1.766,51.245,51.245,0,0,1-1.687-5.112c-.236-1-.445-1.992-.6-3.005a13.532,13.532,0,0,1-.031-2.77c0-.026,0-.051.005-.077a3.087,3.087,0,0,1,.806-2.053,2.928,2.928,0,0,1,5.046,1.987,9.851,9.851,0,0,0,.008,1.029c.054.486.133.963.23,1.441.271,1.114.55,2.23.847,3.336.32,1.208.707,2.4,1.044,3.6a2.976,2.976,0,0,1-2.017,3.648,2.937,2.937,0,0,1-.814.115,2.976,2.976,0,0,1-1.431-.369Zm20.444-4.347a61.181,61.181,0,0,0-2.122-7.347c-.742-1.915-1.5-3.825-2.2-5.757.046.133.095.264.143.394-.09-.248-.179-.494-.269-.74-.018-.046-.033-.092-.049-.138l-.015-.046c-.044-.123-.09-.246-.133-.369-.036-.1-.069-.2-.1-.294-.084-.207-.161-.422-.241-.643-.622-1.728-1.229-3.474-1.733-5.235-.635-2.225-1.18-4.452-1.605-6.73a2.928,2.928,0,0,1,4.631-2.78,3.056,3.056,0,0,1,1.167,1.94c.023.12.049.243.074.364.284,1.272.581,2.545.975,3.791.463,1.467.952,2.916,1.457,4.367,1.011,2.762,2.071,5.512,3.059,8.284.532,1.5,1.006,3,1.423,4.531.466,1.708.812,3.459,1.144,5.2A2.882,2.882,0,0,1,53.5,684.69a2.748,2.748,0,0,1-.753.1,2.828,2.828,0,0,1-2.8-2.063Zm14.787.246a3.027,3.027,0,0,1-1.149-1.915c-.054-.251-.1-.5-.159-.748-1.119-4.971-2.547-9.864-3.82-14.794-.676-2.627-1.265-5.276-1.8-7.933-.241-1.178-.44-2.363-.627-3.548a32.385,32.385,0,0,1-.453-3.812,2.938,2.938,0,0,1,5.844-.453c.348,2.15.745,4.28,1.19,6.413.9,3.9,1.884,7.77,2.831,11.656Q68.094,674,69.31,680.23a2.908,2.908,0,0,1-2.445,3.277,2.779,2.779,0,0,1-.412.031,2.928,2.928,0,0,1-1.718-.563Zm11.51-6.1c-.01-1.06-.061-2.109-.136-3.164-.422-4.15-1.068-8.264-1.646-12.393-.609-4.355-1.172-8.717-1.879-13.061a2.918,2.918,0,0,1,5.775-.837q1.16,7.1,2.3,14.2c.381,2.348.781,4.7,1.083,7.06.164,1.283.307,2.565.361,3.858.059,1.428.046,2.849-.015,4.278a3.069,3.069,0,0,1-.809,2.048,2.946,2.946,0,0,1-2.081.906h-.031a2.956,2.956,0,0,1-2.921-2.89Zm17.531,9.293a2.908,2.908,0,0,1-2.5-3.185c.023-.307.044-.617.064-.924.3-6.3-.236-12.6-.507-18.893a174.813,174.813,0,0,1-.095-19.277c.008-.113.015-.223.026-.335a2.934,2.934,0,0,1,5.194-1.5,3.076,3.076,0,0,1,.632,2.2c0,.059-.008.118-.01.177a184.6,184.6,0,0,0,.44,18.665c.174,3.307.328,6.61.371,9.92.044,3.182-.108,6.372-.335,9.549-.028.369-.059.735-.092,1.1a2.882,2.882,0,0,1-2.865,2.522c-.1,0-.212-.01-.32-.023Zm10.342-2.314a3.129,3.129,0,0,1-2.232-3.753c1.236-5.466,2.4-10.944,3.556-16.425,1.111-5.266,2.324-10.514,3.786-15.7a2.941,2.941,0,0,1,5.7,1.449c-1.313,5.156-2.245,10.406-3.384,15.606-1.211,5.532-2.419,11.062-3.674,16.586a3.1,3.1,0,0,1-3.021,2.324,3,3,0,0,1-.732-.092Zm5.668,4.255a2.864,2.864,0,0,0,1.068.2,2.98,2.98,0,0,0,2.788-1.869c1.828-4.841,3.674-9.672,5.376-14.559.891-2.557,1.769-5.117,2.66-7.677.806-2.319,1.684-4.634,2.345-7a2.966,2.966,0,1,0-5.75-1.459c-.072.251-.146.5-.218.747-1.513,4.572-3.29,9.06-4.959,13.578-1.738,4.7-3.274,9.469-4.974,14.185a3,3,0,0,0,1.664,3.85Zm9.556,1.426a2.908,2.908,0,0,1-1.124-3.906c.7-1.349,1.364-2.708,2.017-4.078,1.329-2.893,2.609-5.806,3.937-8.7,1.313-2.867,2.65-5.734,3.674-8.719.072-.253.141-.507.2-.763a2.932,2.932,0,0,1,5.345-.809,3.071,3.071,0,0,1,.343,2.255,23.878,23.878,0,0,1-.591,2.368c.21-.481.4-.98.645-1.441a.043.043,0,0,1,0,.018,2.984,2.984,0,0,1,1.812-1.434,2.935,2.935,0,0,1,3.031.991c.911,1.131.722,2.47.356,3.763a24.65,24.65,0,0,1-.991,2.665c-.678,1.646-1.5,3.233-2.317,4.81a108.621,108.621,0,0,1-5.809,9.467,2.745,2.745,0,0,1-2.319,1.17,2.824,2.824,0,0,1-2.668-1.784q-.81,1.505-1.633,3a2.89,2.89,0,0,1-2.537,1.477,2.832,2.832,0,0,1-1.375-.351Zm17,1.367a3.046,3.046,0,0,0,1.789.566,2.753,2.753,0,0,0,2.107-.911c1.554-1.807,3.105-3.635,4.539-5.542,1.354-1.807,2.621-3.669,3.873-5.547q3.729-5.595,7.37-11.246a3.066,3.066,0,0,0,.535-2.153,2.925,2.925,0,0,0-5.253-1.311c-2.463,3.74-5.025,7.414-7.624,11.057-2.616,3.674-5.148,7.427-7.974,10.939a2.987,2.987,0,0,0,.637,4.15Zm884.706-251.832a3.132,3.132,0,1,1,3.167,3.1,3.16,3.16,0,0,1-3.167-3.1Zm129.907-5.161a3.155,3.155,0,1,1,3.19,3.121,3.183,3.183,0,0,1-3.19-3.121Zm-20.536,8.146a3.141,3.141,0,0,1-2.045-1.131,3.236,3.236,0,0,1-.668-2.322,13.666,13.666,0,0,1,.246-1.961,19.24,19.24,0,0,1,.576-2c.179-.538.412-1.06.63-1.582q.7-1.663,1.495-3.277c1.08-2.181,2.217-4.329,3.3-6.508a3.011,3.011,0,0,1,5.435,2.565c-.881,1.9-1.7,3.822-2.516,5.747-.433,1.016-.86,2.03-1.3,3.046-.466,1.08-.95,2.156-1.344,3.264-.133.445-.246.888-.343,1.344.026-.133.051-.266.074-.4-.033.166-.061.335-.095.5a3.276,3.276,0,0,1-1.129,2.045,3.139,3.139,0,0,1-1.964.691c-.123,0-.241-.01-.361-.023Zm-19.776,1.692a3.13,3.13,0,0,1-1.736-4.014c1.485-3.986,3-7.959,4.818-11.809.934-1.979,1.871-3.963,2.923-5.885,1.08-1.981,2.243-3.9,3.479-5.78a3,3,0,0,1,5.046,3.226c-1.18,1.912-2.179,3.914-3.162,5.931-1.252,2.673-2.47,5.361-3.691,8.046-1.285,2.824-2.534,5.66-3.666,8.55a3.122,3.122,0,0,1-2.9,1.948,3.01,3.01,0,0,1-1.109-.212Zm-19.356,4.237a2.984,2.984,0,0,1-2.575-3.277c.213-2.276.43-4.547.694-6.817.261-2.23.7-4.436,1.16-6.633a56.649,56.649,0,0,1,1.684-6.246c.335-1.006.668-2.017,1.05-3.008a14.864,14.864,0,0,1,1.887-3.8,2.986,2.986,0,0,1,4.995,3.256l-.067.1.064-.1c-.036.064-.072.125-.113.184a3.161,3.161,0,0,0-.194.41c.056-.115.11-.233.166-.348-.218.527-.4,1.065-.589,1.608-.919,3.013-1.659,6.062-2.319,9.144-.635,2.949-1.326,5.891-1.925,8.847-.243,1.365-.458,2.726-.64,4.1a2.99,2.99,0,0,1-2.934,2.6c-.112,0-.228-.008-.343-.02Zm-14.308-4.977c-.236-1.83-.44-3.663-.591-5.5-.141-1.669-.169-3.338-.164-5.013a67.382,67.382,0,0,1,.9-9.654,2.973,2.973,0,1,1,5.9.706c-.092.84-.159,1.679-.223,2.522-.125,2.532-.174,5.061-.2,7.6s0,5.087.172,7.629l.077.86a3.1,3.1,0,0,1-.545,2.184,2.989,2.989,0,0,1-1.966,1.18,2.822,2.822,0,0,1-.412.031,3,3,0,0,1-2.954-2.544Zm-16.166-6.349a32.351,32.351,0,0,1-1.313-5.691,37.007,37.007,0,0,1-.166-5.135,2.956,2.956,0,1,1,5.911-.069c0,.4.016.8.038,1.2.284,2.427.824,4.813,1.329,7.2.056.259.115.517.174.778a3.241,3.241,0,0,1-.266,2.363,3.117,3.117,0,0,1-1.859,1.482,3.081,3.081,0,0,1-.85.12,3.191,3.191,0,0,1-3-2.245Zm-11.223,7.616c-.427-.722-.827-1.454-1.183-2.217a20.953,20.953,0,0,1-.783-2.068,22.341,22.341,0,0,1-.85-3.945,3,3,0,0,1,4.744-2.849,3.118,3.118,0,0,1,1.188,1.964c.115.481.261.947.412,1.416.6,1.623,1.275,3.223,2.027,4.785a3.164,3.164,0,0,1-1.234,3.955,3.175,3.175,0,0,1-4.321-1.039ZM1034.6,440.5a3.06,3.06,0,0,0,3.364-4.564c-.712-1.249-1.423-2.5-2.176-3.732-.614-1-1.334-1.953-2.007-2.916-.661-.94-1.326-1.869-2.033-2.775a9.613,9.613,0,0,0-2.465-2.616,2.939,2.939,0,0,0-3.93,4.106c2.01,3.287,4.129,6.513,6.364,9.649.346.494.689.986,1.029,1.482a3.194,3.194,0,0,0,1.854,1.367ZM616.736,347.29a3.135,3.135,0,1,1,3.169,3.1,3.162,3.162,0,0,1-3.169-3.1Zm-22.538,6.95a3.178,3.178,0,1,1,3.213,3.144,3.205,3.205,0,0,1-3.213-3.144Zm-16.353,4.283a3.263,3.263,0,0,1-1.782-1.713,3.407,3.407,0,0,1-.051-2.522c.975-2.9,2.88-5.407,4.439-8.015a2.98,2.98,0,0,1,5.215,2.885c-.668,1.219-1.28,2.465-1.876,3.72.005-.008.008-.018.013-.026-.586,1.275-1.18,2.547-1.723,3.84a3.337,3.337,0,0,1-3.057,2.056,3.085,3.085,0,0,1-1.178-.225Zm-14.651.691a3.125,3.125,0,0,1-2.711-3.451,16.838,16.838,0,0,1,.515-2.642c.274-.84.55-1.651.9-2.463a30.978,30.978,0,0,1,2.03-3.807,67.121,67.121,0,0,1,4.869-6.981,2.979,2.979,0,0,1,4.8,3.525c-.433.581-.829,1.175-1.224,1.779-1.751,2.911-3.246,5.957-4.751,9-.356.829-.694,1.656-.983,2.511-.023.069-.044.141-.067.21a3.319,3.319,0,0,1-1.057,1.651,3.124,3.124,0,0,1-1.956.689,2.494,2.494,0,0,1-.366-.021Zm-20.38-3.594a22.1,22.1,0,0,1,.21-2.7c.133-.771.269-1.533.445-2.3a37.375,37.375,0,0,1,1.234-4.045c.461-1.306.947-2.6,1.446-3.889.458-1.18,1-2.319,1.487-3.487a2.977,2.977,0,0,1,5.535,2.194c-.4,1.16-.855,2.3-1.262,3.459-.545,1.754-1.029,3.52-1.49,5.3-.479,1.864-1.032,3.715-1.413,5.6-.013.064-.023.125-.036.189a3.338,3.338,0,0,1-.832,1.766,3.115,3.115,0,0,1-2.2.96h-.031a3.111,3.111,0,0,1-3.092-3.059Zm-11.7,1.746a46.161,46.161,0,0,1-.276-4.9,42.862,42.862,0,0,1,.338-4.618c.166-1.567.484-3.126.783-4.669a42.53,42.53,0,0,1,1.037-4.216,2.986,2.986,0,1,1,5.788,1.469c-.2.684-.366,1.372-.52,2.071-.558,3.392-.875,6.81-1.116,10.237-.069,1.39-.113,2.775-.077,4.168a3.015,3.015,0,0,1-2.563,3,2.727,2.727,0,0,1-.407.031,3.01,3.01,0,0,1-2.987-2.565Zm-16.9.374c-.7-1.172-1.359-2.36-1.964-3.589-.223-.456-.422-.922-.609-1.393a6.336,6.336,0,0,1-.581-2.2,2.947,2.947,0,0,1,5.238-1.884,11.5,11.5,0,0,1,.9,1.408q.392.641.776,1.283c.668,1.121,1.28,2.266,1.866,3.43a3.2,3.2,0,0,1-1.247,4,3.144,3.144,0,0,1-1.643.456,3.2,3.2,0,0,1-2.734-1.513Zm-8.924,4.621a3.342,3.342,0,0,1-1.948-1.436,26.314,26.314,0,0,1-2.312-4.15,17.288,17.288,0,0,1-.658-1.828,3.969,3.969,0,0,1-.179-1.682,2.925,2.925,0,0,1,.561-1.5,3.025,3.025,0,0,1,4.186-.643,5,5,0,0,1,1.4,2.069c.819,1.467,1.669,2.913,2.475,4.385a3.325,3.325,0,0,1,.371,2.465,3.208,3.208,0,0,1-3.116,2.419,3.109,3.109,0,0,1-.781-.1Zm-14.228,8.745a3.261,3.261,0,0,1-1.882-1.385c-.9-1.288-1.841-2.563-2.688-3.886q-1.206-1.885-2.353-3.809c-1.569-2.629-3.049-5.3-4.5-8.008a3.1,3.1,0,0,1-.343-2.276,2.963,2.963,0,0,1,5.4-.817c1.516,2.557,3.154,5.041,4.759,7.542.817,1.275,1.646,2.542,2.452,3.822.873,1.385,1.695,2.8,2.56,4.193a3.1,3.1,0,0,1-2.65,4.721,3.312,3.312,0,0,1-.76-.1Zm430.276,93.988c-1.05-1.761-2.028-3.566-2.987-5.379a3.141,3.141,0,0,1-.351-2.3,3,3,0,0,1,5.466-.827c1,1.787,2.1,3.517,3.22,5.235a3.161,3.161,0,0,1-1.037,4.314,3.163,3.163,0,0,1-4.311-1.039Zm-27.622-6.7a3.4,3.4,0,1,1,3.441,3.364,3.436,3.436,0,0,1-3.441-3.364Zm-11.236,5.642a3.138,3.138,0,0,0,1.149.215,3.091,3.091,0,0,0,2.793-1.626c.9-1.843,1.853-3.658,2.811-5.473,1.016-1.93,1.961-3.886,2.9-5.857-.008.018-.018.036-.026.054.028-.056.054-.115.082-.174,0,.008-.008.015-.01.023l.046-.1c1.208-2.55,2.453-5.079,3.553-7.677a3.025,3.025,0,1,0-5.624-2.227c-.113.266-.233.53-.348.794-1.474,2.967-3.169,5.814-4.754,8.722-1.626,2.977-2.947,6.126-4.344,9.216a3.176,3.176,0,0,0,1.776,4.109Zm-13.553-1.784a3.274,3.274,0,0,1-2.34-3.932q1.87-8.022,4.16-15.928c.773-2.678,1.71-5.3,2.67-7.921a49.07,49.07,0,0,1,3.284-7.258,3,3,0,0,1,5.248,2.9c-.133.261-.261.525-.389.791-.8,1.853-1.492,3.732-2.15,5.64-1.162,3.722-2.237,7.473-3.32,11.22-1.16,4.027-2.258,8.069-3.231,12.147a3.26,3.26,0,0,1-3.164,2.437,3.16,3.16,0,0,1-.768-.1Zm-16.571,6.1a2.8,2.8,0,0,0,.694.087,2.944,2.944,0,0,0,2.872-2.212c1.239-5.463,3.021-10.775,4.613-16.143,1.518-5.112,3.044-10.222,4.611-15.322,1.142-3.446,2.273-6.884,3.732-10.212a2.988,2.988,0,0,0-3.983-3.832,3.124,3.124,0,0,0-1.567,1.631c-1.17,2.5-2.276,5.036-3.215,7.631-.909,2.5-1.784,5.018-2.609,7.547l.031-.087c-.133.407-.264.814-.4,1.221.044-.133.084-.264.128-.4q-.549,1.686-1.1,3.374c.041-.136.087-.266.131-.4-1.249,3.845-2.419,7.729-3.425,11.643-1.009,3.935-1.853,7.918-2.639,11.9a3.067,3.067,0,0,0,.343,2.258,2.927,2.927,0,0,0,1.777,1.316Zm-12.644-.9a2.924,2.924,0,0,1-2.542-3.236q.841-5.034,1.669-10.076c.545-3.3,1.226-6.579,1.969-9.846.719-3.154,1.544-6.292,2.365-9.423a63.2,63.2,0,0,1,2.849-9.039,2.973,2.973,0,0,1,5.527,2.191c-.077.2-.148.4-.223.607-.881,2.821-1.523,5.716-2.176,8.6-.7,3.064-1.334,6.141-1.994,9.213-1.362,6.3-3.069,12.511-4.278,18.839a2.9,2.9,0,0,1-2.847,2.191,2.212,2.212,0,0,1-.32-.018Zm-16.33,2.271c.056-6.2-.044-12.393.136-18.588q.134-4.785.371-9.569c.084-1.764.171-3.525.282-5.284.046-.724.1-1.449.148-2.176a4.189,4.189,0,0,1,.64-2.468,3.082,3.082,0,0,1,2.391-1.226,3.016,3.016,0,0,1,2.373,1.114,3.784,3.784,0,0,1,.681,2.54c-.01.753-.023,1.508-.036,2.26q-.038,2.289-.087,4.57c-.069,3.31-.141,6.618-.233,9.928-.177,6.28-.548,12.552-.681,18.834a3.03,3.03,0,0,1-2.957,3.026h-.031a3.012,3.012,0,0,1-3-2.959ZM807.663,458.33a25.879,25.879,0,0,1-.863-10.708,3.142,3.142,0,0,1,1.1-1.984,3.013,3.013,0,0,1,4.885,2.7c-.018.161-.036.323-.051.484-.01.356-.01.707,0,1.062.259,2.383.747,4.744,1.142,7.107a3.2,3.2,0,0,1-2.271,3.515,3.1,3.1,0,0,1-.85.118,3.18,3.18,0,0,1-3.088-2.3Zm-12.452,7.3c-.448-1.027-.847-2.066-1.211-3.126-.276-.814-.471-1.651-.668-2.488a23.907,23.907,0,0,1-.6-5.722,3.012,3.012,0,1,1,6.024-.069c.013.276.033.553.054.829.051.325.1.653.151.978.264,1.106.584,2.181.942,3.264-.033-.1-.069-.195-.1-.292l.207.576c-.008-.02-.013-.038-.02-.059.1.289.21.579.312.868l-.154-.428c.374,1,.755,1.984,1.165,2.964a3.379,3.379,0,0,1-1.7,4.4,3.279,3.279,0,0,1-1.321.276,3.345,3.345,0,0,1-3.075-1.976Zm-12.127,7.982a24.488,24.488,0,0,1-2.33-4.3,23.359,23.359,0,0,1-.84-2.435,12.787,12.787,0,0,1-.425-3.484,3.031,3.031,0,0,1,6.062-.069c0,.141.005.279.01.417.02.136.044.271.064.407.1.4.22.786.353,1.172.609,1.51,1.293,2.985,2.028,4.439.115.21.23.42.348.627a3.131,3.131,0,0,1-1.021,4.247,2.99,2.99,0,0,1-1.577.448,3.221,3.221,0,0,1-2.673-1.47ZM762.85,480.41c-1.828-1.467-3.709-2.844-5.617-4.2-1.713-1.219-3.415-2.447-5.179-3.587-.279-.169-.558-.33-.842-.484a2.959,2.959,0,0,1-.233-5.752,5.164,5.164,0,0,1,3.318.448,29.186,29.186,0,0,1,4.416,2.537,80.634,80.634,0,0,1,8.072,6.344,3.076,3.076,0,0,1,.356,4.037,3.18,3.18,0,0,1-2.54,1.254,2.8,2.8,0,0,1-1.751-.6ZM484.758,550.628a3,3,0,1,1,3.036,2.962,3.028,3.028,0,0,1-3.036-2.962Zm-15.309-1.492a3.289,3.289,0,0,1-2.358-3.96c.62-2.235,1.533-4.349,2.3-6.533a3.033,3.033,0,0,1,5.76,1.861c-.645,2.074-1.124,4.193-1.746,6.272a3.354,3.354,0,0,1-3.162,2.46,3.111,3.111,0,0,1-.8-.1Zm-16.855-1.411a3.018,3.018,0,0,1-1.815-1.336,3.111,3.111,0,0,1-.348-2.3,52.339,52.339,0,0,1,1.316-5.381c.5-1.615,1.162-3.177,1.8-4.744a46.094,46.094,0,0,1,2.191-4.651c.417-.766.852-1.516,1.3-2.26.356-.586.73-1.157,1.034-1.769a2.994,2.994,0,0,1,5.24,2.9c-.085.172-.169.343-.253.517-1.167,2.573-2.25,5.184-3.346,7.787-1.139,2.711-2.291,5.437-3.233,8.23q-.127.422-.253.853a3.075,3.075,0,0,1-2.906,2.255,3.466,3.466,0,0,1-.73-.1Zm-15.076,11.2a2.708,2.708,0,0,0,.351.02,3.018,3.018,0,0,0,2.954-2.619c.146-1.065.317-2.12.5-3.179,1.249-6.469,2.982-12.839,4.562-19.233,1.59-6.441,3.228-12.884,5.158-19.231a2.985,2.985,0,0,0-5.668-1.833c-.294.814-.589,1.633-.865,2.455-2.179,6.495-4.122,13.1-5.719,19.76a176.226,176.226,0,0,0-3.868,20.552,3,3,0,0,0,2.6,3.308Zm-14.938,2.153a3.008,3.008,0,0,1-2.6-3.31c.763-6.751,1.39-13.517,2.278-20.252.448-3.389.978-6.771,1.533-10.145.253-1.531.52-3.059.778-4.59.261-1.562.545-3.126.684-4.7v-.005a3,3,0,0,1,6-.069,31.763,31.763,0,0,1-.5,4.342c-.225,1.623-.453,3.246-.655,4.869-.415,3.351-.812,6.7-1.254,10.051-.883,6.664-1.961,13.3-2.788,19.965-.054.415-.1.829-.154,1.244a3.016,3.016,0,0,1-2.962,2.621,2.617,2.617,0,0,1-.348-.018Zm-22.8,3.692c-.689-5.834-1.3-11.679-1.6-17.546-.151-2.936-.251-5.867-.256-8.8s.061-5.9.079-8.85a2.984,2.984,0,0,1,5.967-.069c.031,5.146.115,10.289.358,15.424.236,4.931.509,9.866.891,14.784l-.031-.4c.133,1.539.274,3.072.443,4.608a2.994,2.994,0,0,1-2.5,3.346,2.683,2.683,0,0,1-.4.028,2.966,2.966,0,0,1-2.944-2.524Zm-17.047.832a59.348,59.348,0,0,1-1.472-9.523c-.084-1.521-.1-3.028-.064-4.547a18.793,18.793,0,0,1,.62-4.483,2.965,2.965,0,0,1,5.747,1.459c-.018.064-.031.125-.046.189-.072.5-.125.991-.172,1.49-.054,1.943.031,3.863.169,5.8a76.813,76.813,0,0,0,1.121,8.338,3.043,3.043,0,0,1-2.161,3.346,2.857,2.857,0,0,1-.794.11,2.985,2.985,0,0,1-2.949-2.181Zm-13.706,6.961a44.325,44.325,0,0,1-1.825-10.038c-.046-.822-.082-1.641-.092-2.465-.008-.9.038-1.779.087-2.675a16.746,16.746,0,0,1,.31-2.424,16.27,16.27,0,0,1,.781-2.862,2.978,2.978,0,0,1,5.619,1.956l.008-.023c0,.01-.005.018-.008.026-.02.069-.041.141-.064.21-.074.251-.138.5-.2.758-.12.806-.21,1.6-.284,2.414-.015.853-.028,1.7,0,2.552.033.827.084,1.649.143,2.47.2,2.248.474,4.472.891,6.692q.192.872.412,1.743a3.046,3.046,0,0,1-2.061,3.722,2.978,2.978,0,0,1-.814.115,3.04,3.04,0,0,1-2.908-2.171ZM356.057,577.1a3.3,3.3,0,0,1-1.725-1.659,14.2,14.2,0,0,1-1.188-2.967,10.04,10.04,0,0,1-.376-3.7c0-.018,0-.036.005-.054v.018c.005-.041.013-.079.018-.12l-.015.077c.015-.113.036-.22.061-.328,0-.008,0-.018.005-.026s0,.01,0,.015a2.96,2.96,0,0,1,5.834.471c.013.079.028.161.046.241.174.7.4,1.39.645,2.074.228.591.471,1.172.742,1.748a3.149,3.149,0,0,1-2.89,4.429,3.119,3.119,0,0,1-1.16-.22Zm-14.2,4.385a85.293,85.293,0,0,1-3.43-10.424c-.458-1.774-.812-3.579-1.18-5.373a44.222,44.222,0,0,1-.755-4.705,3.073,3.073,0,0,1,.543-2.176,2.961,2.961,0,0,1,5.317,1.329c.159,1.131.412,2.253.653,3.371a141.8,141.8,0,0,0,3.955,14.961c.082.22.161.44.243.66a3.059,3.059,0,0,1,.046,2.258,2.934,2.934,0,0,1-1.536,1.6,2.957,2.957,0,0,1-3.855-1.5ZM246.272,449.931c-.074-.489-.123-.98-.161-1.472,0-.02,0-.041-.005-.064l-.008-.115c-.005-.049-.008-.1-.01-.146,0,.041.005.079.01.118a2.969,2.969,0,0,1,.54-1.981,2.888,2.888,0,0,1,5.187,1.293c.038.282.082.561.136.837l.069.289a3.054,3.054,0,0,1-.253,2.245,2.959,2.959,0,0,1-1.766,1.408,2.877,2.877,0,0,1-.8.113,2.993,2.993,0,0,1-2.939-2.524Zm-9.695-.822a3.092,3.092,0,0,1-2.67-3.4,15.574,15.574,0,0,1,.6-3.1c.184-.591.4-1.167.625-1.746.282-.737.589-1.462.9-2.189.591-1.38,1.236-2.732,1.882-4.088.01-.026.023-.049.033-.074.023-.049.046-.1.072-.146-.031.064-.059.125-.09.187l.092-.192a3.042,3.042,0,0,1,1.485-1.472,2.968,2.968,0,0,1,3.96,3.809c-1.121,2.66-2.181,5.358-3.09,8.1a20.7,20.7,0,0,0-.481,2.02,3.053,3.053,0,0,1-2.993,2.3,2.392,2.392,0,0,1-.33-.015Zm-20.815,3.384a86.508,86.508,0,0,1,1-13.146c.381-2.276.791-4.539,1.247-6.8.215-1.062.489-2.117.753-3.169.118-.474.246-.942.374-1.413a6.057,6.057,0,0,1,.558-1.618,2.986,2.986,0,0,1,5.486.62,4.5,4.5,0,0,1,.013,2.04c-.079.571-.207,1.134-.312,1.7q-.311,1.647-.62,3.292c-.02.108-.041.215-.061.32-.028.154-.056.312-.087.469.005-.028.01-.056.018-.084-.09.474-.177.95-.266,1.423.015-.09.033-.179.051-.269l-.023.131.015-.079q-.722,3.978-1.393,7.967a77.5,77.5,0,0,0-.955,7.8c-.013.251-.023.5-.031.755a3.018,3.018,0,0,1-.8,2.02,2.9,2.9,0,0,1-2.053.893h-.036a2.9,2.9,0,0,1-2.88-2.847Zm-15.455,2.355c.164-3.18.325-6.357.466-9.539.141-3.121.256-6.246.509-9.354q.388-4.719.922-9.418.25-2.173.525-4.344c.192-1.505.433-3.005.622-4.511,0,.026,0,.054-.005.079a2.955,2.955,0,0,1,5.9.238c0,1.413-.133,2.821-.243,4.227q-.177,2.235-.364,4.47-.407,4.881-.858,9.754c-.282,3.016-.617,6.026-.929,9.039-.333,3.218-.586,6.443-.786,9.669a2.9,2.9,0,0,1-2.836,2.547H203.2a2.9,2.9,0,0,1-2.89-2.857Zm-11.476,1.728c.187-6.715.059-13.432.161-20.15q.077-4.892.12-9.787c.031-3.407.12-6.83-.054-10.237-.008-.079-.013-.156-.02-.236a2.971,2.971,0,0,1,.113-2.647,3.3,3.3,0,0,1,1.477-1.352,3.023,3.023,0,0,1,3.773,1.178,8.774,8.774,0,0,1,.929,4.032c.064.881.143,1.759.179,2.639.079,1.864.128,3.722.164,5.589.069,3.428-.026,6.866-.074,10.294-.095,6.531-.525,13.053-.791,19.579-.013.343-.028.691-.044,1.034a3.1,3.1,0,0,1-.817,2.081,2.993,2.993,0,0,1-2.115.919H191.8a2.991,2.991,0,0,1-2.972-2.936Zm-14.126-3.73c.087-5.4-.125-10.783-.161-16.177-.031-5.266.123-10.547-.179-15.805a3.04,3.04,0,0,1-.026-2.163,2.806,2.806,0,0,1,.2-.425,2.948,2.948,0,0,1,2.9-1.485,3.18,3.18,0,0,1,1.462.561,3.471,3.471,0,0,1,1.1,1.513,11.316,11.316,0,0,1,.594,2.957c.207,1.469.31,2.98.4,4.462.174,3.005.292,6.006.294,9.014.005,5.832-.4,11.658-.607,17.485a3.032,3.032,0,0,1-2.954,3.023h-.036a3.013,3.013,0,0,1-2.985-2.959Zm-12.283,5.686c-.4-1.595-.753-3.195-1.08-4.805a34.061,34.061,0,0,1-.594-3.8,81.866,81.866,0,0,1-.317-8.824c.056-2.959.2-5.916.476-8.868.12-1.306.269-2.609.507-3.9a8.232,8.232,0,0,1,1.147-3.471,3.131,3.131,0,0,1,2.911-1.336,3,3,0,0,1,2.586,3.292,2.919,2.919,0,0,1-.315,1,.524.524,0,0,0-.013.061c-.177,1.313-.274,2.629-.374,3.947-.156,3.264-.218,6.52-.259,9.787-.038,3.218-.177,6.433-.018,9.649a57.2,57.2,0,0,0,.914,6.07,2.863,2.863,0,0,1-2.035,3.154,2.737,2.737,0,0,1-.76.1,2.853,2.853,0,0,1-2.775-2.063ZM148.593,462.1a3.045,3.045,0,0,1-.893-2.051q-.173-2.246-.323-4.493c-.092-1.413-.2-2.831-.228-4.25-.046-3.029.09-6.042.243-9.068.148-2.913.428-5.816.786-8.709a32.431,32.431,0,0,1,1.861-7.946,2.944,2.944,0,0,1,5.473,2.168c-.049.123-.095.246-.141.369-.12.43-.218.863-.31,1.3a116.151,116.151,0,0,0-1.254,12.713c-.131,2.885-.215,5.77-.317,8.66-.11,3.067-.177,6.121-.033,9.19a2.9,2.9,0,0,1-2.844,2.911h-.028a2.936,2.936,0,0,1-1.992-.8Zm-9.93,1.923q-.66-4.689-1.359-9.362c-.43-2.885-.86-5.773-1.167-8.673-.328-3.082-.609-6.17-.753-9.267-.064-1.441-.136-2.883-.138-4.326,0-.8-.013-1.613.013-2.417a5.042,5.042,0,0,1,.417-2.332,2.961,2.961,0,0,1,2.547-1.523,2.908,2.908,0,0,1,2.547,1.411,6.44,6.44,0,0,1,.5,2.964c.026.732.044,1.464.084,2.2q.131,2.346.307,4.687c.381,4.17.873,8.325,1.3,12.49.451,4.442.893,8.886,1.462,13.312a2.943,2.943,0,0,1-2.46,3.3,2.706,2.706,0,0,1-.4.028,2.939,2.939,0,0,1-2.89-2.486Zm-14.085,4.723c-.947-5.187-1.907-10.4-2.493-15.642-.315-2.816-.553-5.629-.609-8.463-.054-2.578.1-5.148.2-7.721a3.084,3.084,0,0,1,.814-2.066,2.946,2.946,0,0,1,5.076,2c.015,3.029.146,6.052.328,9.075.31,3.587.717,7.158,1.1,10.737.4,3.755.891,7.493,1.528,11.215a3.026,3.026,0,0,1-2.54,3.4,3.133,3.133,0,0,1-.433.031,3.058,3.058,0,0,1-2.967-2.57ZM112.9,471.363c-1.068-3.453-2.263-6.866-3.269-10.335-.474-1.62-.881-3.264-1.316-4.892-.2-.75-.4-1.5-.594-2.253-.128-.5-.253-1-.371-1.5a4.535,4.535,0,0,1-.166-1.746,2.938,2.938,0,0,1,5.422-1.185,5.2,5.2,0,0,1,.509,1.119c.2.527.384,1.057.568,1.59.256.735.492,1.475.727,2.214.509,1.608,1.042,3.215,1.51,4.838,1,3.469,1.823,6.991,2.778,10.476a3.051,3.051,0,0,1-2.066,3.735,2.948,2.948,0,0,1-.819.118,3.085,3.085,0,0,1-2.913-2.184ZM104.94,477.2a2.928,2.928,0,0,0,2.778,2.081,2.865,2.865,0,0,0,.783-.11,2.917,2.917,0,0,0,1.971-3.564c-.535-2.135-1.011-4.28-1.492-6.426-.456-2.022-.988-4.022-1.523-6.026s-1.091-3.986-1.651-5.972q-.422-1.49-.84-2.977c-.141-.509-.274-1.019-.412-1.528-.1-.381-.164-.783-.289-1.157a2.988,2.988,0,0,0-2.852-2.122,2.952,2.952,0,0,0-2.811,2.212,8.327,8.327,0,0,0,.236,3.466c.261,1.211.53,2.414.814,3.617.484,2.058,1.052,4.1,1.608,6.134.527,1.94,1.037,3.891,1.631,5.814.673,2.189,1.385,4.367,2.051,6.559Zm-11.044.9a3.149,3.149,0,0,1-1.441-1.807c-.192-.553-.389-1.1-.586-1.651-.627-1.677-1.29-3.338-1.907-5.018q-.492-1.336-.952-2.685a6.645,6.645,0,0,1-.553-3.029,2.9,2.9,0,0,1,2.045-2.4,2.855,2.855,0,0,1,3.011.947,14.623,14.623,0,0,1,1.418,2.8c.389.9.773,1.813,1.114,2.734.8,2.189,1.523,4.4,2.225,6.625a3.043,3.043,0,0,1-2.068,3.74,3.043,3.043,0,0,1-2.3-.259Z" transform="translate(8.673 -330.544)" fill="#e0f555" fill-rule="evenodd"/>
  <path id="Trazado_13" data-name="Trazado 13" d="M42.95,514.059c-.658-.01-1.329-.051-1.981-.123a34.13,34.13,0,0,1-3.666-.6,35.092,35.092,0,0,1-3.658-1.06,26.084,26.084,0,0,1-2.7-1.114,11.349,11.349,0,0,1-3.564-2.732,6.5,6.5,0,0,1-1.5-3.315,6.676,6.676,0,0,1,.028-1.956,7.7,7.7,0,0,1,.765-2.184,8.377,8.377,0,0,1,2.2-2.557,15.427,15.427,0,0,1,1.462-1.044,7,7,0,0,1,4.334-1.326,3.183,3.183,0,0,1,2.668,2.271c.023.077.041.154.056.23a16.2,16.2,0,0,1,3.825.5,9.624,9.624,0,0,1,1.946-.2,11.219,11.219,0,0,1,5.1,1.213,8.124,8.124,0,0,1,1.928,1.377,5.1,5.1,0,0,1,1.441,2.959,3.972,3.972,0,0,1-.192,1.887,5.257,5.257,0,0,1,.351,2.555,5.013,5.013,0,0,1-1.37,2.89,5.909,5.909,0,0,1-1.27,1.029,11.738,11.738,0,0,1-2.033.863,12.225,12.225,0,0,1-3.622.44l-.545-.005ZM778.8,392.956a7.829,7.829,0,0,1-2.97-1.695c-.248-.261-.5-.527-.737-.794a6.169,6.169,0,0,1-1-1.92,6.341,6.341,0,0,1-.279-2.844,5.951,5.951,0,0,1,1.257-2.89,6.978,6.978,0,0,1,2.606-2,11.829,11.829,0,0,1,5.5-1.006,14.542,14.542,0,0,1,3.676.425l-.087-.01a4.452,4.452,0,0,1,2.058,7.588,6.042,6.042,0,0,1-1.523,3.459,7.376,7.376,0,0,1-5.476,2.271c-.054,0-.1,0-.159,0a8.589,8.589,0,0,1-2.862-.589Zm-98.788,4.278a8.331,8.331,0,0,1,4.7,4.247,7.183,7.183,0,0,1-1.628,8.594,7.992,7.992,0,0,1-5.53,2.02,17.159,17.159,0,0,1-7-1.8,8.611,8.611,0,0,1-2.266.3q-.181,0-.361-.008a12.54,12.54,0,0,1-3.587-.727,9.514,9.514,0,0,1-3.712-2.127,7.576,7.576,0,0,1-2.225-4.022,7.291,7.291,0,0,1,.671-4.523,10.41,10.41,0,0,1,6.592-5.107c1.219-.346,2.442-.635,3.686-.883a25.685,25.685,0,0,1,6.085-.492,4.73,4.73,0,0,1,3.172,1.249,4.542,4.542,0,0,1,1.4,3.223v.054ZM402.12,574.49c-1.861-.018-3.712-.131-5.565-.3-3.858-.343-9.029-1.976-9.085-6.669a4.828,4.828,0,0,1,.128-1.149,5.414,5.414,0,0,1-.174-1.313,5.646,5.646,0,0,1,5.535-5.66,5.458,5.458,0,0,1,.919.077,9.593,9.593,0,0,1,1.882-.983,12.455,12.455,0,0,1,8.379,0,21.622,21.622,0,0,1,7.081,3.517c2.04,1.669,3.456,4.324,2.77,7.014a7.062,7.062,0,0,1-5.322,4.964,19.505,19.505,0,0,1-5.074.509c-.492-.005-.986-.01-1.472-.013Zm-123.32,23.4a7.648,7.648,0,0,1-5.788-4.252,7.293,7.293,0,0,1-.525-3.794c.317-2.647,2.225-4.687,4.349-6.1,2.609-1.728,5.893-1.948,8.919-2.168a17.965,17.965,0,0,1,6.377.719,10.415,10.415,0,0,1,6.021,4.311,6.693,6.693,0,0,1,.97,3.395,6.088,6.088,0,0,1-.788,3.21,7.81,7.81,0,0,1-1.946,2.23,8.4,8.4,0,0,1-3.205,1.454,18.764,18.764,0,0,1-4.611.381c-.192.061-.384.12-.581.177a17.1,17.1,0,0,1-2.949.463c-1.016.1-2.038.174-3.059.213-.177.008-.356.01-.532.01a14.346,14.346,0,0,1-2.652-.251Zm71.283-29.9a6.1,6.1,0,0,1-2.532-2.555,5.5,5.5,0,0,1-1.037-3.141,5.654,5.654,0,0,1,4.024-5.409c.187-.061.379-.118.573-.161a6.206,6.206,0,0,1,1.912-.31l-.522.041h.01a4.729,4.729,0,0,1,3.308.824,4.474,4.474,0,0,1,1.16,1.254,6.426,6.426,0,0,1,1.667,4.946,5.668,5.668,0,0,1-2.8,4.4,6.341,6.341,0,0,1-3.026.8,5.884,5.884,0,0,1-2.739-.691Zm-34.437-8.8a11.809,11.809,0,0,1-3.264-1.037,9.71,9.71,0,0,1-1.375-.845,9.4,9.4,0,0,1-1.372-1.354,7.305,7.305,0,0,1-.988-1.692,5.223,5.223,0,0,1-.458-1.9,7.186,7.186,0,0,1,.991-4.413c2.194-3.73,6.853-4.751,10.877-4.567a32.263,32.263,0,0,1,5.478.581,15.934,15.934,0,0,1,2.609.271A16.789,16.789,0,0,1,332.3,545.7a7.016,7.016,0,0,1,3.924,5.14,6.041,6.041,0,0,1-.635,3.553,7.193,7.193,0,0,1-2.57,2.688,10.818,10.818,0,0,1-3.154,1.3,17.38,17.38,0,0,1-2.632.509q-1.39.161-2.788.292c-1.677.154-3.377.3-5.071.3a22.434,22.434,0,0,1-3.727-.289ZM532.173,404.447c-.046-.1-.092-.21-.136-.317l-.389.154.218.077c.1.031.2.059.307.087Zm17.546-11.735a4.5,4.5,0,0,1,2.1,3.313,4.563,4.563,0,0,1,2.657,1.731,10.226,10.226,0,0,1,.911,1.459c.051.033.1.069.151.1a7.764,7.764,0,0,1,3.594,6.3,7.488,7.488,0,0,1-3.026,5.7,14.767,14.767,0,0,1-6.51,2.783,50.178,50.178,0,0,1-5.348.735c-2.094.2-4.2.328-6.3.328a35.433,35.433,0,0,1-11.374-1.677,14.359,14.359,0,0,1-5.757-3.5,9.434,9.434,0,0,1-1.979-3.069,8.934,8.934,0,0,1-.489-4.267,9.424,9.424,0,0,1,3.456-5.957,16.214,16.214,0,0,1,5.414-2.819,56.973,56.973,0,0,1,10.15-2.171c1.928-.241,3.848-.415,5.788-.507.73-.036,1.467,0,2.2.038a7.388,7.388,0,0,1,3.446.786,4.773,4.773,0,0,1,.922.694ZM467,464.725a9.431,9.431,0,0,1-5.376-2.511,6.549,6.549,0,0,1-1.336-7.462,8.188,8.188,0,0,1,5.517-4.526,11.261,11.261,0,0,1,5.312.072,9.085,9.085,0,0,1,4.421,2.133,5.154,5.154,0,0,1,1.275,5.2,6.694,6.694,0,0,1-4.078,6.541,8.549,8.549,0,0,1-3.105.694h-.151a18.639,18.639,0,0,1-2.478-.143ZM282.384,404.762a5.22,5.22,0,0,1-2.135-3.238,5.8,5.8,0,0,1,.906-4.813,5.266,5.266,0,0,1,.42-.5.149.149,0,0,1,.02-.021l.005-.005.031-.033c1.91-2.012,4.621-2.266,7.155-1.669a4.488,4.488,0,0,1,2.294,7.926,5.739,5.739,0,0,1-4.39,3.466,5.332,5.332,0,0,1-.824.064,6.219,6.219,0,0,1-3.482-1.172Zm3.948-26.5A23.861,23.861,0,0,1,279.5,376.4c-2.2-1.006-4.6-2.683-5.527-5.018a8.181,8.181,0,0,1-.727-3.935,8.052,8.052,0,0,1,1.252-3.622,9.827,9.827,0,0,1,5.806-3.978,15.618,15.618,0,0,1,3.428-.507,14.342,14.342,0,0,1,6.031-1.111,34.9,34.9,0,0,1,6.228.719,47.039,47.039,0,0,1,5.373,1.485c.832.279,1.649.589,2.468.909a17.529,17.529,0,0,1,2.524,1.252,13.075,13.075,0,0,1,3.139,2.634,7.3,7.3,0,0,1,1.434,6.538c-.643,2.453-2.614,4.047-4.815,5.069a17.863,17.863,0,0,1-5.028,1.262c-.932.128-1.874.22-2.813.282-1.539.1-3.072.184-4.613.213-.456.008-.911.013-1.367.013a45.56,45.56,0,0,1-5.965-.341Zm-92.526,53.263a6.11,6.11,0,0,1-2.99-1.912,5.523,5.523,0,0,1-1.134-4.081,5.6,5.6,0,0,1,3.553-4.431,5.691,5.691,0,0,1,1.482-1.316,5.934,5.934,0,0,1,4.383-.663,7.5,7.5,0,0,1,5.207,4.04,5.7,5.7,0,0,1,.515,3.415,5.792,5.792,0,0,1-2.068,3.686,7.866,7.866,0,0,1-2.611,1.324,11.038,11.038,0,0,1-2.839.328l-.251,0a10.853,10.853,0,0,1-3.246-.392ZM60.194,483.385a6.909,6.909,0,0,1-.55-6.136A7.944,7.944,0,0,1,64,473.014a8.462,8.462,0,0,1,2.514-.645,5.868,5.868,0,0,1,3.379-2.721,12.3,12.3,0,0,1,3.927-.55,13.872,13.872,0,0,1,3.264.538c3.62.937,7.306,3.54,7.913,7.46a7.75,7.75,0,0,1-1.347,5.8,11.479,11.479,0,0,1-4.032,3.282,19.216,19.216,0,0,1-8.945,1.864C66.886,488.036,62.3,486.828,60.194,483.385Z" transform="translate(40.518 -296.972)" fill="#fffee0" fill-rule="evenodd"/>
  <path id="Trazado_14" data-name="Trazado 14" d="M108.065,506.023a9.579,9.579,0,0,1-4.293-1.4,5.254,5.254,0,0,1-1.948-6.251,5.074,5.074,0,0,1,2.793-2.8c.067-.148.138-.294.215-.433a7.892,7.892,0,0,1,6.159-3.753,15.538,15.538,0,0,1,8.261,1.828,7.782,7.782,0,0,1,4.255,4.744,5.963,5.963,0,0,1-.164,3.707,6.794,6.794,0,0,1-2.593,2.993,7.949,7.949,0,0,1-2.555,1.011,13.689,13.689,0,0,1-2.207.369c-1.014.092-2.025.159-3.041.174-.44.008-.886.015-1.331.015a25.284,25.284,0,0,1-3.551-.21Zm896.182-99.169a5.431,5.431,0,1,1,5.494,5.366,5.479,5.479,0,0,1-5.494-5.366Zm-84.426-29.617a17.065,17.065,0,0,1-5.133-1.981c-2.749-1.49-5.1-4.006-5.076-7.3a6.7,6.7,0,0,1,2.038-4.659,7.951,7.951,0,0,1,4.5-2.122,13.855,13.855,0,0,1,4.5.264c1.08.2,2.143.466,3.22.681a3.925,3.925,0,0,1,1.987,1.065c.863.041,1.723.072,2.588.092a4.46,4.46,0,0,1,.1,8.919l-.53.031a5.793,5.793,0,0,1-.453,1.449,5.924,5.924,0,0,1-3.228,3.131,8.094,8.094,0,0,1-3,.561,9.252,9.252,0,0,1-1.505-.13Zm-298.81,19.11a11.928,11.928,0,0,1-3.789-2.248,5.863,5.863,0,0,1-1.623-6.6,5.271,5.271,0,0,1,5.381-3.182,5.177,5.177,0,0,1,1.477.392,5.77,5.77,0,0,1,2.557-1.073,6.571,6.571,0,0,1,3.436.31,6.905,6.905,0,0,1,3.182,2.6,7.071,7.071,0,0,1-.164,7.949,7.527,7.527,0,0,1-5.934,2.906q-.138.008-.276.008a11.95,11.95,0,0,1-4.247-1.065Zm46.5,63.915a6.833,6.833,0,0,1-2.007-3.889,5.991,5.991,0,0,1,2.58-5.914,6.562,6.562,0,0,1,3.843-1.068,9.729,9.729,0,0,1,1.4.184h.01a4.481,4.481,0,0,1,3.909,4.357,4.361,4.361,0,0,1-.082.878,5.56,5.56,0,0,1-.471,4.357.1.1,0,0,0-.018.028,5.769,5.769,0,0,1-4.147,2.867,5.6,5.6,0,0,1-.8.059,5.726,5.726,0,0,1-4.221-1.861Zm-43.676,34.885a34.3,34.3,0,0,1-7.155-1.385c-1.265-.353-2.506-.8-3.743-1.247-2.916-1.073-6.116-2.68-7.793-5.422a6.487,6.487,0,0,1-.863-4.759,5.824,5.824,0,0,1,2.9-3.814c1.656-.927,3.451-.8,5.263-.84a4.378,4.378,0,0,1,2.821.968,8.408,8.408,0,0,1,3.428-1.71,13.724,13.724,0,0,1,6.989.338c4.677,1.341,9.692,5.087,9.037,10.527a7.989,7.989,0,0,1-3.63,5.622,11.662,11.662,0,0,1-6.385,1.751c-.287,0-.576-.01-.868-.028ZM130.888,650.09a8.678,8.678,0,0,1-3.8-1.966A6.874,6.874,0,0,1,124.941,644c-.479-3.369,1.925-6.5,4.867-7.857a20.017,20.017,0,0,1,5.427-1.487c1.321-.194,2.642-.32,3.973-.41a14.315,14.315,0,0,1,2.693.036,4.817,4.817,0,0,1,.545.079c.072.013.146.026.218.041l-.082-.01a4.448,4.448,0,0,1-.361,8.732c-.422.084-.85.143-1.277.207a6.328,6.328,0,0,1-.018,1.265,6.5,6.5,0,0,1-2.378,4.237,7.624,7.624,0,0,1-4.9,1.618,11.752,11.752,0,0,1-2.762-.361ZM29.161,597.32c-3.635-.021-7.511-.346-10.629-2.37a7.892,7.892,0,0,1-3.766-6.3,7.766,7.766,0,0,1,1.316-4.372,8.994,8.994,0,0,1,7.621-3.876,11.539,11.539,0,0,1,2.276-.676,19.117,19.117,0,0,1,6-.092,13.324,13.324,0,0,1,6.525,2.547,8.555,8.555,0,0,1,3.351,5.944,7.915,7.915,0,0,1-.509,3.622,8.542,8.542,0,0,1-2.565,3.307c-1.838,1.549-4.411,2.035-6.738,2.179-.883.054-1.764.079-2.647.079-.079.005-.159,0-.238,0ZM138.77,446.545c-1.032-.12-2.061-.261-3.08-.474a14.886,14.886,0,0,1-5.627-2.207,13.7,13.7,0,0,1-2.555-2.4c-.381-.458-.709-.957-1.044-1.446a6.888,6.888,0,0,1-1.006-2.189,9.452,9.452,0,0,1-.238-3.249,6.613,6.613,0,0,1,1-2.737,8.182,8.182,0,0,1,2.4-2.386,11.321,11.321,0,0,1,1.779-.891c.087-.041.177-.079.264-.12a4.517,4.517,0,0,1,5.55,1.618,15.573,15.573,0,0,1,1.9-.289c4.477-.412,9.608.827,12.1,4.9a6.618,6.618,0,0,1,.3,6.594,10.27,10.27,0,0,1-4.959,4.291,13.127,13.127,0,0,1-5.233,1.078A14.381,14.381,0,0,1,138.77,446.545Z" transform="translate(23.273 -292.518)" fill="#ffb8a3" fill-rule="evenodd"/>
</svg>
