<svg id="Grupo_15" data-name="Grupo 15" xmlns="http://www.w3.org/2000/svg" width="1919.998" height="495.771" viewBox="0 0 1919.998 495.771">
  <path id="Trazado_7" data-name="Trazado 7" d="M-.085,789.863-.093,432.531V417.978q3.867-.714,7.736-1.421c6.682-1.224,13.33-2.609,19.983-3.971,6.828-1.4,13.67-2.732,20.511-4.068,6.561-1.28,13.1-2.667,19.663-3.9q9.965-1.874,19.912-3.814c6.666-1.313,13.35-2.534,20.011-3.881.62-.125,1.239-.253,1.861-.379q18.486-5.249,37.2-9.669c9.2-2.186,18.427-4.227,27.656-6.282q11.251-2.508,22.5-4.992a4.663,4.663,0,0,1,.737-.161q3.521-.776,7.04-1.544c19.9-4.347,39.928-8.269,60.068-11.359,19.4-2.977,38.873-5.448,58.378-7.616,8.668-.965,17.344-1.828,26.017-2.734,9.4-.986,18.8-2.022,28.2-2.987q14.219-1.455,28.454-2.716c9.672-.86,19.361-1.554,29.046-2.253,18.609-1.344,37.23-2.452,55.833-3.807l-.648.054c21.663-1.715,43.3-3.645,64.957-5.478,20.782-1.756,41.618-2.911,62.459-3.656,20.577-.735,41.17-1.239,61.757-1.733,20.977-.5,41.958-.891,62.943-1.039q53.568-.38,107.143-.218c16.3.054,32.614.486,48.886,1.554,9.393.614,18.78,1.28,28.17,1.92,8.586.584,17.18,1.047,25.771,1.516,20.188,1.016,40.389,1.761,60.593,2.486q31.438,1.129,62.9,1.523c21.66.279,43.318.5,64.978.781q31.058.4,62.116.443,16.378.046,32.75-.074c10.639-.077,21.279-.32,31.918-.566,10.5-.243,20.992-.571,31.488-.886,10.342-.312,20.687-.6,31.027-1.019,10.732-.435,21.463-.886,32.184-1.505q16.716-.968,33.421-2.074c19.809-1.306,39.608-2.747,59.422-4.037,20.554-1.339,41.119-2.609,61.691-3.671,21.2-1.1,42.4-2.109,63.6-3.32,21.65-1.237,43.3-2.534,64.947-3.771,20.823-1.188,41.643-2.419,62.5-2.859q16.973-.361,33.948-.371c10.066-.008,20.134.136,30.2.269,20.362.271,40.717.832,61.053,1.946,10.455.571,20.9,1.167,31.345,1.984q15.249,1.194,30.448,2.9c8.415.955,16.829,1.912,25.229,2.98v9.933h-.008l.008,450.313v5.115H-.085Z" transform="translate(0.093 -294.091)" fill="#d8db6f" fill-rule="evenodd"/>
  <path id="Trazado_8" data-name="Trazado 8" d="M1012.895,376.986a5.471,5.471,0,0,1-3.538-2.99,13.912,13.912,0,0,1-.727-1.713c-.215.348-.443.689-.668,1.027a5.258,5.258,0,0,1-7.831.691,10,10,0,0,1-1.37-1.674,7.31,7.31,0,0,1-.84-2.145,6.141,6.141,0,0,1-3.044,1.508,5.4,5.4,0,0,1-3.01-.248,7.316,7.316,0,0,1-2.691-2.015c-1.293-1.4-1.869-3.494-2.465-5.256-.366-1.085-.673-2.189-.988-3.29-.054-.192-.11-.381-.164-.573l-.174-.026c-.046.2-.095.412-.143.617a7.084,7.084,0,0,1-1.971,3.292,6.655,6.655,0,0,1-3.735,1.8,7.94,7.94,0,0,1-3.971-.553,16.449,16.449,0,0,1-3.428-1.917,32.7,32.7,0,0,1-4.145-3.663q-2.123-2.074-4.219-4.173c-.315-.312-.627-.63-.94-.945-1.411-.6-2.8-1.262-4.145-1.992a20.272,20.272,0,0,1-3.2-2.086,10.619,10.619,0,0,1-2.516-2.6,5.952,5.952,0,0,1,2.048-8.1c2.724-1.667,6.111-.556,8.563,1.06a29.634,29.634,0,0,1,4.6,4.063q.7.707,1.393,1.416,1.148.434,2.312.827c1.833.579,3.689,1.068,5.555,1.5a18.313,18.313,0,0,1,2.212-5.522,6.435,6.435,0,0,1,4.314-2.826,6.506,6.506,0,0,1,4.89,1.116c2.212,1.623,3.318,4.3,4.122,6.861q.5-2.788,1.055-5.565c.179-.917.41-1.818.62-2.726.146-.617.294-1.231.448-1.851a16.328,16.328,0,0,1,1.654-4.119,5.077,5.077,0,0,1,9.085.4,8.942,8.942,0,0,1,.76,2.245,13.667,13.667,0,0,1,.177,2.117c.015.783.031,1.564.054,2.342l.108,3.484c.005.187.013.374.018.561q.48-1.313.968-2.627c.52-1.4,1.1-2.775,1.644-4.16a70.724,70.724,0,0,1,3.661-8.018,5,5,0,0,1,6.72-1.935,5.4,5.4,0,0,1,2.465,2.545,7.3,7.3,0,0,1,.489,3.364c0-.049.005-.1.008-.143,0,.054-.005.108-.01.164-.008.161-.015.323-.026.484.005-.113.01-.225.018-.341-.174,2.834-.7,5.65-1.106,8.461q-.219,1.536-.433,3.072c1.329-2.821,2.68-5.632,4.2-8.353a20.583,20.583,0,0,1,4.035-5.594,6.377,6.377,0,0,1,7.2-1.024c3.651,2.02,3.663,6.63,3.21,10.388,1.382-1.725,2.775-3.441,4.232-5.107a53.711,53.711,0,0,1,4.659-4.723,16.923,16.923,0,0,1,2.634-1.82,11.343,11.343,0,0,1,3.681-1.367c2.373-.461,4.79.842,6.313,2.57,1.569,1.779,2.081,4.088,2.452,6.369.325,1.992.64,3.983.96,5.975a12.506,12.506,0,0,1,5.75-5.353,8.581,8.581,0,0,1,4.943-.389,9.428,9.428,0,0,1,4.188,2.2,21.517,21.517,0,0,1,4.042,5.361,6.9,6.9,0,0,1,3.594-2.391,8.423,8.423,0,0,1,2.859-.269,8.845,8.845,0,0,1,3.215,1.124c2.365,1.3,3.937,3.712,5.553,5.806q.588.764,1.191,1.516a12.771,12.771,0,0,1,1.546-6.06,6.756,6.756,0,0,1,7.424-3.116,9.415,9.415,0,0,1,2.985,1.469,15.719,15.719,0,0,1,2.6,2.568q.968,1.16,1.946,2.309a9.7,9.7,0,0,1,3.448-6.287,6.715,6.715,0,0,1,5.064-1.265,8.772,8.772,0,0,1,4.982,2.8,30.021,30.021,0,0,1,3.292,4.331c.315-2.322.865-4.792,2.524-6.536a6.242,6.242,0,0,1,4.3-1.958,7.1,7.1,0,0,1,4.831,2.045,15.654,15.654,0,0,1,3.346,5.143,27.111,27.111,0,0,1,1.751-4.705c1.357-2.767,4.232-4.938,7.427-4.572a6.786,6.786,0,0,1,4.058,1.856,12.621,12.621,0,0,1,1.344,1.541,10.108,10.108,0,0,1,.6.94,7.012,7.012,0,0,1,2.8-3.638,5.938,5.938,0,0,1,5.222-.317c1.618.643,2.637,2.048,3.727,3.325q.488.484,1,.94c.269.215.538.425.812.63.059-.253.115-.5.174-.758a20.572,20.572,0,0,1,2.074-5.709,6.5,6.5,0,0,1,6.817-3.323c4.106.837,5.386,5.11,6.533,8.594.138-.494.276-.988.42-1.48.481-1.651.958-3.325,1.551-4.941,1.231-3.343,2.726-7.583,6.769-8.215a5.98,5.98,0,0,1,5.939,2.737,14.53,14.53,0,0,1,1.669,5.018c.328,1.623.484,3.287.709,4.925l.184,1.344a25.332,25.332,0,0,1,1.4-2.555,9.718,9.718,0,0,1,3.005-3.256,6.189,6.189,0,0,1,4.654-.655,5.956,5.956,0,0,1,3.492,2.783,11.55,11.55,0,0,1,1.3,3.689c.289,1.283.581,2.565.9,3.843.527-1,1.057-1.992,1.62-2.967.489-.845.973-1.692,1.492-2.524a15.587,15.587,0,0,1,1.823-2.5,6.284,6.284,0,0,1,2.872-1.856,5.954,5.954,0,0,1,2.916-.12,5.572,5.572,0,0,1,2.865,1.853,7.37,7.37,0,0,1,1.462,3.74q.964-1.659,1.94-3.315a27.672,27.672,0,0,1,4.2-5.875,5.175,5.175,0,0,1,3.571-1.557,4.93,4.93,0,0,1,3.958,1.864,6.349,6.349,0,0,1,1.275,2.8,7.661,7.661,0,0,1-.507,3.581c-.763,2.476-1.646,4.92-2.478,7.375q-1.056,3.106-2.109,6.216c-.064.2-.128.4-.192.594-.148.456-.3.911-.443,1.364-.32,1.1-.66,2.191-.893,3.315-.008.046-.013.092-.018.138v.276a4.59,4.59,0,0,1-3.279,4.483c-.013,0-.023.008-.036.01A4.643,4.643,0,0,1,1240.1,360a4.9,4.9,0,0,1-1.042-2.048,6.833,6.833,0,0,1-1.06.154,5.657,5.657,0,0,1-4.516-1.784,8.161,8.161,0,0,1-1.807-3.1,13.948,13.948,0,0,1-3.118,4.344,7.516,7.516,0,0,1-3.827,1.746,6.146,6.146,0,0,1-4.47-1.234,11.557,11.557,0,0,1-1.562-1.5,9.831,9.831,0,0,1-1.165-1.966,16.858,16.858,0,0,1-1.039-2.665q-.261.776-.52,1.549c-.814,2.429-1.62,5.256-3.94,6.674a5.775,5.775,0,0,1-6.52-.261c-1.869-1.367-2.693-3.715-3.29-5.855a44.245,44.245,0,0,1-1.088-5.384c-.108.374-.213.747-.323,1.121a18.4,18.4,0,0,1-2.455,5.988,6.191,6.191,0,0,1-8.215,1.677c-2.424-1.477-3.607-4.252-4.559-6.84a5.454,5.454,0,0,1-.753,1.467,7.677,7.677,0,0,1-3.054,2.355,6.029,6.029,0,0,1-3.942.269,8.611,8.611,0,0,1-3.29-1.92c.061.054.125.1.189.159-.786-.65-1.646-1.208-2.488-1.779-.044.353-.085.7-.125,1.057-.131,1.085-.243,2.173-.4,3.254a10.022,10.022,0,0,1-1.149,3.566,5.85,5.85,0,0,1-3.31,2.644,5.348,5.348,0,0,1-3.589-.049,7.128,7.128,0,0,1-3-2.381,23.226,23.226,0,0,1-2.88-5.64q-.169-.411-.33-.822c-.274,1.226-.522,2.458-.771,3.689q-.261,1.448-.481,2.906c-.166,1.1-.328,2.2-.6,3.272a6.076,6.076,0,0,1-3.031,3.8,5.31,5.31,0,0,1-3.249.709,5.226,5.226,0,0,1-3.338-1.846c-.356-.41-.7-.811-1.029-1.249a14.314,14.314,0,0,1-1.244-2.145c-.386-.766-.7-1.572-1.039-2.365l-.338-.8a7.5,7.5,0,0,1-1.216,2.22,6.14,6.14,0,0,1-4.693,2.383,7.06,7.06,0,0,1-2.726-.433,9.917,9.917,0,0,1-2.278-1.316,26.256,26.256,0,0,1-5.207-5.9,10.373,10.373,0,0,1-.9,3.953,6.142,6.142,0,0,1-3.927,3.295c-3.579,1.011-6.761-1.536-9.039-3.981-.719-.768-1.428-1.541-2.135-2.319-.069,2.414-.284,4.859-2.035,6.7a7.191,7.191,0,0,1-6.761,1.961,12.806,12.806,0,0,1-5.793-3.374,41.974,41.974,0,0,1-4.616-5.187,6.309,6.309,0,0,1-2.12,3.881,5.8,5.8,0,0,1-5.762.73,9.924,9.924,0,0,1-4.114-3.84c-1.856-2.634-3.389-5.476-5.166-8.161q-.33.576-.63,1.172c-.847,1.882-1.549,3.812-2.248,5.755-.223.684-.445,1.367-.632,2.061q-.215.806-.43,1.608c-.21.791-.417,1.562-.689,2.335a10.121,10.121,0,0,1-1.178,2.04,5.349,5.349,0,0,1-6.912,1.521,7.311,7.311,0,0,1-2.591-2.337,9.979,9.979,0,0,1-.717-1.533,17.929,17.929,0,0,1-3.4.445c-.824.064-1.656.113-2.486.146-1.833.069-3.669.146-5.5.207-2.473.09-4.948.179-7.421.248-.479.868-.955,1.741-1.408,2.621-.924,1.8-1.8,3.615-2.708,5.422a5.442,5.442,0,0,1-4.006,2.773,5.519,5.519,0,0,1-5.051-1.976,5.956,5.956,0,0,1-1.3-3.477,7.468,7.468,0,0,1,.527-3.013c.2-.694.366-1.405.52-2.117l-.53.005h-.084q-.714,1.586-1.431,3.169c-.471,1.042-.955,2.079-1.441,3.121a30.12,30.12,0,0,1-1.518,2.906,12.11,12.11,0,0,1-3.062,3.5,5.583,5.583,0,0,1-3.364,1.175,4.765,4.765,0,0,1-1.263-.151Zm-363.9-14.116a5.441,5.441,0,0,1-3.075-3.369c-.038.015-.079.028-.12.044a6.119,6.119,0,0,1-4.918-.294,6.77,6.77,0,0,1-1.917-1.577,8.658,8.658,0,0,1-1.82,1.533,5.794,5.794,0,0,1-5.161.376,6.085,6.085,0,0,1-2.906-2.44,6.257,6.257,0,0,1-1.236,1.27,7.467,7.467,0,0,1-3.41,1.554,5.992,5.992,0,0,1-3.789-.809c-1.961-1.047-2.888-3.067-3.369-5.123a6.045,6.045,0,0,1-.824.443,5.788,5.788,0,0,1-5.791-.568,7.569,7.569,0,0,1-1.874-2.089,13.771,13.771,0,0,1-1.144-2.619q-.66-1.989-1.229-4.011l-.038-.133c-.287.906-.571,1.818-.824,2.732-.215.763-.425,1.528-.625,2.294-.146.561-.289,1.116-.445,1.672a10.734,10.734,0,0,1-1.482,3.039,5.541,5.541,0,0,1-3.756,2.258,5.745,5.745,0,0,1-4.168-1.039,6.951,6.951,0,0,1-2.289-2.655,10.363,10.363,0,0,1-.758-2.414,6.782,6.782,0,0,1-1.956,1.037,6.4,6.4,0,0,1-5.914-1.124c-.174-.125-.34-.261-.5-.4a5.039,5.039,0,0,1-.422.381,5.5,5.5,0,0,1-4.168,1.2,10.118,10.118,0,0,1-2.194-.525,7.694,7.694,0,0,1-2.194-1.411,24.233,24.233,0,0,1-2.24-2.314,6.076,6.076,0,0,1-2.783,2.516c-2.826,1.244-5.757-.1-8.358-1.349-.223-.1-.445-.195-.668-.289a8.01,8.01,0,0,1-1.088.707,7.423,7.423,0,0,1-3.617.883,15.608,15.608,0,0,1-5.458-1.224c-1.569-.579-3.126-1.178-4.672-1.81-2.957-1.208-5.911-2.391-8.929-3.425-1.454-.445-2.9-.847-4.39-1.157-.292-.036-.586-.069-.878-.1-1.441-.036-2.875.028-4.319.095-1.5.069-3,.051-4.493.125q-.73.073-1.459.177a4.711,4.711,0,0,1-1.979-9.19c1.585-.486,3.167-.963,4.79-1.308a34.245,34.245,0,0,1,4.424-.589,33.533,33.533,0,0,1,5.02-.051,32.269,32.269,0,0,1,4.762.824c5.88,1.318,11.213,4.234,16.84,6.282a10.019,10.019,0,0,1,4.288-1.8,9.589,9.589,0,0,1,.53-5.683,7.854,7.854,0,0,1,1.541-2.225,8.209,8.209,0,0,1,2.289-1.528,7.045,7.045,0,0,1,5.286-.038,9.005,9.005,0,0,1,2.158,1.093,5.819,5.819,0,0,1,6.646-4.444c3.177.387,4.841,3.223,6.213,5.778.456.847.909,1.692,1.372,2.534a24.158,24.158,0,0,1,1.052-3.328,7.323,7.323,0,0,1,3.576-3.912,5.879,5.879,0,0,1,3.092-.538,6.134,6.134,0,0,1,2.936,1.126,8.554,8.554,0,0,1,1.643,1.618,10.18,10.18,0,0,1,1.316,2.573,20.079,20.079,0,0,1,.637,2.03,11.282,11.282,0,0,1,3.789-4.567,6.6,6.6,0,0,1,5.806-.55,7.587,7.587,0,0,1,3.832,3.5,17.142,17.142,0,0,1,1.162,2.575c.2-.489.41-.975.63-1.454-.013.026-.023.051-.036.074.013-.031.028-.059.041-.09,0-.008.008-.018.01-.026a10.224,10.224,0,0,1,.96-1.792,6.24,6.24,0,0,1,1.707-1.569,5.472,5.472,0,0,1,4.767-.389,5.735,5.735,0,0,1,1.851,1.149,6.977,6.977,0,0,1,1.308,1.94,6.158,6.158,0,0,1,.494,2.168c.09.837.161,1.672.218,2.514q.127,1.931.271,3.863c.015-.026.028-.054.044-.079.374-.686.755-1.367,1.134-2.051.269-.486.545-.973.829-1.449a16.429,16.429,0,0,1,1.728-2.281,5.045,5.045,0,0,1,6.113-.937,6.11,6.11,0,0,1,2.189,2.025,6.582,6.582,0,0,1,.755,4.045c-.026.34-.051.681-.079,1.021.1-.056.2-.113.3-.166a5.517,5.517,0,0,1,3.126-.556,5.436,5.436,0,0,1,4.472,4.093l.156-.187q1.421-1.686,2.859-3.361c.443-.512.9-1.014,1.347-1.518.343-.384.686-.766,1.039-1.142a11.577,11.577,0,0,1,2.048-1.651,4.871,4.871,0,0,1,6.689,1.61,5.191,5.191,0,0,1,.681,3.121,8.717,8.717,0,0,1-1.019,3.3c.328-.184.658-.361,1-.522a11.968,11.968,0,0,1,2.209-.9,14.027,14.027,0,0,1,2.665-.4,5.64,5.64,0,0,1,4.462,2.173,5.579,5.579,0,0,1,1.18,2.772,17.289,17.289,0,0,1,6.42-1.482,4.749,4.749,0,0,1,.737,9.449c-.2.013-.4.031-.607.056-.154.044-.3.09-.458.141-2.2.87-4.308,2.028-6.431,3.077-.9.445-1.792.881-2.7,1.3-.545.253-1.091.5-1.636.755a13.948,13.948,0,0,1-4.326,1.288,5.5,5.5,0,0,1-6.011-3.991c-.525.412-1.039.837-1.546,1.28l-.033.033a4.386,4.386,0,0,1-.169.65,4.565,4.565,0,0,1-.55,1.779,4.381,4.381,0,0,1-1.2,1.382.1.1,0,0,1,.023-.013c-.046.033-.092.067-.141.1l-.069.046a4.69,4.69,0,0,1-2.824.927,5.72,5.72,0,0,1-1.979-.384Zm968.7-26.419a4.669,4.669,0,0,1-1.81-6.285c.218-.384.438-.773.653-1.162a4.606,4.606,0,0,1,8.061,4.46c-.2.394-.412.789-.622,1.178a4.606,4.606,0,0,1-4.075,2.373,4.55,4.55,0,0,1-2.207-.563Zm-27.53-3.994a4.627,4.627,0,1,1,4.68,4.575,4.668,4.668,0,0,1-4.68-4.575Zm-192.481,1.989a4.378,4.378,0,1,1,4.429,4.326,4.414,4.414,0,0,1-4.429-4.326Zm9.375-1.085a17.473,17.473,0,0,1,.018-6.2,7.085,7.085,0,0,1,3-4.762,4.942,4.942,0,0,1,3.095-.668,4.779,4.779,0,0,1,2.414,1.052,4.51,4.51,0,0,1,1.38,5.146,4.3,4.3,0,0,1-.389.755c-.051,1.375-.1,2.744-.182,4.119.005-.123.013-.243.018-.364,0,.064-.008.131-.013.195a5.025,5.025,0,0,1-.909,2.829,4.706,4.706,0,0,1-3.108,1.866,4.4,4.4,0,0,1-.658.049,4.742,4.742,0,0,1-4.662-4.014Zm151.411,1.8c-.392-.018-.786-.036-1.172-.018a4.571,4.571,0,0,1-.458-9.124l-.213.018c.914-.084,1.82-.2,2.737-.259.863-.054,1.731-.056,2.6-.069,1.966-.036,3.937-.059,5.906-.084a4.686,4.686,0,1,1,.1,9.372q-2.953.054-5.9.131-1.3.035-2.6.059h-.133c-.292,0-.581-.013-.868-.026Zm-28.111-9.339a4.86,4.86,0,1,1,4.915,4.805,4.9,4.9,0,0,1-4.915-4.805Zm-12.314,5.1a4.9,4.9,0,0,1-4.252-5.412,8.151,8.151,0,0,1,1.454-3.743,7.17,7.17,0,0,1,2.171-1.974,4.675,4.675,0,0,1,6.326,6.589c-.113.246-.223.489-.338.732-.015.036-.031.069-.044.1s-.013.046-.018.069a4.951,4.951,0,0,1-4.723,3.671c-.192,0-.384-.015-.576-.038Zm-16.986-.719a4.759,4.759,0,0,1-4.134-5.263,25.885,25.885,0,0,1,1.718-6.313,24.551,24.551,0,0,1,1.689-3.246,22.22,22.22,0,0,1,1.495-2.03c-.005.008-.013.015-.018.023l.113-.141q.084-.108.177-.207c.023-.028.046-.056.072-.084l-.061.074a4.349,4.349,0,0,1,7.375,4.4c-.622,1.393-1.032,2.9-1.521,4.339-.517,1.521-1.1,3.016-1.633,4.529-.041.128-.079.256-.12.387a5.007,5.007,0,0,1-1.61,2.514,4.781,4.781,0,0,1-2.985,1.05,3.656,3.656,0,0,1-.555-.028Zm-18.857-1.4c.143-2.829.1-5.67.256-8.5-.005.087-.01.171-.015.259.015-.269.028-.538.044-.806-.005.079-.008.156-.013.236a43.761,43.761,0,0,1,.494-4.872,38.558,38.558,0,0,1,1.068-5.11,4.691,4.691,0,0,1,8.835-.742,9.349,9.349,0,0,1,.387,4.664c-.061.986-.151,1.979-.264,2.959-.241,2.063-.548,4.109-.922,6.152-.074.4-.151.8-.225,1.206-.3,1.674-.545,3.351-.737,5.041a4.519,4.519,0,0,1-4.39,3.94h-.046a4.494,4.494,0,0,1-4.47-4.426Zm-10.286,4.634a4.7,4.7,0,0,1-3.064-1.695,4.85,4.85,0,0,1-1-3.477q.054-.833.1-1.667c.1-2.163.11-4.331.228-6.495.072-1.347.207-2.678.376-4.017a12.761,12.761,0,0,1,1.321-4.716,4.705,4.705,0,0,1,8.773,1.6,24.863,24.863,0,0,1-.036,4.6c-.1,1.318-.233,2.619-.407,3.93-.166,1.239-.4,2.473-.586,3.709-.212,1.382-.379,2.773-.535,4.163a4.7,4.7,0,0,1-4.639,4.1,3.761,3.761,0,0,1-.532-.031ZM1456.526,330c-.01-1.462-.041-2.916-.046-4.372a5.068,5.068,0,0,1-1.751.9,5.262,5.262,0,0,1-3.61-.264c.069.207.136.412.207.617.177.469.358.934.545,1.4a4.76,4.76,0,0,1-2.4,6.2,4.619,4.619,0,0,1-1.861.4,4.858,4.858,0,0,1-4.332-2.79c-.4-.827-.8-1.654-1.2-2.481a4.983,4.983,0,0,1-1.027,1.631,5.107,5.107,0,0,1-3.707,1.564,5.165,5.165,0,0,1-2.34-.556,4.984,4.984,0,0,1-1.738,3.133,4.866,4.866,0,0,1-3.041,1.044,4.415,4.415,0,0,1-3.208-1.3,29.229,29.229,0,0,1-2.281-2.655,24.5,24.5,0,0,1-1.528-2.45c-.893-1.559-1.669-3.208-2.473-4.82-.079-.141-.161-.282-.246-.417a4.779,4.779,0,0,1-.381-.691c0,.01,0,.02,0,.028a4.426,4.426,0,0,1,.189-4.07,4.712,4.712,0,0,1,5.133-2.222c1.8.356,3,1.823,4.029,3.218l.079.107a5.306,5.306,0,0,1,2.783-1.236,7.763,7.763,0,0,1,5.292,1.585c.535.364,1.057.742,1.567,1.131a31.182,31.182,0,0,1-.914-3.722,14.341,14.341,0,0,1-.338-4.938,4.755,4.755,0,0,1,3.963-4.06,4.678,4.678,0,0,1,5.153,3.328c.172.794.384,1.577.617,2.355.021-.154.046-.307.072-.461-.013.069-.026.136-.036.2,0-.026.008-.051.01-.074.015-.084.031-.169.049-.253s.033-.177.051-.266c-.015.079-.031.159-.046.241a4.663,4.663,0,0,1,9.108-.33c-.005-.018-.008-.036-.013-.054.005.023.01.043.015.067q.054.2.092.4c.079.335.161.671.246,1l.015-.09a19.032,19.032,0,0,1,1.3-5.158c1.326-2.734,5.22-3.118,7.314-1.121a4.681,4.681,0,0,1,1.262,2.091,0,0,0,0,0,0,0,7.512,7.512,0,0,1,.23,2.808c-.026.776-.077,1.549-.125,2.324-.092,1.5-.192,2.993-.315,4.488-.251,3.049-.914,6.047-1.165,9.1a4.648,4.648,0,0,1-4.536,4.073h-.054a4.68,4.68,0,0,1-4.618-4.58ZM160.012,367.573a4.563,4.563,0,0,1-.154-6.405,36.735,36.735,0,0,1,3.392-2.913,24.248,24.248,0,0,1,6.38-3.4,20.607,20.607,0,0,1,10.309-.52,25.949,25.949,0,0,1,2.621.607c.059-.223.125-.443.2-.663a5.608,5.608,0,0,1,3.651-3.927,4.634,4.634,0,0,1,3.569.415,4.571,4.571,0,0,1,2.332,3.374,6.821,6.821,0,0,1-.108,1.91h0c.036-.195.072-.387.11-.581-.059.33-.095.66-.125.991-.069,2.222.064,4.618-1.016,6.6a5.461,5.461,0,0,1-6.807,2.176c-1.418-.622-2.836-1.239-4.3-1.751-.62-.187-1.242-.34-1.876-.474-.579-.09-1.152-.154-1.733-.195-.545-.01-1.085,0-1.631.026-.456.051-.906.118-1.357.2-.364.092-.722.2-1.08.312-.494.2-.975.412-1.452.645-.653.369-1.275.771-1.894,1.19-.763.586-1.5,1.19-2.214,1.828-.138.133-.279.266-.415.4a4.685,4.685,0,0,1-3.228,1.4h-.056a4.556,4.556,0,0,1-3.118-1.247ZM277.9,363.851a4.59,4.59,0,0,1-1.782-6.193c1.618-2.685,3.269-5.348,5.053-7.926a65.673,65.673,0,0,1,5.745-6.566,4.543,4.543,0,0,1,7.828,3.087,4.737,4.737,0,0,1-1.252,3.185c-.3.351-.6.707-.9,1.062a120.828,120.828,0,0,0-8.143,11.016c-.118.184-.233.369-.351.553a4.76,4.76,0,0,1-2.726,2.173,4.578,4.578,0,0,1-3.469-.392Zm-11.648-4.342a4.752,4.752,0,0,0,4.227,2.724,4.489,4.489,0,0,0,1.815-.387,4.639,4.639,0,0,0,2.335-6.042c-.074-.187-.148-.374-.22-.561-.164-.486-.317-.97-.451-1.464-.031-.169-.059-.335-.082-.5.643-1.708,1.431-3.377,2.2-5.028.392-.791.8-1.567,1.257-2.322.125-.177.253-.351.384-.525h0a4.462,4.462,0,0,0-2.637-7.688l.09.005a4.387,4.387,0,0,0-3.09.783,11.686,11.686,0,0,0-.056-2.1,4.515,4.515,0,0,0-8.952.11q-.092.722-.21,1.439c-.453,2.028-1,4.019-1.61,6.008-.259.781-.527,1.559-.8,2.332a4.532,4.532,0,0,0-2.88-3.671.718.718,0,0,0,.072.013,4.9,4.9,0,0,0-4.641.635,14.65,14.65,0,0,0-2.322,2.184c-.973,1.057-1.879,2.181-2.8,3.279a37.491,37.491,0,0,0-3.146,4.2c-.835,1.334-1.5,2.77-2.248,4.147a4.6,4.6,0,0,0,4.06,6.833,4.465,4.465,0,0,0,3.318-1.416c1.062-1.165,2.214-2.266,3.205-3.492a39.488,39.488,0,0,0,2.327-3.226c.691-1.055,1.38-2.107,2.081-3.154q.614-.91,1.234-1.823c.092-.136.187-.269.284-.4-.563,1.574-1.152,3.128-1.83,4.659-.069.143-.141.287-.212.43a4.805,4.805,0,0,0-.4,3.533,4.606,4.606,0,0,0,4.462,3.348,4.5,4.5,0,0,0,3.743-1.882q.591-.864,1.132-1.759c.118.263.241.522.366.778ZM197.035,353.8a4.514,4.514,0,0,1-.522-3.448,4.365,4.365,0,0,1,2-2.724,13.5,13.5,0,0,1,3.264-1.331,9.939,9.939,0,0,1,4.058,0,4.608,4.608,0,0,1,2.883,1.592,4.374,4.374,0,0,1-3.924,7.094c-.246-.046-.486-.087-.735-.118h-.051c-.159.072-.315.146-.471.22-.113.064-.225.13-.333.2a4.528,4.528,0,0,1-2.327.643,4.483,4.483,0,0,1-3.845-2.122Zm16.845,3.016A4.434,4.434,0,0,1,216.13,351c.653-.251,1.293-.522,1.92-.824.271-.154.535-.315.8-.484.036-.031.074-.059.11-.09.01-.013.018-.026.028-.038.63-1.111,1.149-2.291,1.789-3.4a23.9,23.9,0,0,1,1.884-3.026l-.069.079c.005-.005.008-.013.013-.018.031-.038.064-.077.095-.113.082-.1.166-.2.253-.3-.061.072-.12.146-.179.218a4.592,4.592,0,0,1,2.194-1.449,4.45,4.45,0,0,1,5.281,6.141c.028-.061.059-.123.087-.182-.287.668-.5,1.372-.776,2.051-.438,1.068-.893,2.125-1.434,3.146a11.224,11.224,0,0,1-3.308,4.019,20.2,20.2,0,0,1-5.688,2.545,3.986,3.986,0,0,1-1.2.187,4.522,4.522,0,0,1-4.045-2.642Zm20.093,1.979a4.548,4.548,0,0,1-2.163-2.711,4.71,4.71,0,0,1,.387-3.448,50.462,50.462,0,0,1,4.073-7.411c.84-1.178,1.718-2.309,2.645-3.42a19.781,19.781,0,0,1,2.627-2.632,6.612,6.612,0,0,1,3.927-1.472,4.46,4.46,0,0,1,2.115,8.417l-.23.253c-.553.712-1.052,1.457-1.554,2.2.11-.171.223-.346.333-.52-.3.474-.6.945-.909,1.418l.338-.525q-.691,1.083-1.382,2.163c-1.4,2.173-2.877,4.283-4.362,6.4a4.572,4.572,0,0,1-5.842,1.283Zm220.979-14.52a4.728,4.728,0,0,1-3.085-1.7,4.8,4.8,0,0,1-.9-4.1c.084-.389.164-.776.248-1.165.046-.271.087-.543.11-.819-.008.172-.021.343-.031.515.005.072.01.143.018.215a4.351,4.351,0,0,1,8.642-.991c.059.573.161,1.131.2,1.707.041.545.041,1.088.036,1.633a4.757,4.757,0,0,1-4.682,4.736,3.819,3.819,0,0,1-.566-.028ZM433,342.334a11.351,11.351,0,0,1-.566-1.39c-.008.543-.02,1.088-.036,1.631a4.97,4.97,0,0,1-1.667,3.622,17.382,17.382,0,0,1,.44,1.92,4.706,4.706,0,0,1-3.341,5.174,4.507,4.507,0,0,1-1.252.174,4.638,4.638,0,0,1-4.326-2.78q-.127-.334-.269-.661c-.169-.292-.348-.576-.54-.858l.161.228a39.412,39.412,0,0,1-4.385-7.995c-.374-.94-.73-1.887-1.075-2.836a4.483,4.483,0,0,1-.026.666c0,.015,0,.031-.005.046a.215.215,0,0,0,0,.041c.051.412.118.819.195,1.226.259,1.039.54,2.074.8,3.116.156.617.307,1.234.453,1.856a12.416,12.416,0,0,1,.43,2.824,10.335,10.335,0,0,1-.348,2.627,4.668,4.668,0,0,1-4.483,3.477,4.2,4.2,0,0,1-.538-.033,4.658,4.658,0,0,1-3.039-1.679,4.774,4.774,0,0,1-1-3.325v-.02c-.02-.067-.038-.131-.059-.195-.358-.917-.689-1.836-.968-2.78-.253-.858-.4-1.756-.566-2.634a19.18,19.18,0,0,1-.33-3.607,8.5,8.5,0,0,1,.571-3.133,5.06,5.06,0,0,1,1.958-2.291,4.593,4.593,0,0,1,6.021,1.121c-.143-.5-.264-1-.379-1.508a7.48,7.48,0,0,1-.143-3.732,4.633,4.633,0,0,1,3.743-3.369,4.538,4.538,0,0,1,4.8,2.652c.187.5.351,1.016.52,1.528l.123.32a5.45,5.45,0,0,1,2.985-2.235l-.087.031a4.54,4.54,0,0,1,5.942,5.023c.251-.852.55-1.687.835-2.529a4.547,4.547,0,0,1,8.891.53,35.71,35.71,0,0,1-.061,6.82q0,.146.008.292a5.225,5.225,0,0,1-.568,3.041,4.965,4.965,0,0,1-2.949,2.353,4.817,4.817,0,0,1-1.344.192A5.092,5.092,0,0,1,433,342.334Zm-50.931,12.48a37.393,37.393,0,0,1-2.107-3.144c-1.359-2.345-2.588-5.038-2.253-7.818a6.226,6.226,0,0,1,5.13-5.4c2.3-.338,4.413,1,6.049,2.483a4.167,4.167,0,0,1,1.313,2.506,12.279,12.279,0,0,1,1.677-4.288,6.05,6.05,0,0,1,4.933-2.964,10.213,10.213,0,0,1,3.715,1.019,4.451,4.451,0,0,1,.161,8.207,4.33,4.33,0,0,1-.74.248c.136.893.32,1.777.5,2.662.22.96.466,1.91.765,2.852a23.94,23.94,0,0,1,1.149,4.421,4.578,4.578,0,0,1-3.226,4.995,4.547,4.547,0,0,1-3.438-.389,4.7,4.7,0,0,1-2.158-2.706l-.015-.044c-.561-1.272-1.231-2.486-1.736-3.784a25.974,25.974,0,0,1-1.464-4.936,19.709,19.709,0,0,1-.358-3.034,4.309,4.309,0,0,1-1.577,2.079c.343.609.7,1.206,1.088,1.794a4.58,4.58,0,0,1-1.016,5.914,4.665,4.665,0,0,1-2.918.993,4.229,4.229,0,0,1-3.479-1.667Zm673.486-3.551h0l-.123-.829a6.4,6.4,0,0,1-.31.755l.3.051.133.023Zm-2.33-8.084a10.77,10.77,0,0,1,1.449,1.7c-.174-1.306-.348-2.609-.535-3.912q-.772.806-1.516,1.641C1052.825,342.8,1053.025,342.989,1053.222,343.179Z" transform="translate(247.682 -306.481)" fill="#d8db6f" fill-rule="evenodd"/>
</svg>
