<svg xmlns="http://www.w3.org/2000/svg" width="1920" height="611.913" viewBox="0 0 1920 611.913">
  <path id="Trazado_5" data-name="Trazado 5" d="M-.084,873.019-.092,403.381V392.749h0V301.434q1.248-.511,2.5-1.016c6.781-2.747,13.6-5.414,20.488-7.88,6.789-2.424,13.632-4.7,20.47-6.981,6.444-2.153,12.869-4.36,19.379-6.305,3.351-1,6.715-1.981,10.13-2.732,3.528-.776,7.073-1.352,10.655-1.784,3.374-.407,6.792-.627,10.191-.712,3.584-.087,7.173-.131,10.752.049,3.61.177,7.222.4,10.811.873s7.168,1.006,10.721,1.71a100.436,100.436,0,0,1,10.345,2.586c3.192.993,6.362,2.068,9.49,3.251,2.685,1.016,5.34,2.086,7.967,3.246,2.381,1.047,4.685,2.278,6.973,3.512,4.621,2.491,9.05,5.317,13.489,8.11,4.559,2.87,9.121,5.755,13.809,8.42s9.441,5.125,14.264,7.5c4.344,2.094,8.707,4.129,13.146,6.013q6.743,2.861,13.691,5.217c1.487.474,2.982.922,4.5,1.316,1.551.4,3.118.727,4.687,1.052,3.395.63,6.794,1.162,10.219,1.608,3.453.451,6.925.717,10.4.927,7.15.315,14.31.42,21.466.241,6.984-.171,13.962-.509,20.951-.671,7.16-.164,14.313-.2,21.476-.164,2.488.013,4.979.01,7.47.01,4.3,0,8.594,0,12.89.067,3.556.056,7.1.2,10.644.461,3.149.236,6.29.655,9.421,1.073q5.215.7,10.381,1.736c3.418.684,6.781,1.628,10.14,2.547,6.589,1.8,13.146,3.745,19.7,5.658,3.3.96,6.589,1.935,9.866,2.975s6.551,2.184,9.823,3.277c-.115-.038-.233-.077-.348-.118,6.753,2.232,13.522,4.429,20.316,6.533,7.03,2.179,14.1,4.224,21.174,6.249,6.845,1.956,13.7,3.878,20.585,5.676,7.2,1.877,14.446,3.507,21.722,5.015,3.254.676,6.515,1.308,9.771,1.935.712.138,1.428.274,2.14.41-.033-.005-.064-.013-.1-.018q6.793,1.29,13.6,2.411,2.765,0,5.53.023c5.537.056,11.072.215,16.609.425,10.171.381,20.321,1.147,30.469,1.9,9.579.717,19.167,1.29,28.749,1.964,9.92.694,19.83,1.5,29.739,2.319q16.4,1.359,32.809,2.453c6.976.458,13.955.827,20.936,1.208q25.448,1.336,50.911,2.427c17.206.758,34.4,1.764,51.6,2.568,8.159.381,16.323.714,24.481,1.091q13.275.611,26.545,1.37c9.1.512,18.2,1.1,27.3,1.656q12.876.78,25.759,1.48,16.57.872,33.144,1.695c10.729.512,21.463.85,32.2,1.16,5,.146,10,.2,15.007.3,5.184.1,10.376.154,15.562.192q16.044.131,32.084.2c45.33.115,90.657-.092,135.987-.246q66.528-.223,133.058-.169c4.536,0,9.073,0,13.606.015,5.919.023,11.835.01,17.751.072q9.327.1,18.652.2c5.368.056,10.737.192,16.1.294,22.252.433,44.5,1.26,66.739,2.033q32.567,1.133,65.131,2.473c9.638.389,19.274.781,28.907,1.265q9.815.5,19.627.988c5.084.259,10.166.6,15.247.9,4.421.266,8.84.54,13.258.87,5.9.44,11.809.809,17.7,1.334q9.9.883,19.786,1.756c5.806.515,11.6,1.147,17.393,1.728,4.524.453,9.037.94,13.555,1.434,5.258.573,10.514,1.126,15.767,1.746q8.771,1.037,17.541,2.068c2.158.253,4.313.556,6.466.832q6.044.78,12.088,1.556c5.007.648,10,1.4,15,2.1q8.01,1.137,16,2.378c4.749.73,9.5,1.446,14.241,2.232,5.627.934,11.269,1.818,16.888,2.813q9.051,1.605,18.1,3.205c5.734,1.016,11.456,2.13,17.18,3.2,9.81,1.825,19.592,3.794,29.366,5.814q15.751,3.252,31.434,6.8c10.944,2.488,21.88,5.012,32.771,7.729,5.2,1.3,10.388,2.6,15.573,3.968q8.759,2.3,17.485,4.718v6.292l-.005,0,.005,391.574v9.925H-.084Zm341.255-551.96a2.376,2.376,0,0,0,.3.018,2.467,2.467,0,0,0,.3-4.915c-3.226-.433-6.464-.906-9.71-1.152-1.608-.12-3.213-.218-4.826-.243-.727-.01-1.459-.018-2.186.033a16.743,16.743,0,0,0-2.258.312,2.461,2.461,0,0,0,.983,4.813h0c2.112-.1,4.234,0,6.344.1q5.549.342,11.051,1.032Zm-56.473-.492.983,0c2.232,0,4.47-.033,6.7-.172,2.739-.166,5.478-.387,8.215-.589l-.038,0,.479-.036h-.015a.049.049,0,0,0,.02,0l.312-.023-.049.005.1-.008c.049,0,.1-.008.148-.013l-.128.01c1.915-.136,3.832-.266,5.75-.333a2.473,2.473,0,0,0-.041-4.946c-1.964.02-3.924.033-5.888.107-1.853.069-3.7.184-5.548.315-2.6.179-5.2.376-7.813.458-2.55.079-5.1.074-7.652.023-2.583-.056-5.164-.164-7.741-.266-1.334-.054-2.673-.125-4.009-.125-1.293,0-2.57.061-3.858.169a2.474,2.474,0,0,0,.361,4.925c1.364-.038,2.734-.028,4.1.008,2.614.067,5.228.215,7.841.312,2.593.1,5.179.164,7.77.174ZM66.8,266.787a2.477,2.477,0,0,1,0-1.889,2.618,2.618,0,0,1,1.334-1.339c-.392.192-.059.028.005-.005.223-.115.448-.223.673-.333.34-.164.694-.3,1.044-.435a18.889,18.889,0,0,1,2.435-.707,36.752,36.752,0,0,1,4.782-.7l-.128.008c1.708-.131,3.41-.213,5.123-.253,1.61-.038,3.223.02,4.831.069,3.292.1,6.579.425,9.856.717a2.481,2.481,0,1,1-.6,4.925l-1.3-.087c-2.842-.156-5.688-.251-8.535-.307-2.929-.059-5.839-.036-8.763.156-1.521.146-3.026.335-4.529.612-.737.169-1.467.361-2.189.594-.269.095-.538.189-.8.3a2.5,2.5,0,0,1-3.226-1.318ZM7.916,283.427a2.509,2.509,0,0,0,2.284,1.521,2.3,2.3,0,0,0,.64-.09c.968-.279,1.951-.509,2.918-.794,1.057-.3,2.112-.63,3.162-.957,2.186-.681,4.375-1.341,6.577-1.961,5.3-1.485,10.652-2.783,15.99-4.129s10.611-2.931,15.923-4.37a2.456,2.456,0,1,0-1.29-4.739c-2.4.62-4.81,1.219-7.227,1.774-2.263.52-4.534.988-6.8,1.5-2.642.6-5.263,1.28-7.887,1.964-2.58.671-5.166,1.323-7.734,2.045-2.747.773-5.481,1.577-8.184,2.5-1.257.433-2.514.865-3.768,1.308-1.1.387-2.176.817-3.269,1.2a2.479,2.479,0,0,0-1.334,3.223Zm423.991,96.345q2.861-.2,5.719-.41c.005,0,.008,0,.013,0l-.085.008.087-.008c.033-.005.067-.01.1-.013q-2.911.223-5.837.425Zm70.044-4.572c.732-.023,1.467-.044,2.2-.064a.129.129,0,0,0-.031-.005q-1.087.031-2.168.069Zm-82.442-23.9-3.348-1.114h-.005a.732.732,0,0,0,.079.026l-.095-.031-.1-.026q1.766.58,3.466,1.144Zm-343.9-69.535-.182.044q.826-.165,1.649-.317c-.486.087-.975.179-1.462.274Z" transform="translate(0.092 -261.117)" fill="#f1f3b1" fill-rule="evenodd"/>
</svg>
